<svg xmlns="http://www.w3.org/2000/svg" xmlns:xlink="http://www.w3.org/1999/xlink" width="500" zoomAndPan="magnify" viewBox="0 0 375 374.999991" height="500" preserveAspectRatio="xMidYMid meet" version="1.0"><defs><filter x="0%" y="0%" width="100%" height="100%" id="49532cc872"><feColorMatrix values="0 0 0 0 1 0 0 0 0 1 0 0 0 0 1 0 0 0 1 0" color-interpolation-filters="sRGB"/></filter><g/><clipPath id="0b3ac07dfa"><path d="M 191 178.046875 L 196 178.046875 L 196 183 L 191 183 Z M 191 178.046875 " clip-rule="nonzero"/></clipPath><clipPath id="e17f199bb8"><path d="M 180 178.046875 L 185 178.046875 L 185 183 L 180 183 Z M 180 178.046875 " clip-rule="nonzero"/></clipPath><clipPath id="8962236959"><path d="M 171.738281 184 L 185 184 L 185 196.796875 L 171.738281 196.796875 Z M 171.738281 184 " clip-rule="nonzero"/></clipPath><clipPath id="0876657c3e"><path d="M 191 184 L 203.988281 184 L 203.988281 196.796875 L 191 196.796875 Z M 191 184 " clip-rule="nonzero"/></clipPath><mask id="422fda520a"><g filter="url(#49532cc872)"><rect x="-37.5" width="450" fill="#000000" y="-37.499999" height="449.999989" fill-opacity="0.8"/></g></mask><clipPath id="16b914e196"><rect x="0" width="249" y="0" height="46"/></clipPath></defs><rect x="-37.5" width="450" fill="#ffffff" y="-37.499999" height="449.999989" fill-opacity="1"/><rect x="-37.5" width="450" fill="#ffffff" y="-37.499999" height="449.999989" fill-opacity="1"/><g clip-path="url(#0b3ac07dfa)"><path fill="#d8d8d8" d="M 191.171875 182.152344 C 191.179688 182.125 191.203125 182.09375 191.222656 182.054688 C 191.226562 182.058594 191.230469 182.0625 191.234375 182.066406 C 192.238281 180.6875 193.527344 179.988281 195.179688 179.980469 C 195.191406 179.941406 195.203125 179.90625 195.21875 179.867188 C 194.808594 179.5 194.4375 179.074219 193.988281 178.769531 C 192.914062 178.050781 191.382812 178.640625 191.148438 179.902344 C 191.019531 180.613281 191.125 181.363281 191.125 182.214844 C 191.140625 182.195312 191.15625 182.175781 191.171875 182.152344 Z M 191.171875 182.152344 " fill-opacity="1" fill-rule="nonzero"/></g><path fill="#d8d8d8" d="M 178.582031 186.550781 C 178.484375 186.539062 178.386719 186.53125 178.300781 186.546875 C 178.296875 186.546875 178.289062 186.550781 178.285156 186.554688 C 178.351562 186.558594 178.398438 186.558594 178.445312 186.5625 C 178.480469 186.699219 178.480469 186.699219 178.316406 186.671875 C 178.289062 186.632812 178.261719 186.597656 178.238281 186.5625 C 178.15625 186.597656 178.09375 186.664062 178.074219 186.792969 C 178.023438 187.082031 178.25 187.132812 178.476562 187.171875 C 178.863281 187.234375 179.230469 187.355469 179.5625 187.535156 C 179.570312 187.519531 179.574219 187.503906 179.589844 187.484375 C 179.605469 187.464844 179.589844 187.417969 179.585938 187.382812 C 179.632812 187.371094 179.683594 187.359375 179.734375 187.34375 C 179.761719 187.363281 179.789062 187.390625 179.828125 187.421875 C 179.839844 187.382812 179.847656 187.359375 179.855469 187.332031 C 179.859375 187.335938 179.867188 187.332031 179.871094 187.335938 C 179.933594 187.351562 179.992188 187.429688 180.066406 187.359375 C 180.074219 187.351562 180.109375 187.382812 180.132812 187.394531 C 180.15625 187.40625 180.179688 187.421875 180.210938 187.414062 C 180.175781 187.371094 180.140625 187.332031 180.105469 187.292969 C 180.117188 187.28125 180.125 187.269531 180.132812 187.261719 C 180.199219 187.304688 180.265625 187.351562 180.332031 187.398438 C 180.398438 187.539062 180.269531 187.605469 180.210938 187.703125 C 180.144531 187.636719 180.042969 187.636719 179.996094 187.683594 C 179.945312 187.6875 179.910156 187.691406 179.878906 187.691406 C 179.863281 187.691406 179.847656 187.695312 179.832031 187.695312 C 179.957031 187.777344 180.082031 187.871094 180.195312 187.976562 C 180.6875 188.421875 181.035156 188.9375 181.214844 189.523438 C 181.234375 189.535156 181.261719 189.554688 181.300781 189.589844 C 181.308594 189.59375 181.324219 189.589844 181.339844 189.589844 C 181.316406 189.644531 181.292969 189.691406 181.269531 189.738281 C 181.335938 190.019531 181.367188 190.316406 181.355469 190.632812 C 181.351562 190.863281 181.324219 191.140625 181.640625 191.160156 C 181.988281 191.179688 181.976562 190.882812 181.984375 190.636719 C 181.988281 190.453125 181.980469 190.265625 181.980469 190.191406 C 181.765625 188.269531 180.335938 186.78125 178.582031 186.550781 Z M 179.082031 187.175781 C 179.070312 187.144531 179.058594 187.109375 179.039062 187.058594 C 179.027344 187.085938 179.019531 187.105469 179.015625 187.121094 C 178.96875 187.09375 178.921875 187.070312 178.878906 187.042969 C 178.882812 187.035156 178.886719 187.023438 178.886719 187.015625 C 178.917969 187.027344 178.945312 187.035156 178.984375 187.050781 C 178.992188 187.027344 179.003906 187.003906 179.019531 186.972656 C 179.066406 186.996094 179.117188 187.019531 179.164062 187.042969 C 179.144531 187.066406 179.125 187.089844 179.105469 187.117188 C 179.117188 187.121094 179.132812 187.128906 179.164062 187.140625 C 179.128906 187.15625 179.105469 187.167969 179.082031 187.175781 Z M 181.4375 189.066406 C 181.460938 189.074219 181.492188 189.078125 181.523438 189.085938 C 181.519531 189.054688 181.515625 189.023438 181.507812 188.980469 C 181.660156 189.078125 181.730469 189.175781 181.746094 189.3125 C 181.5625 189.386719 181.359375 189.230469 181.4375 189.066406 Z M 181.4375 189.066406 " fill-opacity="1" fill-rule="nonzero"/><g clip-path="url(#e17f199bb8)"><path fill="#d8d8d8" d="M 184.726562 180.15625 C 184.699219 180.199219 184.671875 180.242188 184.644531 180.289062 C 184.609375 180.257812 184.582031 180.238281 184.558594 180.21875 C 184.613281 180.1875 184.667969 180.15625 184.722656 180.128906 C 184.71875 180.089844 184.714844 180.054688 184.710938 180.019531 C 184.691406 179.882812 184.65625 179.753906 184.609375 179.632812 C 184.585938 179.625 184.5625 179.628906 184.53125 179.648438 C 184.519531 179.652344 184.472656 179.628906 184.46875 179.609375 C 184.460938 179.582031 184.476562 179.550781 184.480469 179.519531 C 184.492188 179.519531 184.5 179.523438 184.507812 179.527344 C 184.503906 179.546875 184.496094 179.566406 184.492188 179.589844 C 184.535156 179.601562 184.574219 179.609375 184.601562 179.617188 C 184.476562 179.304688 184.269531 179.039062 184.011719 178.84375 C 183.964844 178.84375 183.921875 178.84375 183.878906 178.84375 C 183.832031 178.828125 183.761719 178.792969 183.847656 178.730469 C 183.320312 178.410156 182.640625 178.34375 182.050781 178.660156 C 181.507812 178.953125 181.070312 179.453125 180.625 179.824219 C 181.429688 180.074219 182.234375 180.203125 182.914062 180.570312 C 183.589844 180.9375 184.136719 181.542969 184.726562 182.039062 C 184.726562 181.445312 184.796875 180.792969 184.726562 180.15625 Z M 183.925781 180.753906 C 183.792969 180.785156 183.714844 180.65625 183.597656 180.632812 C 183.601562 180.617188 183.605469 180.605469 183.609375 180.59375 C 183.722656 180.632812 183.832031 180.675781 183.941406 180.714844 C 183.9375 180.730469 183.929688 180.742188 183.925781 180.753906 Z M 184.097656 181.21875 C 184.078125 181.214844 184.058594 181.214844 184.042969 181.203125 C 184.019531 181.191406 184 181.171875 183.972656 181.148438 C 184.007812 181.09375 184.070312 181.089844 184.101562 181.144531 C 184.113281 181.164062 184.101562 181.195312 184.097656 181.21875 Z M 184.265625 180.839844 C 184.265625 180.828125 184.265625 180.816406 184.265625 180.808594 C 184.328125 180.769531 184.386719 180.738281 184.449219 180.851562 C 184.375 180.847656 184.320312 180.84375 184.265625 180.839844 Z M 184.269531 180.617188 C 184.226562 180.636719 184.199219 180.648438 184.152344 180.671875 C 184.210938 180.527344 184.265625 180.398438 184.320312 180.265625 C 184.3125 180.261719 184.289062 180.253906 184.257812 180.242188 C 184.273438 180.203125 184.289062 180.171875 184.304688 180.132812 C 184.332031 180.1875 184.355469 180.234375 184.386719 180.289062 C 184.375 180.300781 184.363281 180.324219 184.335938 180.367188 C 184.390625 180.347656 184.429688 180.335938 184.492188 180.316406 C 184.414062 180.433594 184.191406 180.410156 184.269531 180.617188 Z M 184.269531 180.617188 " fill-opacity="1" fill-rule="nonzero"/></g><g clip-path="url(#8962236959)"><path fill="#d8d8d8" d="M 183.972656 188.953125 C 183.949219 188.917969 183.917969 188.855469 183.929688 188.84375 C 183.957031 188.8125 183.996094 188.78125 184.03125 188.769531 C 183.289062 186.125 180.882812 184.199219 177.996094 184.199219 C 174.539062 184.203125 171.757812 187.003906 171.738281 190.496094 C 171.734375 191.179688 171.84375 191.835938 172.046875 192.457031 C 172.0625 192.476562 172.082031 192.511719 172.109375 192.554688 C 172.097656 192.550781 172.085938 192.546875 172.074219 192.542969 C 172.089844 192.589844 172.105469 192.640625 172.125 192.6875 C 172.191406 192.707031 172.253906 192.738281 172.292969 192.808594 C 172.304688 192.832031 172.304688 192.867188 172.3125 192.898438 C 172.296875 192.902344 172.285156 192.902344 172.273438 192.90625 C 172.246094 192.878906 172.214844 192.859375 172.183594 192.839844 C 173.101562 195.136719 175.34375 196.769531 177.957031 196.78125 C 181.464844 196.792969 184.261719 194.015625 184.269531 190.511719 C 184.273438 189.988281 184.207031 189.480469 184.089844 188.992188 C 184.050781 189.015625 184.007812 189.011719 183.972656 188.953125 Z M 172.726562 189.828125 C 172.730469 189.847656 172.734375 189.867188 172.738281 189.886719 C 172.726562 189.890625 172.714844 189.894531 172.703125 189.894531 C 172.691406 189.921875 172.683594 189.945312 172.671875 189.976562 C 172.652344 189.960938 172.628906 189.9375 172.605469 189.917969 C 172.59375 189.921875 172.585938 189.921875 172.578125 189.925781 C 172.570312 189.910156 172.5625 189.894531 172.554688 189.878906 C 172.570312 189.890625 172.585938 189.90625 172.605469 189.917969 C 172.636719 189.910156 172.667969 189.902344 172.703125 189.894531 C 172.710938 189.871094 172.71875 189.851562 172.726562 189.828125 Z M 171.90625 189.589844 C 171.929688 189.570312 171.945312 189.480469 171.996094 189.585938 C 172 189.589844 172.007812 189.597656 172.007812 189.59375 C 172.101562 189.519531 172.125 189.617188 172.167969 189.671875 C 172.191406 189.652344 172.210938 189.636719 172.253906 189.601562 C 172.242188 189.660156 172.234375 189.691406 172.226562 189.71875 C 172.167969 189.730469 172.097656 189.648438 172.054688 189.757812 C 172.082031 189.78125 172.109375 189.808594 172.136719 189.832031 C 172.136719 189.84375 172.132812 189.851562 172.128906 189.863281 C 172.078125 189.84375 172.023438 189.828125 171.976562 189.800781 C 171.960938 189.789062 171.964844 189.738281 171.957031 189.707031 C 171.941406 189.671875 171.925781 189.636719 171.90625 189.589844 Z M 172.007812 190.882812 C 172.03125 190.917969 172.050781 190.953125 172.078125 190.988281 C 172.058594 191.003906 172.039062 191.019531 172.015625 191.035156 C 171.996094 190.996094 171.976562 190.960938 171.957031 190.917969 C 171.972656 190.910156 171.988281 190.894531 172.007812 190.882812 Z M 171.984375 191.265625 C 172.007812 191.273438 172.023438 191.277344 172.054688 191.28125 C 172.042969 191.238281 172.035156 191.199219 172.023438 191.160156 C 172.136719 191.234375 172.238281 191.308594 172.34375 191.382812 C 172.339844 191.390625 172.332031 191.402344 172.324219 191.414062 C 172.253906 191.371094 172.183594 191.328125 172.113281 191.28125 C 172.070312 191.316406 172.023438 191.386719 171.984375 191.265625 Z M 172.386719 192.804688 C 172.339844 192.746094 172.296875 192.695312 172.25 192.640625 C 172.265625 192.628906 172.289062 192.605469 172.316406 192.589844 C 172.324219 192.582031 172.339844 192.582031 172.351562 192.585938 C 172.382812 192.601562 172.402344 192.785156 172.386719 192.804688 Z M 172.386719 191.320312 C 172.3125 191.261719 172.238281 191.203125 172.164062 191.144531 C 172.167969 191.136719 172.171875 191.132812 172.175781 191.125 C 172.253906 191.179688 172.332031 191.230469 172.40625 191.285156 C 172.398438 191.296875 172.394531 191.308594 172.386719 191.320312 Z M 172.394531 190.335938 C 172.375 190.328125 172.351562 190.324219 172.316406 190.316406 C 172.355469 190.554688 172.179688 190.320312 172.144531 190.40625 C 172.183594 190.34375 172.226562 190.28125 172.269531 190.214844 C 172.238281 190.191406 172.21875 190.175781 172.195312 190.15625 C 172.207031 190.144531 172.214844 190.132812 172.21875 190.132812 C 172.324219 190.148438 172.351562 190.25 172.414062 190.3125 C 172.40625 190.320312 172.402344 190.328125 172.394531 190.335938 Z M 172.714844 193.328125 C 172.6875 193.308594 172.660156 193.289062 172.632812 193.269531 C 172.640625 193.222656 172.652344 193.171875 172.660156 193.121094 C 172.652344 193.199219 172.78125 193.242188 172.714844 193.328125 Z M 172.417969 191.542969 C 172.527344 191.523438 172.636719 191.503906 172.75 191.488281 C 172.753906 191.5 172.761719 191.511719 172.769531 191.523438 C 172.710938 191.578125 172.6875 191.621094 172.761719 191.675781 C 172.789062 191.695312 172.789062 191.757812 172.800781 191.800781 C 172.648438 191.824219 172.492188 191.738281 172.417969 191.542969 Z M 172.75 190.320312 C 172.765625 190.300781 172.78125 190.242188 172.808594 190.238281 C 172.902344 190.226562 172.925781 190.300781 172.933594 190.386719 C 172.875 190.367188 172.824219 190.347656 172.75 190.320312 Z M 172.976562 193.414062 C 172.96875 193.386719 172.953125 193.34375 172.9375 193.300781 C 173.042969 193.230469 173.085938 193.277344 173.117188 193.378906 C 173.074219 193.386719 173.035156 193.398438 172.976562 193.414062 Z M 173.671875 193.515625 C 173.621094 193.480469 173.574219 193.449219 173.523438 193.414062 C 173.527344 193.40625 173.53125 193.402344 173.53125 193.398438 C 173.582031 193.402344 173.628906 193.410156 173.683594 193.421875 C 173.6875 193.441406 173.691406 193.46875 173.695312 193.5 C 173.6875 193.503906 173.679688 193.511719 173.671875 193.515625 Z M 173.304688 193.316406 C 173.371094 193.269531 173.410156 193.238281 173.449219 193.210938 C 173.484375 193.269531 173.507812 193.308594 173.535156 193.359375 C 173.464844 193.347656 173.398438 193.335938 173.304688 193.316406 Z M 174.050781 194.257812 C 173.976562 194.203125 173.898438 194.152344 173.820312 194.097656 C 173.871094 194.023438 173.933594 194.019531 174.007812 194.0625 C 174.089844 194.109375 174.082031 194.183594 174.050781 194.257812 Z M 176.953125 195.90625 C 176.941406 195.90625 176.929688 195.90625 176.921875 195.90625 C 176.917969 195.867188 176.917969 195.832031 176.914062 195.789062 C 176.890625 195.769531 176.863281 195.746094 176.835938 195.722656 C 176.851562 195.703125 176.871094 195.683594 176.878906 195.679688 C 176.921875 195.722656 176.953125 195.753906 176.996094 195.792969 C 176.984375 195.828125 176.96875 195.867188 176.953125 195.90625 Z M 182.851562 193.46875 C 182.835938 193.445312 182.816406 193.417969 182.796875 193.394531 C 182.894531 193.332031 182.917969 193.339844 182.941406 193.441406 C 182.90625 193.453125 182.878906 193.460938 182.851562 193.46875 Z M 178.011719 195.519531 C 177.082031 195.527344 176.210938 195.273438 175.460938 194.832031 C 175.460938 194.855469 175.464844 194.878906 175.464844 194.902344 C 175.429688 194.894531 175.386719 194.886719 175.34375 194.878906 C 175.335938 194.875 175.320312 194.871094 175.320312 194.867188 C 175.300781 194.703125 175.140625 194.792969 175.066406 194.714844 C 175.15625 194.65625 175.332031 194.71875 175.390625 194.835938 C 175.398438 194.824219 175.402344 194.8125 175.40625 194.800781 C 174.292969 194.125 173.460938 193.027344 173.132812 191.738281 C 173.128906 191.726562 173.121094 191.714844 173.117188 191.703125 C 173.121094 191.703125 173.121094 191.699219 173.125 191.699219 C 173.121094 191.683594 173.117188 191.664062 173.113281 191.648438 C 173.042969 191.597656 172.980469 191.554688 172.902344 191.503906 C 172.933594 191.492188 172.960938 191.476562 172.980469 191.484375 C 173.015625 191.5 173.058594 191.511719 173.085938 191.542969 C 173.058594 191.410156 173.039062 191.277344 173.023438 191.144531 C 173.015625 191.148438 173.011719 191.152344 173.003906 191.160156 C 173 191.167969 172.988281 191.207031 172.964844 191.21875 C 172.902344 191.246094 172.871094 191.203125 172.835938 191.125 C 172.878906 191.152344 172.894531 191.164062 172.921875 191.179688 C 172.921875 191.164062 172.925781 191.152344 172.921875 191.148438 C 172.890625 191.09375 172.878906 191.027344 172.820312 190.980469 C 172.734375 190.910156 172.789062 190.765625 172.886719 190.714844 C 172.925781 190.695312 172.957031 190.6875 172.984375 190.6875 C 172.984375 190.628906 172.980469 190.570312 172.980469 190.507812 C 172.980469 190.414062 172.984375 190.324219 172.992188 190.234375 C 172.96875 190.242188 172.949219 190.25 172.921875 190.257812 C 172.925781 190.21875 172.925781 190.179688 172.933594 190.117188 C 172.875 190.144531 172.84375 190.15625 172.828125 190.164062 C 172.808594 190.109375 172.785156 190.039062 172.757812 189.957031 C 172.867188 189.96875 172.933594 190.046875 173 190.128906 C 173.203125 187.554688 175.351562 185.539062 177.992188 185.527344 C 178.429688 185.527344 178.851562 185.582031 179.257812 185.691406 C 179.28125 185.664062 179.304688 185.632812 179.328125 185.605469 C 179.367188 185.648438 179.40625 185.695312 179.445312 185.742188 C 180.285156 186 181.03125 186.480469 181.621094 187.113281 C 181.640625 187.113281 181.660156 187.117188 181.679688 187.117188 C 181.671875 187.128906 181.664062 187.140625 181.660156 187.148438 C 181.675781 187.171875 181.695312 187.191406 181.714844 187.214844 C 181.71875 187.214844 181.722656 187.21875 181.730469 187.222656 C 181.730469 187.222656 181.730469 187.226562 181.726562 187.230469 C 181.828125 187.347656 181.925781 187.46875 182.019531 187.59375 C 182.011719 187.574219 182.007812 187.554688 182 187.542969 C 182.007812 187.53125 182.019531 187.523438 182.027344 187.511719 C 182.058594 187.542969 182.089844 187.574219 182.125 187.613281 C 182.085938 187.636719 182.0625 187.640625 182.046875 187.636719 C 182.429688 188.175781 182.710938 188.789062 182.855469 189.453125 C 182.875 189.457031 182.894531 189.460938 182.914062 189.46875 C 182.921875 189.523438 182.957031 189.582031 182.941406 189.625 C 182.933594 189.644531 182.917969 189.660156 182.898438 189.675781 C 182.945312 189.941406 182.972656 190.210938 182.972656 190.488281 C 182.992188 193.234375 180.753906 195.503906 178.011719 195.519531 Z M 178.011719 195.519531 " fill-opacity="1" fill-rule="nonzero"/></g><path fill="#d8d8d8" d="M 185.191406 188.597656 C 184.835938 188.707031 184.613281 189.269531 184.804688 189.582031 C 184.835938 189.632812 184.917969 189.675781 184.976562 189.675781 C 185.535156 189.683594 186.097656 189.683594 186.652344 189.683594 C 186.445312 189.226562 186.257812 188.820312 186.042969 188.351562 C 185.785156 188.429688 185.488281 188.511719 185.191406 188.597656 Z M 185.191406 188.597656 " fill-opacity="1" fill-rule="nonzero"/><path fill="#d8d8d8" d="M 183.417969 181.445312 C 183.417969 181.457031 183.417969 181.464844 183.414062 181.476562 C 183.375 181.433594 183.347656 181.402344 183.316406 181.371094 C 183.320312 181.367188 183.320312 181.367188 183.324219 181.367188 C 183.097656 181.1875 182.851562 181.03125 182.578125 180.898438 C 181.125 180.183594 179.5 180.398438 178.398438 181.453125 C 177.585938 182.230469 176.769531 183.011719 175.957031 183.796875 C 175.886719 183.863281 175.828125 183.949219 175.742188 184.050781 C 179.613281 183.105469 182.433594 184.386719 184.300781 187.875 C 184.335938 187.820312 184.347656 187.808594 184.347656 187.796875 C 184.457031 186.699219 184.570312 185.605469 184.675781 184.507812 C 184.792969 183.3125 184.328125 182.207031 183.417969 181.445312 Z M 180.179688 183.636719 C 180.109375 183.652344 180.039062 183.679688 179.96875 183.671875 C 179.945312 183.671875 179.929688 183.585938 179.910156 183.539062 C 179.921875 183.523438 179.933594 183.511719 179.941406 183.496094 C 180.023438 183.527344 180.101562 183.5625 180.179688 183.59375 C 180.179688 183.605469 180.179688 183.621094 180.179688 183.636719 Z M 180.65625 183.816406 C 180.582031 183.808594 180.507812 183.8125 180.488281 183.722656 C 180.488281 183.710938 180.53125 183.675781 180.539062 183.679688 C 180.59375 183.707031 180.6875 183.695312 180.65625 183.816406 Z M 180.636719 182.203125 C 180.605469 182.117188 180.617188 182.03125 180.6875 181.957031 C 180.78125 181.859375 180.835938 182.015625 180.914062 181.992188 C 180.921875 182.207031 180.800781 182.234375 180.636719 182.203125 Z M 180.828125 184.066406 C 180.882812 183.980469 180.921875 183.914062 180.957031 183.84375 C 181 183.925781 181.023438 183.980469 181.0625 184.0625 C 180.988281 184.0625 180.921875 184.066406 180.828125 184.066406 Z M 180.960938 183.839844 C 180.957031 183.796875 180.953125 183.769531 180.949219 183.746094 C 180.917969 183.75 180.886719 183.761719 180.882812 183.753906 C 180.851562 183.699219 180.828125 183.644531 180.800781 183.585938 C 180.816406 183.578125 180.832031 183.566406 180.847656 183.558594 C 180.914062 183.628906 180.984375 183.703125 181.0625 183.785156 C 181.019531 183.808594 180.996094 183.824219 180.960938 183.839844 Z M 181.558594 181.121094 C 181.53125 181.171875 181.46875 181.210938 181.421875 181.15625 C 181.394531 181.125 181.398438 181.050781 181.414062 181.007812 C 181.425781 180.980469 181.488281 180.976562 181.527344 180.960938 C 181.539062 180.972656 181.550781 180.980469 181.5625 180.988281 C 181.5625 181.035156 181.578125 181.085938 181.558594 181.121094 Z M 181.917969 182.722656 C 181.875 182.6875 181.847656 182.667969 181.796875 182.628906 C 181.84375 182.601562 181.875 182.585938 181.921875 182.554688 C 181.921875 182.621094 181.917969 182.660156 181.917969 182.722656 Z M 182.773438 183.332031 C 182.769531 183.351562 182.722656 183.355469 182.691406 183.371094 C 182.644531 183.390625 182.597656 183.414062 182.542969 183.441406 C 182.472656 183.394531 182.464844 183.34375 182.503906 183.265625 C 182.519531 183.230469 182.515625 183.179688 182.511719 183.136719 C 182.507812 183.101562 182.492188 183.0625 182.5 183.019531 C 182.519531 183.046875 182.539062 183.074219 182.566406 183.109375 C 182.613281 183.101562 182.675781 183.09375 182.738281 183.082031 C 182.738281 183.085938 182.738281 183.09375 182.738281 183.097656 C 182.726562 183.101562 182.710938 183.105469 182.679688 183.113281 C 182.703125 183.15625 182.730469 183.191406 182.746094 183.230469 C 182.761719 183.265625 182.78125 183.300781 182.773438 183.332031 Z M 182.90625 183.019531 C 182.835938 182.921875 182.683594 182.972656 182.625 182.851562 C 182.621094 182.84375 182.582031 182.855469 182.554688 182.855469 C 182.570312 182.828125 182.585938 182.804688 182.609375 182.757812 C 182.722656 182.835938 182.835938 182.914062 182.972656 183.011719 C 182.925781 183.015625 182.910156 183.023438 182.90625 183.019531 Z M 183.5 181.832031 C 183.429688 181.882812 183.359375 181.933594 183.285156 181.984375 C 183.28125 181.976562 183.277344 181.96875 183.273438 181.960938 C 183.316406 181.894531 183.359375 181.828125 183.410156 181.753906 C 183.484375 181.789062 183.550781 181.820312 183.621094 181.855469 C 183.578125 181.894531 183.578125 181.894531 183.5 181.832031 Z M 183.890625 186.140625 C 183.871094 186.101562 183.859375 186.074219 183.828125 186.011719 C 183.890625 186.027344 183.957031 186.023438 183.96875 186.050781 C 184.003906 186.121094 183.945312 186.132812 183.890625 186.140625 Z M 184.167969 185.675781 C 184.195312 185.664062 184.21875 185.636719 184.242188 185.617188 C 184.371094 185.726562 184.328125 185.835938 184.246094 185.941406 C 184.078125 185.824219 184.078125 185.824219 184.074219 185.6875 C 184.105469 185.683594 184.140625 185.6875 184.167969 185.675781 Z M 183.769531 184.777344 C 183.789062 184.773438 183.8125 184.769531 183.847656 184.765625 C 183.820312 184.730469 183.804688 184.707031 183.769531 184.664062 C 183.847656 184.652344 183.910156 184.640625 183.972656 184.640625 C 183.984375 184.636719 184.007812 184.664062 184.015625 184.683594 C 184.019531 184.695312 184.007812 184.730469 184 184.730469 C 183.921875 184.746094 183.9375 184.78125 183.96875 184.828125 C 183.984375 184.851562 183.988281 184.878906 183.996094 184.902344 C 183.941406 184.921875 183.898438 184.9375 183.855469 184.953125 C 183.808594 184.910156 183.714844 184.886719 183.769531 184.777344 Z M 183.769531 184.777344 " fill-opacity="1" fill-rule="nonzero"/><path fill="#d8d8d8" d="M 191.027344 189.507812 C 191.007812 189.230469 191.027344 188.820312 190.859375 188.707031 C 190.550781 188.492188 190.121094 188.453125 189.785156 188.351562 C 189.570312 188.824219 189.386719 189.230469 189.179688 189.6875 C 189.683594 189.6875 190.179688 189.699219 190.671875 189.679688 C 190.796875 189.671875 191.027344 189.5625 191.027344 189.507812 Z M 190.230469 188.671875 C 190.246094 188.617188 190.257812 188.566406 190.273438 188.511719 C 190.308594 188.542969 190.339844 188.570312 190.378906 188.597656 C 190.328125 188.621094 190.289062 188.640625 190.230469 188.671875 Z M 190.230469 188.671875 " fill-opacity="1" fill-rule="nonzero"/><path fill="#d8d8d8" d="M 189.117188 187.929688 C 189.117188 187.953125 189.113281 187.976562 189.113281 188 C 189.066406 187.980469 189.035156 187.964844 188.976562 187.941406 C 189.007812 187.910156 189.03125 187.886719 189.078125 187.84375 C 189.019531 187.824219 188.988281 187.8125 188.96875 187.804688 C 188.984375 187.769531 189 187.734375 189.015625 187.691406 C 188.800781 187.292969 188.382812 187.03125 187.898438 187.042969 C 187.507812 187.046875 187.167969 187.222656 186.941406 187.496094 C 186.964844 187.503906 186.992188 187.511719 187.015625 187.515625 C 187.015625 187.53125 187.011719 187.546875 187.011719 187.5625 C 186.980469 187.566406 186.945312 187.574219 186.914062 187.5625 C 186.910156 187.5625 186.910156 187.550781 186.90625 187.535156 C 186.738281 187.757812 186.636719 188.039062 186.640625 188.34375 C 186.640625 188.484375 186.667969 188.617188 186.710938 188.742188 C 186.910156 188.859375 186.917969 188.867188 186.878906 189.054688 C 186.820312 188.949219 186.769531 188.855469 186.714844 188.75 C 186.890625 189.234375 187.355469 189.585938 187.910156 189.589844 C 188.046875 189.59375 188.179688 189.574219 188.300781 189.535156 C 188.277344 189.421875 188.261719 189.316406 188.210938 189.214844 C 188.199219 189.21875 188.183594 189.226562 188.144531 189.234375 C 188.160156 189.195312 188.167969 189.167969 188.175781 189.140625 C 188.207031 189.15625 188.253906 189.164062 188.261719 189.1875 C 188.296875 189.285156 188.328125 189.390625 188.351562 189.496094 C 188.351562 189.5 188.355469 189.507812 188.355469 189.515625 C 188.839844 189.339844 189.175781 188.875 189.175781 188.3125 C 189.175781 188.175781 189.15625 188.046875 189.117188 187.929688 Z M 186.742188 188.089844 C 186.726562 188.082031 186.710938 188.074219 186.695312 188.066406 C 186.710938 188.019531 186.726562 187.972656 186.742188 187.925781 C 186.765625 187.945312 186.8125 187.972656 186.808594 187.980469 C 186.792969 188.019531 186.765625 188.054688 186.742188 188.089844 Z M 187.863281 188.054688 C 187.886719 188.148438 187.90625 188.238281 187.929688 188.332031 C 187.914062 188.335938 187.902344 188.339844 187.890625 188.34375 C 187.875 188.25 187.859375 188.152344 187.84375 188.058594 C 187.847656 188.058594 187.855469 188.054688 187.863281 188.054688 Z M 187.804688 187.875 C 187.816406 187.832031 187.824219 187.792969 187.835938 187.746094 C 187.855469 187.75 187.875 187.753906 187.898438 187.753906 C 187.890625 187.800781 187.886719 187.839844 187.878906 187.882812 C 187.855469 187.878906 187.828125 187.878906 187.804688 187.875 Z M 187.847656 187.324219 C 187.878906 187.355469 187.894531 187.402344 187.917969 187.441406 C 187.878906 187.449219 187.832031 187.46875 187.800781 187.457031 C 187.773438 187.445312 187.765625 187.394531 187.738281 187.332031 C 187.796875 187.328125 187.839844 187.3125 187.847656 187.324219 Z M 187.648438 187.109375 C 187.6875 187.140625 187.722656 187.171875 187.761719 187.207031 C 187.722656 187.234375 187.695312 187.253906 187.683594 187.261719 C 187.683594 187.300781 187.679688 187.328125 187.679688 187.355469 C 187.59375 187.246094 187.59375 187.246094 187.648438 187.109375 Z M 187.023438 188.535156 C 187.015625 188.535156 187.003906 188.535156 186.996094 188.535156 C 186.984375 188.496094 186.949219 188.441406 186.964844 188.417969 C 186.984375 188.378906 187.039062 188.367188 187.082031 188.339844 C 187.058594 188.417969 187.042969 188.476562 187.023438 188.535156 Z M 187.394531 188.335938 C 187.289062 188.40625 187.195312 188.257812 187.089844 188.316406 C 187.097656 188.171875 187.136719 188.046875 187.28125 188.007812 C 187.414062 187.96875 187.515625 188.050781 187.636719 188.136719 C 187.550781 188.210938 187.476562 188.277344 187.394531 188.335938 Z M 187.628906 188.023438 C 187.644531 188.042969 187.652344 188.058594 187.671875 188.082031 C 187.691406 188.042969 187.710938 188.007812 187.730469 187.972656 C 187.761719 188.105469 187.789062 188.230469 187.820312 188.359375 C 187.808594 188.363281 187.796875 188.367188 187.785156 188.367188 C 187.761719 188.289062 187.738281 188.207031 187.714844 188.125 C 187.660156 188.117188 187.578125 188.136719 187.628906 188.023438 Z M 188.039062 188.761719 C 187.960938 188.761719 187.914062 188.777344 187.933594 188.867188 C 187.9375 188.902344 187.898438 188.949219 187.878906 188.988281 C 187.753906 188.902344 187.695312 188.722656 187.765625 188.527344 C 187.859375 188.59375 187.953125 188.65625 188.046875 188.722656 C 188.042969 188.734375 188.039062 188.75 188.039062 188.761719 Z M 188.214844 189.121094 C 188.191406 189.023438 188.175781 188.941406 188.152344 188.84375 C 188.179688 188.859375 188.210938 188.863281 188.21875 188.882812 C 188.25 188.949219 188.296875 189.023438 188.214844 189.121094 Z M 188.308594 187.503906 C 188.378906 187.484375 188.453125 187.46875 188.523438 187.449219 C 188.519531 187.410156 188.515625 187.382812 188.511719 187.355469 C 188.527344 187.355469 188.539062 187.351562 188.542969 187.355469 C 188.609375 187.441406 188.566406 187.53125 188.566406 187.621094 C 188.558594 187.625 188.550781 187.625 188.539062 187.628906 C 188.527344 187.605469 188.515625 187.585938 188.496094 187.558594 C 188.367188 187.761719 188.390625 187.464844 188.308594 187.503906 Z M 188.472656 188.949219 C 188.484375 188.894531 188.492188 188.847656 188.503906 188.800781 C 188.523438 188.8125 188.554688 188.820312 188.5625 188.839844 C 188.597656 188.902344 188.578125 188.945312 188.472656 188.949219 Z M 188.449219 188.660156 C 188.441406 188.664062 188.40625 188.683594 188.382812 188.675781 C 188.320312 188.652344 188.324219 188.597656 188.347656 188.515625 C 188.359375 188.566406 188.367188 188.585938 188.375 188.617188 C 188.386719 188.605469 188.394531 188.601562 188.398438 188.59375 C 188.410156 188.53125 188.441406 188.476562 188.429688 188.398438 C 188.414062 188.289062 188.546875 188.21875 188.652344 188.25 C 188.761719 188.28125 188.792969 188.347656 188.777344 188.453125 C 188.773438 188.472656 188.785156 188.492188 188.789062 188.511719 C 188.816406 188.617188 188.777344 188.675781 188.671875 188.675781 C 188.605469 188.675781 188.539062 188.667969 188.449219 188.660156 Z M 188.707031 189.230469 C 188.664062 189.191406 188.664062 189.191406 188.714844 189.011719 C 188.777344 189.042969 188.835938 189.074219 188.894531 189.105469 C 188.828125 189.152344 188.769531 189.191406 188.707031 189.230469 Z M 188.902344 188.042969 C 188.875 187.988281 188.847656 187.9375 188.8125 187.867188 C 188.832031 187.859375 188.886719 187.832031 188.90625 187.847656 C 188.984375 187.902344 188.953125 187.972656 188.902344 188.042969 Z M 188.902344 188.042969 " fill-opacity="1" fill-rule="nonzero"/><path fill="#d8d8d8" d="M 200.058594 184.007812 C 199.050781 183.019531 198.089844 181.992188 196.996094 181.136719 C 196.691406 180.902344 196.378906 180.730469 196.058594 180.617188 C 196.007812 180.625 195.957031 180.632812 195.90625 180.644531 C 195.890625 180.644531 195.871094 180.640625 195.859375 180.632812 C 195.714844 180.523438 195.550781 180.589844 195.398438 180.582031 C 195.351562 180.578125 195.304688 180.578125 195.257812 180.578125 C 195.253906 180.5625 195.253906 180.550781 195.253906 180.539062 C 195.410156 180.53125 195.566406 180.527344 195.71875 180.519531 C 194.882812 180.328125 194.003906 180.503906 193.15625 180.953125 C 192.625 181.234375 192.175781 181.585938 191.835938 182.003906 C 191.859375 182.046875 191.882812 182.085938 191.90625 182.125 C 191.855469 182.136719 191.773438 182.136719 191.714844 182.175781 C 191.710938 182.179688 191.703125 182.183594 191.699219 182.183594 C 191.625 182.289062 191.558594 182.398438 191.496094 182.511719 C 191.527344 182.527344 191.554688 182.542969 191.585938 182.554688 C 191.574219 182.574219 191.5625 182.589844 191.550781 182.609375 C 191.527344 182.589844 191.5 182.574219 191.476562 182.554688 C 191.460938 182.582031 191.449219 182.605469 191.4375 182.632812 C 191.445312 182.632812 191.453125 182.636719 191.460938 182.640625 C 191.457031 182.679688 191.445312 182.695312 191.410156 182.691406 C 191.222656 183.109375 191.125 183.574219 191.136719 184.101562 C 191.164062 185.351562 191.355469 186.601562 191.484375 187.960938 C 191.691406 187.570312 191.910156 187.207031 192.140625 186.871094 C 192.125 186.882812 192.085938 186.886719 192.078125 186.875 C 192.054688 186.84375 192.042969 186.804688 192.019531 186.746094 C 192.0625 186.761719 192.078125 186.761719 192.089844 186.769531 C 192.125 186.789062 192.117188 186.78125 192.15625 186.75 C 192.179688 186.734375 192.210938 186.730469 192.242188 186.722656 C 194.113281 184.097656 196.699219 183.214844 200.058594 184.007812 Z M 193.496094 181.824219 C 193.546875 181.835938 193.648438 181.753906 193.640625 181.90625 C 193.578125 181.90625 193.511719 181.910156 193.449219 181.910156 C 193.441406 181.902344 193.4375 181.890625 193.433594 181.882812 C 193.453125 181.863281 193.480469 181.820312 193.496094 181.824219 Z M 191.996094 183.511719 C 192.085938 183.492188 192.152344 183.46875 192.21875 183.460938 C 192.234375 183.460938 192.257812 183.511719 192.28125 183.542969 C 192.152344 183.628906 192.152344 183.628906 191.996094 183.511719 Z M 192.480469 183.972656 C 192.46875 183.976562 192.457031 183.976562 192.441406 183.980469 C 192.398438 183.910156 192.355469 183.84375 192.292969 183.742188 C 192.363281 183.777344 192.429688 183.792969 192.46875 183.832031 C 192.492188 183.859375 192.476562 183.925781 192.480469 183.972656 Z M 192.910156 184.707031 C 192.875 184.742188 192.832031 184.800781 192.75 184.71875 C 192.800781 184.667969 192.847656 184.621094 192.894531 184.574219 C 192.90625 184.582031 192.917969 184.589844 192.933594 184.597656 C 192.925781 184.632812 192.929688 184.683594 192.910156 184.707031 Z M 192.910156 184.707031 " fill-opacity="1" fill-rule="nonzero"/><path fill="#d8d8d8" d="M 186.460938 187.324219 C 186.710938 186.957031 187.078125 186.71875 187.472656 186.613281 C 187.472656 186.605469 187.472656 186.601562 187.472656 186.59375 C 187.480469 186.597656 187.488281 186.601562 187.496094 186.605469 C 187.515625 186.601562 187.539062 186.597656 187.558594 186.59375 C 187.5625 186.578125 187.5625 186.566406 187.566406 186.550781 C 187.582031 186.5625 187.59375 186.570312 187.605469 186.582031 C 187.929688 186.523438 188.269531 186.550781 188.570312 186.675781 C 188.566406 186.664062 188.5625 186.652344 188.558594 186.640625 C 188.644531 186.59375 188.734375 186.546875 188.820312 186.5 C 188.835938 186.5625 188.789062 186.707031 188.746094 186.75 C 188.746094 186.753906 188.746094 186.753906 188.746094 186.757812 C 188.972656 186.882812 189.175781 187.070312 189.324219 187.316406 C 189.730469 187.992188 190.359375 187.949219 190.988281 188.195312 C 190.988281 188.035156 190.992188 187.980469 190.988281 187.925781 C 190.863281 186.1875 190.734375 184.449219 190.621094 182.710938 C 190.621094 182.6875 190.617188 182.664062 190.613281 182.644531 C 190.585938 182.625 190.554688 182.605469 190.53125 182.609375 C 190.421875 182.621094 190.398438 182.523438 190.351562 182.503906 C 190.359375 182.453125 190.371094 182.421875 190.375 182.386719 C 190.375 182.378906 190.382812 182.363281 190.394531 182.34375 C 190.359375 182.328125 190.320312 182.3125 190.277344 182.296875 C 190.234375 182.28125 190.191406 182.265625 190.144531 182.253906 C 190.117188 182.28125 190.09375 182.304688 190.070312 182.328125 C 190.066406 182.328125 190.0625 182.324219 190.058594 182.320312 C 190.070312 182.292969 190.085938 182.265625 190.097656 182.238281 C 190.011719 182.210938 189.929688 182.183594 189.84375 182.152344 C 189.839844 182.164062 189.84375 182.179688 189.863281 182.207031 C 189.875 182.222656 189.859375 182.261719 189.859375 182.289062 C 189.84375 182.289062 189.828125 182.285156 189.816406 182.285156 C 189.816406 182.257812 189.824219 182.230469 189.824219 182.207031 C 189.820312 182.1875 189.820312 182.167969 189.816406 182.144531 C 189.726562 182.117188 189.632812 182.085938 189.542969 182.054688 C 189.542969 182.074219 189.539062 182.09375 189.535156 182.109375 C 189.527344 182.113281 189.519531 182.117188 189.511719 182.121094 C 189.507812 182.09375 189.503906 182.066406 189.503906 182.039062 C 189.148438 181.914062 188.808594 181.757812 188.503906 181.5 C 188.492188 181.492188 188.480469 181.484375 188.46875 181.476562 C 188.441406 181.519531 188.414062 181.5625 188.382812 181.605469 C 188.242188 181.59375 188.1875 181.6875 188.277344 181.925781 C 188.230469 181.890625 188.1875 181.882812 188.210938 181.804688 C 188.242188 181.703125 188.144531 181.726562 188.078125 181.707031 C 188.183594 181.546875 188.007812 181.539062 187.945312 181.457031 C 187.976562 181.441406 188 181.433594 188.050781 181.410156 C 188 181.382812 187.96875 181.367188 187.925781 181.34375 C 187.933594 181.328125 187.945312 181.308594 187.949219 181.292969 C 187.730469 181.285156 187.507812 181.355469 187.332031 181.496094 C 186.792969 181.945312 186.148438 182.097656 185.515625 182.304688 C 185.257812 182.390625 185.210938 182.539062 185.195312 182.777344 C 185.121094 184.089844 185.03125 185.402344 184.941406 186.714844 C 184.910156 187.179688 184.859375 187.644531 184.820312 188.109375 C 185.183594 188.125 185.523438 188.046875 185.8125 187.898438 C 185.769531 187.890625 185.730469 187.882812 185.683594 187.875 C 185.664062 187.894531 185.636719 187.929688 185.605469 187.964844 C 185.589844 187.957031 185.578125 187.949219 185.5625 187.941406 C 185.578125 187.898438 185.585938 187.855469 185.613281 187.820312 C 185.648438 187.769531 185.691406 187.792969 185.730469 187.824219 C 185.757812 187.839844 185.789062 187.84375 185.820312 187.855469 C 185.820312 187.832031 185.820312 187.8125 185.824219 187.761719 C 185.855469 187.789062 185.886719 187.816406 185.914062 187.839844 C 186.132812 187.710938 186.320312 187.535156 186.460938 187.324219 Z M 189.535156 185.542969 C 189.582031 185.640625 189.625 185.726562 189.675781 185.835938 C 189.523438 185.722656 189.5 185.675781 189.535156 185.542969 Z M 189.8125 184.292969 C 189.816406 184.285156 189.824219 184.277344 189.828125 184.269531 C 189.878906 184.300781 189.929688 184.332031 189.988281 184.371094 C 189.925781 184.40625 189.882812 184.429688 189.808594 184.472656 C 189.835938 184.417969 189.851562 184.378906 189.871094 184.339844 C 189.859375 184.332031 189.835938 184.3125 189.8125 184.292969 Z M 190.636719 183.738281 C 190.671875 183.816406 190.605469 183.851562 190.519531 183.910156 C 190.542969 183.859375 190.550781 183.835938 190.558594 183.820312 C 190.523438 183.773438 190.496094 183.730469 190.464844 183.6875 C 190.46875 183.683594 190.472656 183.675781 190.476562 183.671875 C 190.523438 183.691406 190.570312 183.710938 190.636719 183.738281 Z M 190.375 182.53125 C 190.414062 182.636719 190.441406 182.710938 190.46875 182.789062 C 190.449219 182.792969 190.433594 182.796875 190.398438 182.800781 C 190.421875 182.765625 190.433594 182.742188 190.4375 182.734375 C 190.390625 182.6875 190.355469 182.65625 190.324219 182.613281 C 190.320312 182.609375 190.347656 182.574219 190.375 182.53125 Z M 190.371094 183.269531 C 190.410156 183.273438 190.441406 183.335938 190.484375 183.382812 C 190.484375 183.382812 190.445312 183.417969 190.371094 183.460938 C 190.375 183.425781 190.375 183.398438 190.378906 183.367188 C 190.328125 183.363281 190.28125 183.355469 190.234375 183.351562 C 190.230469 183.34375 190.230469 183.339844 190.226562 183.332031 C 190.273438 183.308594 190.328125 183.261719 190.371094 183.269531 Z M 190.074219 184.539062 C 190.105469 184.515625 190.144531 184.5 190.175781 184.476562 C 190.175781 184.488281 190.175781 184.5 190.175781 184.511719 C 190.214844 184.53125 190.253906 184.546875 190.289062 184.5625 C 190.210938 184.6875 190.128906 184.8125 190.046875 184.9375 C 190.015625 184.828125 189.984375 184.714844 189.960938 184.632812 C 190.011719 184.589844 190.042969 184.5625 190.074219 184.539062 Z M 189.832031 182.375 C 189.902344 182.414062 189.96875 182.453125 190.046875 182.5 C 189.941406 182.492188 189.859375 182.488281 189.773438 182.480469 C 189.785156 182.460938 189.804688 182.421875 189.832031 182.375 Z M 189.699219 183.644531 C 189.710938 183.636719 189.753906 183.636719 189.753906 183.640625 C 189.789062 183.757812 189.925781 183.722656 189.988281 183.8125 C 189.9375 183.863281 189.90625 183.871094 189.84375 183.820312 C 189.785156 183.769531 189.699219 183.761719 189.613281 183.730469 C 189.640625 183.703125 189.667969 183.671875 189.699219 183.644531 Z M 189.550781 183.117188 C 189.5625 183.109375 189.597656 183.15625 189.628906 183.183594 C 189.566406 183.199219 189.523438 183.210938 189.476562 183.222656 C 189.472656 183.214844 189.464844 183.207031 189.457031 183.199219 C 189.488281 183.167969 189.515625 183.132812 189.550781 183.117188 Z M 189.597656 184.820312 C 189.511719 184.867188 189.460938 184.816406 189.417969 184.746094 C 189.394531 184.710938 189.371094 184.679688 189.351562 184.652344 C 189.464844 184.621094 189.5625 184.679688 189.597656 184.820312 Z M 188.90625 182.003906 C 188.914062 181.992188 188.9375 181.984375 188.949219 181.988281 C 189.03125 182.023438 189.109375 182.058594 189.214844 182.101562 C 189.175781 182.113281 189.164062 182.113281 189.152344 182.117188 C 189.132812 182.132812 189.113281 182.152344 189.09375 182.167969 C 189.113281 182.179688 189.132812 182.195312 189.152344 182.207031 C 189.171875 182.214844 189.1875 182.226562 189.199219 182.234375 C 189.046875 182.234375 188.898438 182.234375 188.734375 182.234375 C 188.796875 182.152344 188.847656 182.074219 188.90625 182.003906 Z M 188.554688 182.667969 C 188.636719 182.65625 188.722656 182.660156 188.808594 182.660156 C 188.804688 182.675781 188.800781 182.6875 188.796875 182.699219 C 188.800781 182.742188 188.808594 182.78125 188.804688 182.820312 C 188.804688 182.84375 188.792969 182.875 188.773438 182.886719 C 188.722656 182.925781 188.511719 182.84375 188.503906 182.777344 C 188.503906 182.742188 188.53125 182.671875 188.554688 182.667969 Z M 186.625 183.4375 C 186.621094 183.425781 186.613281 183.414062 186.605469 183.398438 C 186.664062 183.363281 186.726562 183.324219 186.785156 183.289062 C 186.792969 183.300781 186.796875 183.308594 186.804688 183.316406 C 186.742188 183.359375 186.683594 183.398438 186.625 183.4375 Z M 186.808594 183.523438 C 186.808594 183.511719 186.808594 183.503906 186.8125 183.496094 C 186.863281 183.507812 186.914062 183.519531 186.964844 183.53125 C 186.964844 183.539062 186.964844 183.546875 186.964844 183.554688 C 186.9375 183.5625 186.90625 183.566406 186.871094 183.578125 C 186.882812 183.601562 186.890625 183.617188 186.898438 183.636719 C 186.847656 183.675781 186.792969 183.710938 186.742188 183.75 C 186.738281 183.746094 186.730469 183.738281 186.722656 183.734375 C 186.761719 183.675781 186.796875 183.621094 186.839844 183.554688 C 186.839844 183.554688 186.824219 183.539062 186.808594 183.523438 Z M 187.066406 183.210938 C 187.074219 183.21875 187.078125 183.222656 187.078125 183.222656 C 187.050781 183.265625 187.027344 183.304688 187 183.34375 C 186.960938 183.335938 186.921875 183.324219 186.890625 183.316406 C 186.882812 183.363281 186.875 183.40625 186.863281 183.460938 C 186.808594 183.367188 186.828125 183.21875 186.902344 183.179688 C 186.925781 183.167969 186.972656 183.195312 187.007812 183.203125 C 187.003906 183.214844 187.003906 183.226562 187.003906 183.234375 C 187.023438 183.226562 187.046875 183.21875 187.066406 183.210938 Z M 187.0625 183.820312 C 187.097656 183.859375 187.132812 183.902344 187.164062 183.9375 C 187.113281 183.941406 187.074219 183.941406 187.035156 183.9375 C 187.039062 183.941406 187.039062 183.945312 187.039062 183.945312 C 187.070312 183.953125 187.125 183.964844 187.191406 183.976562 C 187.175781 184.011719 187.167969 184.035156 187.15625 184.0625 C 187.085938 184.023438 187.019531 183.988281 186.949219 183.953125 C 186.953125 183.941406 186.957031 183.929688 186.960938 183.921875 C 186.925781 183.90625 186.898438 183.886719 186.882812 183.855469 C 186.855469 183.847656 186.824219 183.839844 186.796875 183.835938 C 186.796875 183.824219 186.796875 183.816406 186.792969 183.808594 C 186.847656 183.800781 186.910156 183.777344 186.953125 183.796875 C 186.96875 183.804688 186.980469 183.820312 186.992188 183.84375 C 187.019531 183.84375 187.042969 183.84375 187.070312 183.84375 C 187.066406 183.835938 187.0625 183.828125 187.0625 183.820312 Z M 187.167969 184.175781 C 187.15625 184.191406 187.144531 184.203125 187.132812 184.21875 C 187.078125 184.15625 187.027344 184.097656 186.972656 184.035156 C 186.980469 184.027344 186.992188 184.019531 187 184.007812 C 187.054688 184.066406 187.113281 184.121094 187.167969 184.175781 Z M 186.863281 184.777344 C 186.863281 184.832031 186.859375 184.867188 186.855469 184.921875 C 186.808594 184.898438 186.773438 184.878906 186.71875 184.847656 C 186.773438 184.824219 186.8125 184.804688 186.863281 184.777344 Z M 186.800781 185.3125 C 186.792969 185.226562 186.789062 185.160156 186.785156 185.09375 C 186.789062 185.085938 186.796875 185.078125 186.800781 185.070312 C 186.859375 185.125 186.917969 185.175781 186.992188 185.242188 C 186.910156 185.273438 186.851562 185.292969 186.800781 185.3125 Z M 187.238281 185.042969 C 187.195312 185.03125 187.15625 185.003906 187.117188 184.980469 C 187.121094 184.972656 187.125 184.96875 187.128906 184.960938 C 187.167969 184.960938 187.210938 184.957031 187.25 184.964844 C 187.269531 184.96875 187.285156 184.992188 187.304688 185.007812 C 187.28125 185.023438 187.253906 185.050781 187.238281 185.042969 Z M 187.507812 183.84375 C 187.5 183.855469 187.488281 183.863281 187.480469 183.875 C 187.414062 183.8125 187.34375 183.746094 187.277344 183.683594 C 187.28125 183.675781 187.289062 183.667969 187.292969 183.660156 C 187.363281 183.722656 187.4375 183.78125 187.507812 183.84375 Z M 187.363281 183.238281 C 187.371094 183.234375 187.375 183.226562 187.382812 183.222656 C 187.457031 183.324219 187.527344 183.425781 187.601562 183.527344 C 187.515625 183.503906 187.457031 183.453125 187.433594 183.355469 C 187.425781 183.3125 187.386719 183.277344 187.363281 183.238281 Z M 187.359375 184.230469 C 187.398438 184.328125 187.433594 184.421875 187.472656 184.519531 C 187.460938 184.523438 187.453125 184.527344 187.445312 184.53125 C 187.402344 184.4375 187.363281 184.34375 187.320312 184.25 C 187.332031 184.242188 187.347656 184.238281 187.359375 184.230469 Z M 187.519531 185.949219 C 187.503906 185.925781 187.488281 185.902344 187.46875 185.871094 C 187.453125 185.890625 187.441406 185.90625 187.433594 185.921875 C 187.425781 185.917969 187.417969 185.917969 187.410156 185.917969 C 187.410156 185.859375 187.414062 185.800781 187.417969 185.773438 C 187.390625 185.683594 187.367188 185.617188 187.347656 185.546875 C 187.363281 185.542969 187.375 185.535156 187.390625 185.53125 C 187.445312 185.664062 187.496094 185.796875 187.550781 185.929688 C 187.539062 185.9375 187.53125 185.941406 187.519531 185.949219 Z M 187.660156 186.070312 C 187.726562 185.957031 187.726562 185.957031 187.875 186.160156 C 187.804688 186.226562 187.777344 186.214844 187.660156 186.070312 Z M 187.8125 185.226562 C 187.734375 185.253906 187.644531 185.257812 187.558594 185.273438 C 187.554688 185.257812 187.554688 185.246094 187.550781 185.230469 C 187.65625 185.1875 187.757812 185.148438 187.886719 185.097656 C 187.855469 185.15625 187.84375 185.214844 187.8125 185.226562 Z M 187.78125 183.199219 C 187.8125 183.222656 187.867188 183.210938 187.921875 183.214844 C 187.925781 183.144531 187.957031 183.136719 188.03125 183.203125 C 187.976562 183.222656 187.9375 183.234375 187.898438 183.25 C 187.839844 183.269531 187.78125 183.285156 187.722656 183.3125 C 187.667969 183.339844 187.589844 183.320312 187.570312 183.261719 C 187.566406 183.25 187.578125 183.214844 187.585938 183.214844 C 187.648438 183.203125 187.707031 183.144531 187.78125 183.199219 Z M 187.414062 182.945312 C 187.410156 182.964844 187.40625 182.984375 187.402344 183.023438 C 187.371094 182.996094 187.351562 182.980469 187.332031 182.960938 C 187.417969 182.882812 187.496094 182.84375 187.589844 182.988281 C 187.519531 182.972656 187.46875 182.960938 187.414062 182.945312 Z M 187.398438 181.550781 C 187.421875 181.679688 187.496094 181.632812 187.5625 181.613281 C 187.5625 181.632812 187.5625 181.648438 187.558594 181.667969 C 187.488281 181.671875 187.417969 181.675781 187.34375 181.679688 C 187.339844 181.667969 187.332031 181.660156 187.328125 181.648438 C 187.351562 181.617188 187.375 181.582031 187.398438 181.550781 Z M 187.46875 182.769531 C 187.476562 182.855469 187.351562 182.933594 187.234375 182.910156 C 187.316406 182.863281 187.390625 182.816406 187.46875 182.769531 Z M 187.027344 183.484375 C 187.046875 183.453125 187.058594 183.425781 187.074219 183.402344 C 187.128906 183.417969 187.179688 183.425781 187.230469 183.4375 C 187.214844 183.480469 187.214844 183.480469 187.027344 183.484375 Z M 187.195312 182.191406 C 187.097656 182.199219 187.023438 182.207031 186.953125 182.214844 C 186.949219 182.207031 186.949219 182.199219 186.949219 182.191406 C 186.972656 182.171875 186.996094 182.15625 187.019531 182.136719 C 186.996094 182.117188 186.972656 182.09375 186.945312 182.074219 C 186.996094 181.976562 187.046875 181.996094 187.195312 182.191406 Z M 186.746094 182.222656 C 186.835938 182.238281 186.917969 182.25 187.007812 182.265625 C 186.96875 182.347656 186.921875 182.433594 186.867188 182.542969 C 186.8125 182.464844 186.777344 182.40625 186.734375 182.34375 C 186.769531 182.324219 186.789062 182.316406 186.8125 182.304688 C 186.789062 182.273438 186.769531 182.25 186.746094 182.222656 Z M 186.648438 182.871094 C 186.703125 182.890625 186.757812 182.910156 186.816406 182.933594 C 186.808594 183.074219 186.652344 183.019531 186.609375 183.132812 C 186.578125 183.085938 186.5625 183.054688 186.542969 183.019531 C 186.601562 183.015625 186.648438 183.007812 186.710938 183.003906 C 186.675781 182.949219 186.65625 182.921875 186.636719 182.890625 C 186.640625 182.886719 186.644531 182.878906 186.648438 182.871094 Z M 186.515625 182.152344 C 186.542969 182.160156 186.570312 182.167969 186.601562 182.175781 C 186.601562 182.203125 186.597656 182.230469 186.597656 182.265625 C 186.554688 182.253906 186.523438 182.246094 186.492188 182.238281 C 186.5 182.210938 186.507812 182.183594 186.515625 182.152344 Z M 185.734375 182.308594 C 185.753906 182.355469 185.769531 182.402344 185.78125 182.445312 C 185.785156 182.453125 185.746094 182.480469 185.738281 182.476562 C 185.699219 182.457031 185.667969 182.429688 185.628906 182.40625 C 185.667969 182.367188 185.695312 182.34375 185.734375 182.308594 Z M 185.304688 182.527344 C 185.3125 182.527344 185.320312 182.527344 185.328125 182.523438 C 185.328125 182.589844 185.324219 182.652344 185.324219 182.742188 C 185.269531 182.707031 185.242188 182.6875 185.214844 182.671875 C 185.25 182.617188 185.277344 182.570312 185.304688 182.527344 Z M 185.542969 186.226562 C 185.554688 186.148438 185.566406 186.0625 185.578125 185.980469 C 185.585938 185.976562 185.597656 185.972656 185.605469 185.96875 C 185.636719 186.011719 185.667969 186.054688 185.703125 186.109375 C 185.710938 186.101562 185.730469 186.09375 185.761719 186.078125 C 185.777344 186.152344 185.789062 186.222656 185.800781 186.289062 C 185.710938 186.265625 185.632812 186.25 185.542969 186.226562 Z M 185.84375 185.265625 C 185.75 185.253906 185.71875 185.183594 185.707031 185.113281 C 185.707031 185.101562 185.8125 185.046875 185.847656 185.058594 C 185.984375 185.117188 185.839844 185.191406 185.84375 185.265625 Z M 185.789062 183.605469 C 185.789062 183.605469 185.78125 183.636719 185.777344 183.667969 C 185.769531 183.664062 185.761719 183.664062 185.753906 183.664062 C 185.757812 183.613281 185.765625 183.566406 185.769531 183.535156 C 185.742188 183.484375 185.730469 183.429688 185.695312 183.402344 C 185.636719 183.363281 185.566406 183.339844 185.503906 183.308594 C 185.414062 183.269531 185.324219 183.230469 185.234375 183.1875 C 185.230469 183.167969 185.226562 183.148438 185.21875 183.128906 C 185.304688 183.160156 185.394531 183.179688 185.476562 183.222656 C 185.652344 183.3125 185.820312 183.414062 186.003906 183.515625 C 185.933594 183.546875 185.871094 183.570312 185.789062 183.605469 Z M 185.976562 183.207031 C 185.992188 183.164062 186.011719 183.117188 186.035156 183.050781 C 186.0625 183.128906 186.085938 183.191406 186.113281 183.273438 C 186.058594 183.246094 186.019531 183.226562 185.976562 183.207031 Z M 186.230469 183.324219 C 186.261719 183.25 186.308594 183.3125 186.34375 183.328125 C 186.394531 183.351562 186.433594 183.386719 186.496094 183.429688 C 186.441406 183.417969 186.402344 183.402344 186.390625 183.410156 C 186.363281 183.441406 186.328125 183.480469 186.328125 183.515625 C 186.328125 183.585938 186.335938 183.585938 186.28125 183.582031 C 186.261719 183.539062 186.257812 183.503906 186.238281 183.496094 C 186.128906 183.441406 186.210938 183.375 186.230469 183.324219 Z M 186.230469 183.324219 " fill-opacity="1" fill-rule="nonzero"/><path fill="#d8d8d8" d="M 188.136719 181.363281 C 188.144531 181.351562 188.152344 181.34375 188.15625 181.332031 C 188.152344 181.328125 188.148438 181.324219 188.144531 181.320312 C 188.109375 181.308594 188.070312 181.304688 188.03125 181.300781 C 188.066406 181.324219 188.101562 181.34375 188.136719 181.363281 Z M 188.136719 181.363281 " fill-opacity="1" fill-rule="nonzero"/><path fill="#d8d8d8" d="M 191.464844 190.175781 C 191.464844 190.183594 191.460938 190.191406 191.460938 190.203125 C 191.480469 190.195312 191.496094 190.183594 191.511719 190.167969 C 191.492188 190.167969 191.476562 190.171875 191.464844 190.175781 Z M 191.464844 190.175781 " fill-opacity="1" fill-rule="nonzero"/><path fill="#d8d8d8" d="M 188.328125 181.558594 C 188.335938 181.566406 188.375 181.535156 188.394531 181.519531 C 188.414062 181.5 188.429688 181.480469 188.445312 181.457031 C 188.417969 181.4375 188.390625 181.417969 188.359375 181.402344 C 188.304688 181.421875 188.234375 181.335938 188.164062 181.398438 C 188.21875 181.453125 188.269531 181.511719 188.328125 181.558594 Z M 188.328125 181.558594 " fill-opacity="1" fill-rule="nonzero"/><g clip-path="url(#0876657c3e)"><path fill="#d8d8d8" d="M 203.617188 188.847656 C 203.574219 188.832031 203.546875 188.820312 203.496094 188.800781 C 203.574219 188.765625 203.648438 188.730469 203.722656 188.699219 C 202.949219 186.089844 200.566406 184.199219 197.726562 184.203125 C 194.363281 184.203125 191.65625 186.8125 191.464844 190.144531 C 191.574219 190.136719 191.683594 190.125 191.742188 190.011719 C 191.882812 190.121094 191.894531 190.15625 191.828125 190.265625 C 191.84375 190.292969 191.859375 190.320312 191.890625 190.363281 C 191.816406 190.371094 191.757812 190.382812 191.703125 190.382812 C 191.660156 190.382812 191.613281 190.386719 191.621094 190.304688 C 191.625 190.253906 191.539062 190.226562 191.460938 190.234375 C 191.457031 190.328125 191.453125 190.425781 191.453125 190.519531 C 191.457031 194 194.246094 196.785156 197.730469 196.78125 C 198.53125 196.78125 199.292969 196.625 199.996094 196.351562 C 200.003906 196.308594 200.011719 196.269531 200.023438 196.226562 C 200.054688 196.222656 200.085938 196.21875 200.117188 196.214844 C 200.117188 196.210938 200.121094 196.207031 200.121094 196.203125 C 200.132812 196.21875 200.132812 196.214844 200.128906 196.214844 C 200.125 196.214844 200.121094 196.214844 200.117188 196.214844 C 200.097656 196.253906 200.078125 196.292969 200.0625 196.328125 C 201.5625 195.722656 202.773438 194.554688 203.4375 193.085938 C 203.414062 193.054688 203.394531 193.019531 203.371094 192.988281 C 203.378906 192.980469 203.382812 192.976562 203.386719 192.96875 C 203.410156 192.984375 203.441406 193.003906 203.464844 193.019531 C 203.480469 192.984375 203.496094 192.945312 203.515625 192.90625 C 203.472656 192.902344 203.429688 192.894531 203.386719 192.890625 C 203.386719 192.882812 203.382812 192.871094 203.382812 192.863281 C 203.433594 192.851562 203.488281 192.835938 203.546875 192.824219 C 203.828125 192.113281 203.984375 191.339844 203.988281 190.53125 C 203.988281 189.910156 203.898438 189.308594 203.734375 188.742188 C 203.6875 188.742188 203.648438 188.765625 203.617188 188.847656 Z M 191.695312 189.914062 C 191.679688 189.960938 191.660156 190.007812 191.636719 190.046875 C 191.628906 190.054688 191.59375 190.042969 191.570312 190.039062 C 191.570312 190.027344 191.574219 190.019531 191.574219 190.007812 C 191.597656 190 191.621094 189.992188 191.648438 189.984375 C 191.640625 189.960938 191.628906 189.941406 191.628906 189.921875 C 191.625 189.902344 191.632812 189.878906 191.640625 189.859375 C 191.640625 189.855469 191.671875 189.851562 191.675781 189.855469 C 191.683594 189.871094 191.699219 189.898438 191.695312 189.914062 Z M 203.152344 188.367188 C 203.203125 188.472656 203.257812 188.582031 203.3125 188.6875 C 203.300781 188.695312 203.289062 188.699219 203.277344 188.707031 C 203.160156 188.632812 203.183594 188.484375 203.117188 188.382812 C 203.128906 188.378906 203.140625 188.371094 203.152344 188.367188 Z M 203.320312 191.878906 C 203.292969 191.953125 203.269531 192.015625 203.238281 192.097656 C 203.210938 192.035156 203.195312 191.996094 203.179688 191.953125 C 203.21875 191.929688 203.261719 191.910156 203.320312 191.878906 Z M 202.589844 188.695312 C 202.640625 188.742188 202.691406 188.785156 202.742188 188.832031 C 202.730469 188.847656 202.71875 188.863281 202.707031 188.878906 C 202.664062 188.84375 202.617188 188.804688 202.570312 188.761719 C 202.523438 188.800781 202.480469 188.835938 202.429688 188.875 C 202.429688 188.816406 202.429688 188.773438 202.425781 188.730469 C 202.472656 188.730469 202.527344 188.726562 202.582031 188.726562 C 202.585938 188.71875 202.589844 188.707031 202.589844 188.695312 Z M 202.53125 188.039062 C 202.535156 188.113281 202.542969 188.1875 202.550781 188.28125 C 202.5 188.203125 202.46875 188.148438 202.425781 188.082031 C 202.457031 188.070312 202.496094 188.054688 202.53125 188.039062 Z M 202.316406 187.363281 C 202.429688 187.40625 202.433594 187.410156 202.355469 187.53125 C 202.382812 187.53125 202.402344 187.53125 202.425781 187.53125 C 202.390625 187.609375 202.359375 187.683594 202.332031 187.75 C 202.257812 187.613281 202.203125 187.488281 202.316406 187.363281 Z M 201.621094 186.652344 C 201.664062 186.621094 201.699219 186.59375 201.753906 186.550781 C 201.707031 186.640625 201.671875 186.710938 201.636719 186.785156 C 201.535156 186.738281 201.738281 186.679688 201.621094 186.652344 Z M 192.761719 187.304688 C 192.78125 187.320312 192.828125 187.339844 192.835938 187.375 C 192.863281 187.445312 192.785156 187.625 192.746094 187.613281 C 192.683594 187.601562 192.601562 187.605469 192.582031 187.519531 C 192.566406 187.449219 192.65625 187.324219 192.761719 187.304688 Z M 192.453125 187.914062 C 192.53125 187.890625 192.601562 187.867188 192.679688 187.84375 C 192.691406 187.871094 192.703125 187.902344 192.714844 187.933594 C 192.710938 187.933594 192.707031 187.9375 192.703125 187.941406 C 192.691406 187.929688 192.679688 187.917969 192.667969 187.90625 C 192.546875 187.96875 192.625 188.0625 192.632812 188.144531 C 192.546875 188.15625 192.445312 188.023438 192.453125 187.914062 Z M 200.085938 195.40625 C 200.027344 195.328125 199.972656 195.253906 199.914062 195.171875 C 199.882812 195.175781 199.839844 195.179688 199.796875 195.183594 C 199.789062 195.167969 199.785156 195.152344 199.78125 195.136719 C 199.820312 195.117188 199.855469 195.089844 199.894531 195.082031 C 199.953125 195.070312 199.96875 195.117188 199.980469 195.167969 C 199.988281 195.199219 200.011719 195.226562 200.023438 195.253906 C 200.039062 195.238281 200.054688 195.226562 200.089844 195.1875 C 200.097656 195.273438 200.105469 195.335938 200.113281 195.402344 C 200.105469 195.40625 200.09375 195.40625 200.085938 195.40625 Z M 200.160156 195.578125 C 200.164062 195.515625 200.164062 195.460938 200.167969 195.378906 C 200.230469 195.464844 200.285156 195.523438 200.160156 195.578125 Z M 201.808594 193.335938 C 200.898438 194.660156 199.371094 195.527344 197.648438 195.519531 C 196.238281 195.511719 194.976562 194.914062 194.078125 193.960938 C 194.015625 193.964844 193.941406 193.914062 193.910156 193.824219 C 193.921875 193.820312 193.933594 193.820312 193.949219 193.820312 C 193.175781 192.929688 192.707031 191.761719 192.710938 190.480469 C 192.710938 190.109375 192.753906 189.75 192.832031 189.402344 C 192.820312 189.40625 192.808594 189.414062 192.796875 189.421875 C 192.757812 189.40625 192.726562 189.398438 192.699219 189.378906 C 192.667969 189.355469 192.640625 189.320312 192.617188 189.285156 C 192.613281 189.277344 192.636719 189.238281 192.640625 189.238281 C 192.675781 189.25 192.707031 189.269531 192.742188 189.285156 C 192.75 189.292969 192.761719 189.300781 192.789062 189.324219 C 192.773438 189.191406 192.683594 189.078125 192.757812 188.953125 C 192.875 188.925781 192.894531 188.996094 192.917969 189.066406 C 193.535156 187.015625 195.4375 185.519531 197.683594 185.523438 C 200.460938 185.53125 202.6875 187.777344 202.675781 190.558594 C 202.671875 191.542969 202.378906 192.460938 201.875 193.230469 C 201.90625 193.3125 201.859375 193.324219 201.808594 193.335938 Z M 202.40625 194.074219 C 202.457031 194.007812 202.5 193.957031 202.539062 193.90625 C 202.546875 193.902344 202.558594 193.902344 202.566406 193.902344 C 202.574219 193.980469 202.582031 194.058594 202.59375 194.160156 C 202.511719 194.125 202.457031 194.097656 202.40625 194.074219 Z M 202.703125 193.828125 C 202.683594 193.777344 202.671875 193.738281 202.648438 193.679688 C 202.707031 193.699219 202.75 193.714844 202.804688 193.730469 C 202.765625 193.765625 202.742188 193.792969 202.703125 193.828125 Z M 203.148438 189.117188 C 203.144531 189.136719 203.117188 189.152344 203.097656 189.167969 C 203.085938 189.152344 203.074219 189.136719 203.066406 189.117188 C 203.058594 189.09375 203.058594 189.066406 203.054688 189.027344 C 203.117188 189.011719 203.164062 189.054688 203.148438 189.117188 Z M 203.351562 192.394531 C 203.3125 192.394531 203.257812 192.398438 203.234375 192.425781 C 203.1875 192.476562 203.195312 192.484375 203.160156 192.441406 C 203.171875 192.398438 203.191406 192.367188 203.183594 192.347656 C 203.136719 192.230469 203.242188 192.238281 203.289062 192.214844 C 203.359375 192.183594 203.355469 192.261719 203.371094 192.300781 C 203.390625 192.347656 203.398438 192.40625 203.414062 192.476562 C 203.382812 192.433594 203.367188 192.394531 203.351562 192.394531 Z M 203.535156 191.253906 C 203.53125 191.261719 203.484375 191.253906 203.480469 191.246094 C 203.464844 191.207031 203.460938 191.164062 203.449219 191.117188 C 203.503906 191.117188 203.539062 191.121094 203.589844 191.121094 C 203.570312 191.167969 203.554688 191.214844 203.535156 191.253906 Z M 203.597656 189.144531 C 203.546875 189.089844 203.507812 189.046875 203.472656 189.007812 C 203.476562 189 203.484375 188.992188 203.492188 188.984375 C 203.5625 189 203.625 189.019531 203.597656 189.144531 Z M 203.597656 189.144531 " fill-opacity="1" fill-rule="nonzero"/></g><path fill="#d8d8d8" d="M 201.679688 189.90625 C 201.644531 189.722656 201.601562 189.542969 201.585938 189.46875 C 201.324219 188.664062 200.847656 187.988281 200.25 187.496094 C 200.121094 187.65625 200.011719 187.59375 199.914062 187.453125 C 199.9375 187.394531 199.976562 187.351562 200.03125 187.328125 C 199.300781 186.800781 198.417969 186.53125 197.515625 186.597656 C 197.285156 186.617188 197.058594 186.65625 197.066406 186.941406 C 197.078125 187.234375 197.3125 187.238281 197.539062 187.230469 C 198.195312 187.203125 198.820312 187.332031 199.386719 187.664062 C 199.84375 187.933594 200.21875 188.261719 200.5 188.65625 C 200.496094 188.632812 200.492188 188.613281 200.488281 188.585938 C 200.539062 188.597656 200.574219 188.605469 200.628906 188.617188 C 200.59375 188.65625 200.566406 188.679688 200.539062 188.710938 C 200.796875 189.089844 200.976562 189.527344 201.0625 190.027344 C 201.105469 190.253906 201.132812 190.53125 201.449219 190.484375 C 201.792969 190.433594 201.71875 190.144531 201.679688 189.90625 Z M 201.046875 189.652344 C 201.058594 189.53125 200.914062 189.460938 200.949219 189.332031 C 200.953125 189.324219 200.917969 189.304688 200.894531 189.285156 C 200.925781 189.273438 200.953125 189.265625 201 189.25 C 201.03125 189.386719 201.0625 189.527344 201.101562 189.691406 C 201.0625 189.664062 201.042969 189.65625 201.046875 189.652344 Z M 201.046875 189.652344 " fill-opacity="1" fill-rule="nonzero"/><g mask="url(#422fda520a)"><g transform="matrix(1, 0, 0, 1, 66, 164)"><g clip-path="url(#16b914e196)"><g fill="#ff00ff" fill-opacity="1"><g transform="translate(1.242089, 37.749987)"><g><path d="M 22.46875 -30.09375 L 26.03125 -30.09375 C 26.5625 -30.09375 26.800781 -29.832031 26.75 -29.3125 L 23.515625 -0.71875 C 23.492188 -0.238281 23.226562 0 22.71875 0 L 19.03125 0 C 18.613281 0 18.335938 -0.222656 18.203125 -0.671875 L 14.296875 -17.6875 L 10.34375 -0.640625 C 10.21875 -0.210938 9.941406 0 9.515625 0 L 5.75 0 C 5.25 0 4.988281 -0.238281 4.96875 -0.71875 L 1.875 -29.3125 C 1.832031 -29.832031 2.070312 -30.09375 2.59375 -30.09375 L 6.171875 -30.09375 C 6.648438 -30.09375 6.910156 -29.859375 6.953125 -29.390625 L 8.421875 -11.78125 L 8.609375 -11.78125 L 12.34375 -29.421875 C 12.46875 -29.867188 12.742188 -30.09375 13.171875 -30.09375 L 15.421875 -30.09375 C 15.878906 -30.09375 16.15625 -29.867188 16.25 -29.421875 L 19.9375 -11.78125 L 20.125 -11.78125 L 21.671875 -29.390625 C 21.722656 -29.859375 21.988281 -30.09375 22.46875 -30.09375 Z M 22.46875 -30.09375 "/></g></g></g><g fill="#ff00ff" fill-opacity="1"><g transform="translate(35.399124, 37.749987)"><g><path d="M 16.890625 -25.734375 L 16.890625 -21.96875 C 16.890625 -21.539062 16.691406 -21.328125 16.296875 -21.328125 L 7 -21.328125 L 7 -15.546875 L 14.078125 -15.546875 C 14.472656 -15.546875 14.671875 -15.332031 14.671875 -14.90625 L 14.671875 -11.171875 C 14.671875 -10.742188 14.472656 -10.53125 14.078125 -10.53125 L 7 -10.53125 L 7 -4.96875 L 16.296875 -4.96875 C 16.691406 -4.96875 16.890625 -4.765625 16.890625 -4.359375 L 16.890625 -0.609375 C 16.890625 -0.203125 16.691406 0 16.296875 0 L 2.453125 0 C 2.066406 0 1.875 -0.203125 1.875 -0.609375 L 1.875 -25.734375 C 1.875 -26.140625 2.066406 -26.34375 2.453125 -26.34375 L 16.296875 -26.34375 C 16.691406 -26.34375 16.890625 -26.140625 16.890625 -25.734375 Z M 16.890625 -25.734375 "/></g></g></g><g fill="#ff00ff" fill-opacity="1"><g transform="translate(59.700428, 37.749987)"><g><path d="M 16.96875 -20.921875 L 16.96875 -15.84375 C 16.96875 -15.132812 16.738281 -14.539062 16.28125 -14.0625 C 15.832031 -13.59375 15.269531 -13.296875 14.59375 -13.171875 L 14.59375 -13.09375 C 15.269531 -12.988281 15.832031 -12.691406 16.28125 -12.203125 C 16.738281 -11.710938 16.96875 -11.117188 16.96875 -10.421875 L 16.96875 -5.421875 C 16.96875 -3.660156 16.503906 -2.316406 15.578125 -1.390625 C 14.648438 -0.460938 13.296875 0 11.515625 0 L 2.484375 0 C 2.078125 0 1.875 -0.203125 1.875 -0.609375 L 1.875 -25.734375 C 1.875 -26.140625 2.078125 -26.34375 2.484375 -26.34375 L 11.515625 -26.34375 C 13.296875 -26.34375 14.648438 -25.882812 15.578125 -24.96875 C 16.503906 -24.050781 16.96875 -22.703125 16.96875 -20.921875 Z M 12.1875 -17.078125 L 12.1875 -20.09375 C 12.1875 -21.09375 11.6875 -21.59375 10.6875 -21.59375 L 6.546875 -21.59375 L 6.546875 -15.609375 L 10.6875 -15.609375 C 11.6875 -15.609375 12.1875 -16.097656 12.1875 -17.078125 Z M 12.1875 -6.25 L 12.1875 -9.140625 C 12.1875 -10.140625 11.6875 -10.640625 10.6875 -10.640625 L 6.546875 -10.640625 L 6.546875 -4.734375 L 10.6875 -4.734375 C 11.6875 -4.734375 12.1875 -5.238281 12.1875 -6.25 Z M 12.1875 -6.25 "/></g></g></g><g fill="#ff00ff" fill-opacity="1"><g transform="translate(84.076966, 37.749987)"><g><path d="M 16.96875 -20.921875 L 16.96875 -15.84375 C 16.96875 -15.132812 16.738281 -14.539062 16.28125 -14.0625 C 15.832031 -13.59375 15.269531 -13.296875 14.59375 -13.171875 L 14.59375 -13.09375 C 15.269531 -12.988281 15.832031 -12.691406 16.28125 -12.203125 C 16.738281 -11.710938 16.96875 -11.117188 16.96875 -10.421875 L 16.96875 -5.421875 C 16.96875 -3.660156 16.503906 -2.316406 15.578125 -1.390625 C 14.648438 -0.460938 13.296875 0 11.515625 0 L 2.484375 0 C 2.078125 0 1.875 -0.203125 1.875 -0.609375 L 1.875 -25.734375 C 1.875 -26.140625 2.078125 -26.34375 2.484375 -26.34375 L 11.515625 -26.34375 C 13.296875 -26.34375 14.648438 -25.882812 15.578125 -24.96875 C 16.503906 -24.050781 16.96875 -22.703125 16.96875 -20.921875 Z M 12.1875 -17.078125 L 12.1875 -20.09375 C 12.1875 -21.09375 11.6875 -21.59375 10.6875 -21.59375 L 6.546875 -21.59375 L 6.546875 -15.609375 L 10.6875 -15.609375 C 11.6875 -15.609375 12.1875 -16.097656 12.1875 -17.078125 Z M 12.1875 -6.25 L 12.1875 -9.140625 C 12.1875 -10.140625 11.6875 -10.640625 10.6875 -10.640625 L 6.546875 -10.640625 L 6.546875 -4.734375 L 10.6875 -4.734375 C 11.6875 -4.734375 12.1875 -5.238281 12.1875 -6.25 Z M 12.1875 -6.25 "/></g></g></g><g fill="#00ffff" fill-opacity="1"><g transform="translate(1.006959, 37.749987)"><g><path d="M 22.46875 -30.09375 L 26.03125 -30.09375 C 26.5625 -30.09375 26.800781 -29.832031 26.75 -29.3125 L 23.515625 -0.71875 C 23.492188 -0.238281 23.226562 0 22.71875 0 L 19.03125 0 C 18.613281 0 18.335938 -0.222656 18.203125 -0.671875 L 14.296875 -17.6875 L 10.34375 -0.640625 C 10.21875 -0.210938 9.941406 0 9.515625 0 L 5.75 0 C 5.25 0 4.988281 -0.238281 4.96875 -0.71875 L 1.875 -29.3125 C 1.832031 -29.832031 2.070312 -30.09375 2.59375 -30.09375 L 6.171875 -30.09375 C 6.648438 -30.09375 6.910156 -29.859375 6.953125 -29.390625 L 8.421875 -11.78125 L 8.609375 -11.78125 L 12.34375 -29.421875 C 12.46875 -29.867188 12.742188 -30.09375 13.171875 -30.09375 L 15.421875 -30.09375 C 15.878906 -30.09375 16.15625 -29.867188 16.25 -29.421875 L 19.9375 -11.78125 L 20.125 -11.78125 L 21.671875 -29.390625 C 21.722656 -29.859375 21.988281 -30.09375 22.46875 -30.09375 Z M 22.46875 -30.09375 "/></g></g></g><g fill="#00ffff" fill-opacity="1"><g transform="translate(35.163995, 37.749987)"><g><path d="M 16.890625 -25.734375 L 16.890625 -21.96875 C 16.890625 -21.539062 16.691406 -21.328125 16.296875 -21.328125 L 7 -21.328125 L 7 -15.546875 L 14.078125 -15.546875 C 14.472656 -15.546875 14.671875 -15.332031 14.671875 -14.90625 L 14.671875 -11.171875 C 14.671875 -10.742188 14.472656 -10.53125 14.078125 -10.53125 L 7 -10.53125 L 7 -4.96875 L 16.296875 -4.96875 C 16.691406 -4.96875 16.890625 -4.765625 16.890625 -4.359375 L 16.890625 -0.609375 C 16.890625 -0.203125 16.691406 0 16.296875 0 L 2.453125 0 C 2.066406 0 1.875 -0.203125 1.875 -0.609375 L 1.875 -25.734375 C 1.875 -26.140625 2.066406 -26.34375 2.453125 -26.34375 L 16.296875 -26.34375 C 16.691406 -26.34375 16.890625 -26.140625 16.890625 -25.734375 Z M 16.890625 -25.734375 "/></g></g></g><g fill="#00ffff" fill-opacity="1"><g transform="translate(59.465299, 37.749987)"><g><path d="M 16.96875 -20.921875 L 16.96875 -15.84375 C 16.96875 -15.132812 16.738281 -14.539062 16.28125 -14.0625 C 15.832031 -13.59375 15.269531 -13.296875 14.59375 -13.171875 L 14.59375 -13.09375 C 15.269531 -12.988281 15.832031 -12.691406 16.28125 -12.203125 C 16.738281 -11.710938 16.96875 -11.117188 16.96875 -10.421875 L 16.96875 -5.421875 C 16.96875 -3.660156 16.503906 -2.316406 15.578125 -1.390625 C 14.648438 -0.460938 13.296875 0 11.515625 0 L 2.484375 0 C 2.078125 0 1.875 -0.203125 1.875 -0.609375 L 1.875 -25.734375 C 1.875 -26.140625 2.078125 -26.34375 2.484375 -26.34375 L 11.515625 -26.34375 C 13.296875 -26.34375 14.648438 -25.882812 15.578125 -24.96875 C 16.503906 -24.050781 16.96875 -22.703125 16.96875 -20.921875 Z M 12.1875 -17.078125 L 12.1875 -20.09375 C 12.1875 -21.09375 11.6875 -21.59375 10.6875 -21.59375 L 6.546875 -21.59375 L 6.546875 -15.609375 L 10.6875 -15.609375 C 11.6875 -15.609375 12.1875 -16.097656 12.1875 -17.078125 Z M 12.1875 -6.25 L 12.1875 -9.140625 C 12.1875 -10.140625 11.6875 -10.640625 10.6875 -10.640625 L 6.546875 -10.640625 L 6.546875 -4.734375 L 10.6875 -4.734375 C 11.6875 -4.734375 12.1875 -5.238281 12.1875 -6.25 Z M 12.1875 -6.25 "/></g></g></g><g fill="#00ffff" fill-opacity="1"><g transform="translate(83.841836, 37.749987)"><g><path d="M 16.96875 -20.921875 L 16.96875 -15.84375 C 16.96875 -15.132812 16.738281 -14.539062 16.28125 -14.0625 C 15.832031 -13.59375 15.269531 -13.296875 14.59375 -13.171875 L 14.59375 -13.09375 C 15.269531 -12.988281 15.832031 -12.691406 16.28125 -12.203125 C 16.738281 -11.710938 16.96875 -11.117188 16.96875 -10.421875 L 16.96875 -5.421875 C 16.96875 -3.660156 16.503906 -2.316406 15.578125 -1.390625 C 14.648438 -0.460938 13.296875 0 11.515625 0 L 2.484375 0 C 2.078125 0 1.875 -0.203125 1.875 -0.609375 L 1.875 -25.734375 C 1.875 -26.140625 2.078125 -26.34375 2.484375 -26.34375 L 11.515625 -26.34375 C 13.296875 -26.34375 14.648438 -25.882812 15.578125 -24.96875 C 16.503906 -24.050781 16.96875 -22.703125 16.96875 -20.921875 Z M 12.1875 -17.078125 L 12.1875 -20.09375 C 12.1875 -21.09375 11.6875 -21.59375 10.6875 -21.59375 L 6.546875 -21.59375 L 6.546875 -15.609375 L 10.6875 -15.609375 C 11.6875 -15.609375 12.1875 -16.097656 12.1875 -17.078125 Z M 12.1875 -6.25 L 12.1875 -9.140625 C 12.1875 -10.140625 11.6875 -10.640625 10.6875 -10.640625 L 6.546875 -10.640625 L 6.546875 -4.734375 L 10.6875 -4.734375 C 11.6875 -4.734375 12.1875 -5.238281 12.1875 -6.25 Z M 12.1875 -6.25 "/></g></g></g><g fill="#ffffff" fill-opacity="1"><g transform="translate(1.124524, 37.749987)"><g><path d="M 22.46875 -30.09375 L 26.03125 -30.09375 C 26.5625 -30.09375 26.800781 -29.832031 26.75 -29.3125 L 23.515625 -0.71875 C 23.492188 -0.238281 23.226562 0 22.71875 0 L 19.03125 0 C 18.613281 0 18.335938 -0.222656 18.203125 -0.671875 L 14.296875 -17.6875 L 10.34375 -0.640625 C 10.21875 -0.210938 9.941406 0 9.515625 0 L 5.75 0 C 5.25 0 4.988281 -0.238281 4.96875 -0.71875 L 1.875 -29.3125 C 1.832031 -29.832031 2.070312 -30.09375 2.59375 -30.09375 L 6.171875 -30.09375 C 6.648438 -30.09375 6.910156 -29.859375 6.953125 -29.390625 L 8.421875 -11.78125 L 8.609375 -11.78125 L 12.34375 -29.421875 C 12.46875 -29.867188 12.742188 -30.09375 13.171875 -30.09375 L 15.421875 -30.09375 C 15.878906 -30.09375 16.15625 -29.867188 16.25 -29.421875 L 19.9375 -11.78125 L 20.125 -11.78125 L 21.671875 -29.390625 C 21.722656 -29.859375 21.988281 -30.09375 22.46875 -30.09375 Z M 22.46875 -30.09375 "/></g></g></g><g fill="#ffffff" fill-opacity="1"><g transform="translate(35.28156, 37.749987)"><g><path d="M 16.890625 -25.734375 L 16.890625 -21.96875 C 16.890625 -21.539062 16.691406 -21.328125 16.296875 -21.328125 L 7 -21.328125 L 7 -15.546875 L 14.078125 -15.546875 C 14.472656 -15.546875 14.671875 -15.332031 14.671875 -14.90625 L 14.671875 -11.171875 C 14.671875 -10.742188 14.472656 -10.53125 14.078125 -10.53125 L 7 -10.53125 L 7 -4.96875 L 16.296875 -4.96875 C 16.691406 -4.96875 16.890625 -4.765625 16.890625 -4.359375 L 16.890625 -0.609375 C 16.890625 -0.203125 16.691406 0 16.296875 0 L 2.453125 0 C 2.066406 0 1.875 -0.203125 1.875 -0.609375 L 1.875 -25.734375 C 1.875 -26.140625 2.066406 -26.34375 2.453125 -26.34375 L 16.296875 -26.34375 C 16.691406 -26.34375 16.890625 -26.140625 16.890625 -25.734375 Z M 16.890625 -25.734375 "/></g></g></g><g fill="#ffffff" fill-opacity="1"><g transform="translate(59.582864, 37.749987)"><g><path d="M 16.96875 -20.921875 L 16.96875 -15.84375 C 16.96875 -15.132812 16.738281 -14.539062 16.28125 -14.0625 C 15.832031 -13.59375 15.269531 -13.296875 14.59375 -13.171875 L 14.59375 -13.09375 C 15.269531 -12.988281 15.832031 -12.691406 16.28125 -12.203125 C 16.738281 -11.710938 16.96875 -11.117188 16.96875 -10.421875 L 16.96875 -5.421875 C 16.96875 -3.660156 16.503906 -2.316406 15.578125 -1.390625 C 14.648438 -0.460938 13.296875 0 11.515625 0 L 2.484375 0 C 2.078125 0 1.875 -0.203125 1.875 -0.609375 L 1.875 -25.734375 C 1.875 -26.140625 2.078125 -26.34375 2.484375 -26.34375 L 11.515625 -26.34375 C 13.296875 -26.34375 14.648438 -25.882812 15.578125 -24.96875 C 16.503906 -24.050781 16.96875 -22.703125 16.96875 -20.921875 Z M 12.1875 -17.078125 L 12.1875 -20.09375 C 12.1875 -21.09375 11.6875 -21.59375 10.6875 -21.59375 L 6.546875 -21.59375 L 6.546875 -15.609375 L 10.6875 -15.609375 C 11.6875 -15.609375 12.1875 -16.097656 12.1875 -17.078125 Z M 12.1875 -6.25 L 12.1875 -9.140625 C 12.1875 -10.140625 11.6875 -10.640625 10.6875 -10.640625 L 6.546875 -10.640625 L 6.546875 -4.734375 L 10.6875 -4.734375 C 11.6875 -4.734375 12.1875 -5.238281 12.1875 -6.25 Z M 12.1875 -6.25 "/></g></g></g><g fill="#ffffff" fill-opacity="1"><g transform="translate(83.959401, 37.749987)"><g><path d="M 16.96875 -20.921875 L 16.96875 -15.84375 C 16.96875 -15.132812 16.738281 -14.539062 16.28125 -14.0625 C 15.832031 -13.59375 15.269531 -13.296875 14.59375 -13.171875 L 14.59375 -13.09375 C 15.269531 -12.988281 15.832031 -12.691406 16.28125 -12.203125 C 16.738281 -11.710938 16.96875 -11.117188 16.96875 -10.421875 L 16.96875 -5.421875 C 16.96875 -3.660156 16.503906 -2.316406 15.578125 -1.390625 C 14.648438 -0.460938 13.296875 0 11.515625 0 L 2.484375 0 C 2.078125 0 1.875 -0.203125 1.875 -0.609375 L 1.875 -25.734375 C 1.875 -26.140625 2.078125 -26.34375 2.484375 -26.34375 L 11.515625 -26.34375 C 13.296875 -26.34375 14.648438 -25.882812 15.578125 -24.96875 C 16.503906 -24.050781 16.96875 -22.703125 16.96875 -20.921875 Z M 12.1875 -17.078125 L 12.1875 -20.09375 C 12.1875 -21.09375 11.6875 -21.59375 10.6875 -21.59375 L 6.546875 -21.59375 L 6.546875 -15.609375 L 10.6875 -15.609375 C 11.6875 -15.609375 12.1875 -16.097656 12.1875 -17.078125 Z M 12.1875 -6.25 L 12.1875 -9.140625 C 12.1875 -10.140625 11.6875 -10.640625 10.6875 -10.640625 L 6.546875 -10.640625 L 6.546875 -4.734375 L 10.6875 -4.734375 C 11.6875 -4.734375 12.1875 -5.238281 12.1875 -6.25 Z M 12.1875 -6.25 "/></g></g></g><g fill="#ff00ff" fill-opacity="1"><g transform="translate(108.456929, 37.749987)"><g/></g></g><g fill="#ff00ff" fill-opacity="1"><g transform="translate(123.391542, 37.749987)"><g/></g></g><g fill="#00ffff" fill-opacity="1"><g transform="translate(108.2218, 37.749987)"><g/></g></g><g fill="#00ffff" fill-opacity="1"><g transform="translate(123.156413, 37.749987)"><g/></g></g><g fill="#ffffff" fill-opacity="1"><g transform="translate(108.339365, 37.749987)"><g/></g></g><g fill="#ffffff" fill-opacity="1"><g transform="translate(123.273978, 37.749987)"><g/></g></g><g fill="#ff00ff" fill-opacity="1"><g transform="translate(138.328017, 37.749987)"><g><path d="M 7.296875 -30.09375 L 11.515625 -30.09375 C 13.296875 -30.09375 14.644531 -29.632812 15.5625 -28.71875 C 16.476562 -27.8125 16.9375 -26.46875 16.9375 -24.6875 L 16.9375 -20.6875 C 16.9375 -20.289062 16.734375 -20.09375 16.328125 -20.09375 L 12.421875 -20.09375 C 12.015625 -20.09375 11.8125 -20.289062 11.8125 -20.6875 L 11.8125 -23.625 C 11.8125 -24.632812 11.3125 -25.140625 10.3125 -25.140625 L 8.5 -25.140625 C 7.5 -25.140625 7 -24.632812 7 -23.625 L 7 -18.4375 L 15.953125 -15.5 C 16.609375 -15.226562 16.9375 -14.765625 16.9375 -14.109375 L 16.9375 -5.421875 C 16.9375 -3.660156 16.476562 -2.316406 15.5625 -1.390625 C 14.644531 -0.460938 13.296875 0 11.515625 0 L 7.296875 0 C 5.546875 0 4.203125 -0.460938 3.265625 -1.390625 C 2.335938 -2.316406 1.875 -3.660156 1.875 -5.421875 L 1.875 -9.375 C 1.875 -9.769531 2.078125 -9.96875 2.484375 -9.96875 L 6.390625 -9.96875 C 6.796875 -9.96875 7 -9.769531 7 -9.375 L 7 -6.46875 C 7 -5.46875 7.5 -4.96875 8.5 -4.96875 L 10.3125 -4.96875 C 11.3125 -4.96875 11.8125 -5.46875 11.8125 -6.46875 L 11.8125 -11.46875 L 2.890625 -14.40625 C 2.210938 -14.632812 1.875 -15.097656 1.875 -15.796875 L 1.875 -24.6875 C 1.875 -26.46875 2.335938 -27.8125 3.265625 -28.71875 C 4.203125 -29.632812 5.546875 -30.09375 7.296875 -30.09375 Z M 7.296875 -30.09375 "/></g></g></g><g fill="#ff00ff" fill-opacity="1"><g transform="translate(162.666938, 37.749987)"><g><path d="M 2.484375 0 L 6.390625 0 C 6.796875 0 7 -0.203125 7 -0.609375 L 7 -25.734375 C 7 -26.140625 6.796875 -26.34375 6.390625 -26.34375 L 2.484375 -26.34375 C 2.078125 -26.34375 1.875 -26.140625 1.875 -25.734375 L 1.875 -0.609375 C 1.875 -0.203125 2.078125 0 2.484375 0 Z M 2.484375 0 "/></g></g></g><g fill="#ff00ff" fill-opacity="1"><g transform="translate(177.074906, 37.749987)"><g><path d="M 1.875 -5.421875 L 1.875 -20.921875 C 1.875 -22.703125 2.335938 -24.050781 3.265625 -24.96875 C 4.203125 -25.882812 5.546875 -26.34375 7.296875 -26.34375 L 11.515625 -26.34375 C 13.265625 -26.34375 14.601562 -25.882812 15.53125 -24.96875 C 16.46875 -24.050781 16.9375 -22.703125 16.9375 -20.921875 L 16.9375 -18.140625 C 16.9375 -17.734375 16.734375 -17.53125 16.328125 -17.53125 L 12.796875 -17.53125 C 12.390625 -17.53125 12.1875 -17.734375 12.1875 -18.140625 L 12.1875 -19.984375 C 12.1875 -20.984375 11.6875 -21.484375 10.6875 -21.484375 L 8.28125 -21.484375 C 7.269531 -21.484375 6.765625 -20.984375 6.765625 -19.984375 L 6.765625 -6.359375 C 6.765625 -5.359375 7.269531 -4.859375 8.28125 -4.859375 L 10.6875 -4.859375 C 11.6875 -4.859375 12.1875 -5.359375 12.1875 -6.359375 L 12.1875 -9.625 L 10.234375 -9.625 C 9.828125 -9.625 9.625 -9.828125 9.625 -10.234375 L 9.625 -14 C 9.625 -14.394531 9.828125 -14.59375 10.234375 -14.59375 L 16.328125 -14.59375 C 16.734375 -14.59375 16.9375 -14.394531 16.9375 -14 L 16.9375 -5.421875 C 16.9375 -3.660156 16.46875 -2.316406 15.53125 -1.390625 C 14.601562 -0.460938 13.265625 0 11.515625 0 L 7.296875 0 C 5.546875 0 4.203125 -0.460938 3.265625 -1.390625 C 2.335938 -2.316406 1.875 -3.660156 1.875 -5.421875 Z M 1.875 -5.421875 "/></g></g></g><g fill="#ff00ff" fill-opacity="1"><g transform="translate(201.413827, 37.749987)"><g><path d="M 11.8125 -15.578125 L 11.8125 -25.734375 C 11.8125 -26.140625 12.015625 -26.34375 12.421875 -26.34375 L 16.296875 -26.34375 C 16.722656 -26.34375 16.9375 -26.140625 16.9375 -25.734375 L 16.9375 -0.609375 C 16.9375 -0.203125 16.722656 0 16.296875 0 L 12.421875 0 C 12.015625 0 11.8125 -0.203125 11.8125 -0.609375 L 11.8125 -10.609375 L 7 -10.609375 L 7 -0.609375 C 7 -0.203125 6.796875 0 6.390625 0 L 2.515625 0 C 2.085938 0 1.875 -0.203125 1.875 -0.609375 L 1.875 -25.734375 C 1.875 -26.140625 2.085938 -26.34375 2.515625 -26.34375 L 6.390625 -26.34375 C 6.796875 -26.34375 7 -26.140625 7 -25.734375 L 7 -15.578125 Z M 11.8125 -15.578125 "/></g></g></g><g fill="#ff00ff" fill-opacity="1"><g transform="translate(225.752749, 37.749987)"><g><path d="M 15.578125 -26.34375 L 1.734375 -26.34375 C 1.328125 -26.34375 1.125 -26.140625 1.125 -25.734375 L 1.125 -21.96875 C 1.125 -21.570312 1.328125 -21.375 1.734375 -21.375 L 6.09375 -21.375 L 6.09375 -0.609375 C 6.09375 -0.203125 6.296875 0 6.703125 0 L 10.609375 0 C 11.015625 0 11.21875 -0.203125 11.21875 -0.609375 L 11.21875 -21.375 L 15.578125 -21.375 C 15.972656 -21.375 16.171875 -21.570312 16.171875 -21.96875 L 16.171875 -25.734375 C 16.171875 -26.140625 15.972656 -26.34375 15.578125 -26.34375 Z M 15.578125 -26.34375 "/></g></g></g><g fill="#00ffff" fill-opacity="1"><g transform="translate(138.092888, 37.749987)"><g><path d="M 7.296875 -30.09375 L 11.515625 -30.09375 C 13.296875 -30.09375 14.644531 -29.632812 15.5625 -28.71875 C 16.476562 -27.8125 16.9375 -26.46875 16.9375 -24.6875 L 16.9375 -20.6875 C 16.9375 -20.289062 16.734375 -20.09375 16.328125 -20.09375 L 12.421875 -20.09375 C 12.015625 -20.09375 11.8125 -20.289062 11.8125 -20.6875 L 11.8125 -23.625 C 11.8125 -24.632812 11.3125 -25.140625 10.3125 -25.140625 L 8.5 -25.140625 C 7.5 -25.140625 7 -24.632812 7 -23.625 L 7 -18.4375 L 15.953125 -15.5 C 16.609375 -15.226562 16.9375 -14.765625 16.9375 -14.109375 L 16.9375 -5.421875 C 16.9375 -3.660156 16.476562 -2.316406 15.5625 -1.390625 C 14.644531 -0.460938 13.296875 0 11.515625 0 L 7.296875 0 C 5.546875 0 4.203125 -0.460938 3.265625 -1.390625 C 2.335938 -2.316406 1.875 -3.660156 1.875 -5.421875 L 1.875 -9.375 C 1.875 -9.769531 2.078125 -9.96875 2.484375 -9.96875 L 6.390625 -9.96875 C 6.796875 -9.96875 7 -9.769531 7 -9.375 L 7 -6.46875 C 7 -5.46875 7.5 -4.96875 8.5 -4.96875 L 10.3125 -4.96875 C 11.3125 -4.96875 11.8125 -5.46875 11.8125 -6.46875 L 11.8125 -11.46875 L 2.890625 -14.40625 C 2.210938 -14.632812 1.875 -15.097656 1.875 -15.796875 L 1.875 -24.6875 C 1.875 -26.46875 2.335938 -27.8125 3.265625 -28.71875 C 4.203125 -29.632812 5.546875 -30.09375 7.296875 -30.09375 Z M 7.296875 -30.09375 "/></g></g></g><g fill="#00ffff" fill-opacity="1"><g transform="translate(162.431809, 37.749987)"><g><path d="M 2.484375 0 L 6.390625 0 C 6.796875 0 7 -0.203125 7 -0.609375 L 7 -25.734375 C 7 -26.140625 6.796875 -26.34375 6.390625 -26.34375 L 2.484375 -26.34375 C 2.078125 -26.34375 1.875 -26.140625 1.875 -25.734375 L 1.875 -0.609375 C 1.875 -0.203125 2.078125 0 2.484375 0 Z M 2.484375 0 "/></g></g></g><g fill="#00ffff" fill-opacity="1"><g transform="translate(176.839777, 37.749987)"><g><path d="M 1.875 -5.421875 L 1.875 -20.921875 C 1.875 -22.703125 2.335938 -24.050781 3.265625 -24.96875 C 4.203125 -25.882812 5.546875 -26.34375 7.296875 -26.34375 L 11.515625 -26.34375 C 13.265625 -26.34375 14.601562 -25.882812 15.53125 -24.96875 C 16.46875 -24.050781 16.9375 -22.703125 16.9375 -20.921875 L 16.9375 -18.140625 C 16.9375 -17.734375 16.734375 -17.53125 16.328125 -17.53125 L 12.796875 -17.53125 C 12.390625 -17.53125 12.1875 -17.734375 12.1875 -18.140625 L 12.1875 -19.984375 C 12.1875 -20.984375 11.6875 -21.484375 10.6875 -21.484375 L 8.28125 -21.484375 C 7.269531 -21.484375 6.765625 -20.984375 6.765625 -19.984375 L 6.765625 -6.359375 C 6.765625 -5.359375 7.269531 -4.859375 8.28125 -4.859375 L 10.6875 -4.859375 C 11.6875 -4.859375 12.1875 -5.359375 12.1875 -6.359375 L 12.1875 -9.625 L 10.234375 -9.625 C 9.828125 -9.625 9.625 -9.828125 9.625 -10.234375 L 9.625 -14 C 9.625 -14.394531 9.828125 -14.59375 10.234375 -14.59375 L 16.328125 -14.59375 C 16.734375 -14.59375 16.9375 -14.394531 16.9375 -14 L 16.9375 -5.421875 C 16.9375 -3.660156 16.46875 -2.316406 15.53125 -1.390625 C 14.601562 -0.460938 13.265625 0 11.515625 0 L 7.296875 0 C 5.546875 0 4.203125 -0.460938 3.265625 -1.390625 C 2.335938 -2.316406 1.875 -3.660156 1.875 -5.421875 Z M 1.875 -5.421875 "/></g></g></g><g fill="#00ffff" fill-opacity="1"><g transform="translate(201.178698, 37.749987)"><g><path d="M 11.8125 -15.578125 L 11.8125 -25.734375 C 11.8125 -26.140625 12.015625 -26.34375 12.421875 -26.34375 L 16.296875 -26.34375 C 16.722656 -26.34375 16.9375 -26.140625 16.9375 -25.734375 L 16.9375 -0.609375 C 16.9375 -0.203125 16.722656 0 16.296875 0 L 12.421875 0 C 12.015625 0 11.8125 -0.203125 11.8125 -0.609375 L 11.8125 -10.609375 L 7 -10.609375 L 7 -0.609375 C 7 -0.203125 6.796875 0 6.390625 0 L 2.515625 0 C 2.085938 0 1.875 -0.203125 1.875 -0.609375 L 1.875 -25.734375 C 1.875 -26.140625 2.085938 -26.34375 2.515625 -26.34375 L 6.390625 -26.34375 C 6.796875 -26.34375 7 -26.140625 7 -25.734375 L 7 -15.578125 Z M 11.8125 -15.578125 "/></g></g></g><g fill="#00ffff" fill-opacity="1"><g transform="translate(225.517619, 37.749987)"><g><path d="M 15.578125 -26.34375 L 1.734375 -26.34375 C 1.328125 -26.34375 1.125 -26.140625 1.125 -25.734375 L 1.125 -21.96875 C 1.125 -21.570312 1.328125 -21.375 1.734375 -21.375 L 6.09375 -21.375 L 6.09375 -0.609375 C 6.09375 -0.203125 6.296875 0 6.703125 0 L 10.609375 0 C 11.015625 0 11.21875 -0.203125 11.21875 -0.609375 L 11.21875 -21.375 L 15.578125 -21.375 C 15.972656 -21.375 16.171875 -21.570312 16.171875 -21.96875 L 16.171875 -25.734375 C 16.171875 -26.140625 15.972656 -26.34375 15.578125 -26.34375 Z M 15.578125 -26.34375 "/></g></g></g><g fill="#ffffff" fill-opacity="1"><g transform="translate(138.210453, 37.749987)"><g><path d="M 7.296875 -30.09375 L 11.515625 -30.09375 C 13.296875 -30.09375 14.644531 -29.632812 15.5625 -28.71875 C 16.476562 -27.8125 16.9375 -26.46875 16.9375 -24.6875 L 16.9375 -20.6875 C 16.9375 -20.289062 16.734375 -20.09375 16.328125 -20.09375 L 12.421875 -20.09375 C 12.015625 -20.09375 11.8125 -20.289062 11.8125 -20.6875 L 11.8125 -23.625 C 11.8125 -24.632812 11.3125 -25.140625 10.3125 -25.140625 L 8.5 -25.140625 C 7.5 -25.140625 7 -24.632812 7 -23.625 L 7 -18.4375 L 15.953125 -15.5 C 16.609375 -15.226562 16.9375 -14.765625 16.9375 -14.109375 L 16.9375 -5.421875 C 16.9375 -3.660156 16.476562 -2.316406 15.5625 -1.390625 C 14.644531 -0.460938 13.296875 0 11.515625 0 L 7.296875 0 C 5.546875 0 4.203125 -0.460938 3.265625 -1.390625 C 2.335938 -2.316406 1.875 -3.660156 1.875 -5.421875 L 1.875 -9.375 C 1.875 -9.769531 2.078125 -9.96875 2.484375 -9.96875 L 6.390625 -9.96875 C 6.796875 -9.96875 7 -9.769531 7 -9.375 L 7 -6.46875 C 7 -5.46875 7.5 -4.96875 8.5 -4.96875 L 10.3125 -4.96875 C 11.3125 -4.96875 11.8125 -5.46875 11.8125 -6.46875 L 11.8125 -11.46875 L 2.890625 -14.40625 C 2.210938 -14.632812 1.875 -15.097656 1.875 -15.796875 L 1.875 -24.6875 C 1.875 -26.46875 2.335938 -27.8125 3.265625 -28.71875 C 4.203125 -29.632812 5.546875 -30.09375 7.296875 -30.09375 Z M 7.296875 -30.09375 "/></g></g></g><g fill="#ffffff" fill-opacity="1"><g transform="translate(162.549374, 37.749987)"><g><path d="M 2.484375 0 L 6.390625 0 C 6.796875 0 7 -0.203125 7 -0.609375 L 7 -25.734375 C 7 -26.140625 6.796875 -26.34375 6.390625 -26.34375 L 2.484375 -26.34375 C 2.078125 -26.34375 1.875 -26.140625 1.875 -25.734375 L 1.875 -0.609375 C 1.875 -0.203125 2.078125 0 2.484375 0 Z M 2.484375 0 "/></g></g></g><g fill="#ffffff" fill-opacity="1"><g transform="translate(176.957342, 37.749987)"><g><path d="M 1.875 -5.421875 L 1.875 -20.921875 C 1.875 -22.703125 2.335938 -24.050781 3.265625 -24.96875 C 4.203125 -25.882812 5.546875 -26.34375 7.296875 -26.34375 L 11.515625 -26.34375 C 13.265625 -26.34375 14.601562 -25.882812 15.53125 -24.96875 C 16.46875 -24.050781 16.9375 -22.703125 16.9375 -20.921875 L 16.9375 -18.140625 C 16.9375 -17.734375 16.734375 -17.53125 16.328125 -17.53125 L 12.796875 -17.53125 C 12.390625 -17.53125 12.1875 -17.734375 12.1875 -18.140625 L 12.1875 -19.984375 C 12.1875 -20.984375 11.6875 -21.484375 10.6875 -21.484375 L 8.28125 -21.484375 C 7.269531 -21.484375 6.765625 -20.984375 6.765625 -19.984375 L 6.765625 -6.359375 C 6.765625 -5.359375 7.269531 -4.859375 8.28125 -4.859375 L 10.6875 -4.859375 C 11.6875 -4.859375 12.1875 -5.359375 12.1875 -6.359375 L 12.1875 -9.625 L 10.234375 -9.625 C 9.828125 -9.625 9.625 -9.828125 9.625 -10.234375 L 9.625 -14 C 9.625 -14.394531 9.828125 -14.59375 10.234375 -14.59375 L 16.328125 -14.59375 C 16.734375 -14.59375 16.9375 -14.394531 16.9375 -14 L 16.9375 -5.421875 C 16.9375 -3.660156 16.46875 -2.316406 15.53125 -1.390625 C 14.601562 -0.460938 13.265625 0 11.515625 0 L 7.296875 0 C 5.546875 0 4.203125 -0.460938 3.265625 -1.390625 C 2.335938 -2.316406 1.875 -3.660156 1.875 -5.421875 Z M 1.875 -5.421875 "/></g></g></g><g fill="#ffffff" fill-opacity="1"><g transform="translate(201.296263, 37.749987)"><g><path d="M 11.8125 -15.578125 L 11.8125 -25.734375 C 11.8125 -26.140625 12.015625 -26.34375 12.421875 -26.34375 L 16.296875 -26.34375 C 16.722656 -26.34375 16.9375 -26.140625 16.9375 -25.734375 L 16.9375 -0.609375 C 16.9375 -0.203125 16.722656 0 16.296875 0 L 12.421875 0 C 12.015625 0 11.8125 -0.203125 11.8125 -0.609375 L 11.8125 -10.609375 L 7 -10.609375 L 7 -0.609375 C 7 -0.203125 6.796875 0 6.390625 0 L 2.515625 0 C 2.085938 0 1.875 -0.203125 1.875 -0.609375 L 1.875 -25.734375 C 1.875 -26.140625 2.085938 -26.34375 2.515625 -26.34375 L 6.390625 -26.34375 C 6.796875 -26.34375 7 -26.140625 7 -25.734375 L 7 -15.578125 Z M 11.8125 -15.578125 "/></g></g></g><g fill="#ffffff" fill-opacity="1"><g transform="translate(225.635184, 37.749987)"><g><path d="M 15.578125 -26.34375 L 1.734375 -26.34375 C 1.328125 -26.34375 1.125 -26.140625 1.125 -25.734375 L 1.125 -21.96875 C 1.125 -21.570312 1.328125 -21.375 1.734375 -21.375 L 6.09375 -21.375 L 6.09375 -0.609375 C 6.09375 -0.203125 6.296875 0 6.703125 0 L 10.609375 0 C 11.015625 0 11.21875 -0.203125 11.21875 -0.609375 L 11.21875 -21.375 L 15.578125 -21.375 C 15.972656 -21.375 16.171875 -21.570312 16.171875 -21.96875 L 16.171875 -25.734375 C 16.171875 -26.140625 15.972656 -26.34375 15.578125 -26.34375 Z M 15.578125 -26.34375 "/></g></g></g></g></g></g></svg>