<svg xmlns="http://www.w3.org/2000/svg" xmlns:xlink="http://www.w3.org/1999/xlink" width="300" zoomAndPan="magnify" viewBox="0 0 224.87999 74.999997" height="100" preserveAspectRatio="xMidYMid meet" version="1.0"><defs><g/><clipPath id="d36e5c3d6f"><path d="M 0 0.0195312 L 224.761719 0.0195312 L 224.761719 74.980469 L 0 74.980469 Z M 0 0.0195312 " clip-rule="nonzero"/></clipPath><clipPath id="66dfd23c37"><path d="M 128 15.101562 L 140 15.101562 L 140 22 L 128 22 Z M 128 15.101562 " clip-rule="nonzero"/></clipPath><clipPath id="62f576ad1d"><path d="M 95 15.101562 L 107 15.101562 L 107 22 L 95 22 Z M 95 15.101562 " clip-rule="nonzero"/></clipPath><clipPath id="fe625ba76c"><path d="M 85.773438 31 L 113 31 L 113 57.828125 L 85.773438 57.828125 Z M 85.773438 31 " clip-rule="nonzero"/></clipPath><clipPath id="f2ff35edf0"><path d="M 122 31 L 149.492188 31 L 149.492188 57.828125 L 122 57.828125 Z M 122 31 " clip-rule="nonzero"/></clipPath></defs><g clip-path="url(#d36e5c3d6f)"><path fill="#ffffff" d="M 0 0.0195312 L 224.878906 0.0195312 L 224.878906 74.980469 L 0 74.980469 Z M 0 0.0195312 " fill-opacity="1" fill-rule="nonzero"/><path fill="#000000" d="M 0 0.0195312 L 224.878906 0.0195312 L 224.878906 74.980469 L 0 74.980469 Z M 0 0.0195312 " fill-opacity="1" fill-rule="nonzero"/></g><g clip-path="url(#66dfd23c37)"><path fill="#ffffff" d="M 134.414062 19.425781 C 136.410156 19.308594 137.925781 19.402344 139.226562 19.730469 L 138.785156 18.324219 C 138.109375 16.128906 136.480469 15.105469 133.652344 15.105469 C 132.246094 15.105469 130.929688 15.457031 129.949219 16.097656 C 129.046875 16.6875 128.546875 17.445312 128.546875 18.230469 C 128.546875 18.28125 128.546875 18.320312 128.054688 21.480469 C 128.355469 21.238281 128.664062 21.015625 128.992188 20.816406 C 130.359375 19.988281 131.980469 19.574219 134.414062 19.425781 Z M 134.414062 19.425781 " fill-opacity="1" fill-rule="nonzero"/></g><path fill="#ffffff" d="M 127.738281 32.746094 C 130.152344 31.09375 132.980469 30.21875 135.917969 30.21875 C 138.878906 30.21875 141.730469 31.105469 144.15625 32.785156 C 145.332031 33.601562 146.371094 34.574219 147.246094 35.671875 L 143.070312 23.5625 C 140.734375 20.796875 138.148438 20.382812 134.484375 20.601562 C 129.917969 20.878906 128.804688 22.105469 126.503906 24.785156 L 124.3125 36.03125 C 125.257812 34.765625 126.414062 33.65625 127.738281 32.746094 Z M 127.738281 32.746094 " fill-opacity="1" fill-rule="nonzero"/><path fill="#ffffff" d="M 124.976562 26.464844 L 121.566406 27.363281 C 121.574219 27.488281 121.582031 27.609375 121.582031 27.734375 L 122.148438 37.003906 L 122.921875 37.003906 Z M 124.976562 26.464844 " fill-opacity="1" fill-rule="nonzero"/><path fill="#ffffff" d="M 120.925781 36.25 L 120.40625 27.789062 C 120.40625 27.777344 120.40625 27.765625 120.40625 27.753906 C 120.40625 26.152344 119.101562 24.847656 117.5 24.847656 C 115.898438 24.847656 114.59375 26.152344 114.59375 27.753906 C 114.59375 27.765625 114.59375 27.777344 114.59375 27.789062 L 114.097656 36.226562 C 114.972656 35.359375 116.175781 34.824219 117.5 34.824219 C 118.835938 34.824219 120.046875 35.367188 120.925781 36.25 Z M 120.925781 36.25 " fill-opacity="1" fill-rule="nonzero"/><path fill="#ffffff" d="M 112.125 37.003906 L 112.875 37.003906 L 113.417969 27.734375 C 113.417969 27.613281 113.425781 27.488281 113.4375 27.367188 L 110.027344 26.464844 Z M 112.125 37.003906 " fill-opacity="1" fill-rule="nonzero"/><g clip-path="url(#62f576ad1d)"><path fill="#ffffff" d="M 100.585938 19.425781 C 103.019531 19.574219 104.640625 19.988281 106.007812 20.816406 C 106.335938 21.015625 106.648438 21.238281 106.945312 21.480469 C 106.453125 18.320312 106.453125 18.28125 106.453125 18.230469 C 106.453125 17.445312 105.953125 16.6875 105.050781 16.097656 C 104.070312 15.457031 102.753906 15.105469 101.347656 15.105469 C 98.519531 15.105469 96.890625 16.128906 96.214844 18.324219 L 95.773438 19.730469 C 97.074219 19.402344 98.59375 19.308594 100.585938 19.425781 Z M 100.585938 19.425781 " fill-opacity="1" fill-rule="nonzero"/></g><path fill="#ffffff" d="M 90.84375 32.785156 C 93.269531 31.105469 96.121094 30.21875 99.082031 30.21875 C 102.019531 30.21875 104.847656 31.09375 107.261719 32.746094 C 108.585938 33.65625 109.742188 34.765625 110.6875 36.03125 L 108.496094 24.785156 C 106.195312 22.105469 105.082031 20.878906 100.515625 20.601562 C 96.851562 20.382812 94.265625 20.796875 91.929688 23.5625 L 87.753906 35.671875 C 88.628906 34.574219 89.667969 33.601562 90.84375 32.785156 Z M 90.84375 32.785156 " fill-opacity="1" fill-rule="nonzero"/><g clip-path="url(#fe625ba76c)"><path fill="#ffffff" d="M 111.375 39.605469 C 109.308594 34.617188 104.492188 31.394531 99.082031 31.394531 C 93.601562 31.394531 88.753906 34.679688 86.722656 39.769531 L 86.703125 39.8125 C 86.089844 41.367188 85.777344 43.011719 85.777344 44.703125 C 85.777344 52.039062 91.746094 58.007812 99.082031 58.007812 C 106.417969 58.007812 112.386719 52.039062 112.386719 44.703125 C 112.386719 42.96875 112.058594 41.28125 111.410156 39.691406 Z M 106.640625 52.257812 C 104.621094 54.277344 101.9375 55.386719 99.082031 55.386719 C 96.226562 55.386719 93.542969 54.277344 91.527344 52.257812 C 89.507812 50.238281 88.394531 47.554688 88.394531 44.703125 C 88.394531 41.847656 89.507812 39.164062 91.527344 37.144531 C 93.542969 35.125 96.226562 34.015625 99.082031 34.015625 C 101.9375 34.015625 104.621094 35.125 106.640625 37.144531 C 108.65625 39.164062 109.769531 41.847656 109.769531 44.703125 C 109.769531 47.554688 108.65625 50.238281 106.640625 52.257812 Z M 106.640625 52.257812 " fill-opacity="1" fill-rule="nonzero"/></g><path fill="#ffffff" d="M 117.5 36 C 115.777344 36 114.328125 37.199219 113.945312 38.808594 L 113.871094 40.074219 C 114.082031 41.890625 115.628906 43.304688 117.5 43.304688 C 119.441406 43.304688 121.03125 41.785156 121.144531 39.871094 L 121.089844 38.988281 C 120.777344 37.292969 119.289062 36 117.5 36 Z M 117.5 36 " fill-opacity="1" fill-rule="nonzero"/><g clip-path="url(#f2ff35edf0)"><path fill="#ffffff" d="M 148.296875 39.8125 L 148.273438 39.753906 C 146.238281 34.675781 141.394531 31.394531 135.917969 31.394531 C 130.5 31.394531 125.675781 34.625 123.613281 39.632812 L 123.589844 39.691406 C 122.941406 41.28125 122.613281 42.96875 122.613281 44.703125 C 122.613281 52.039062 128.582031 58.007812 135.917969 58.007812 C 143.253906 58.007812 149.222656 52.039062 149.222656 44.703125 C 149.222656 43.011719 148.910156 41.367188 148.296875 39.8125 Z M 143.476562 52.257812 C 141.457031 54.277344 138.773438 55.386719 135.917969 55.386719 C 133.0625 55.386719 130.378906 54.277344 128.363281 52.257812 C 126.34375 50.238281 125.230469 47.554688 125.230469 44.703125 C 125.230469 41.847656 126.34375 39.164062 128.363281 37.144531 C 130.378906 35.125 133.0625 34.015625 135.917969 34.015625 C 138.773438 34.015625 141.457031 35.125 143.476562 37.144531 C 145.492188 39.164062 146.605469 41.847656 146.605469 44.703125 C 146.605469 47.554688 145.492188 50.238281 143.476562 52.257812 Z M 143.476562 52.257812 " fill-opacity="1" fill-rule="nonzero"/></g><g fill="#ffffff" fill-opacity="1"><g transform="translate(14.956861, 40.182118)"><g><path d="M 7.390625 0.375 C 6.921875 0.375 6.453125 0.359375 5.984375 0.328125 C 5.515625 0.304688 5.035156 0.296875 4.546875 0.296875 C 4.328125 -0.078125 4 -0.421875 3.5625 -0.734375 C 3.132812 -1.054688 2.738281 -1.394531 2.375 -1.75 C 2.019531 -2.113281 1.796875 -2.503906 1.703125 -2.921875 C 1.628906 -3.265625 1.582031 -3.597656 1.5625 -3.921875 C 1.550781 -4.242188 1.488281 -4.5625 1.375 -4.875 C 1.320312 -5.050781 1.25 -5.242188 1.15625 -5.453125 C 1.070312 -5.660156 1.019531 -5.851562 1 -6.03125 C 0.976562 -6.300781 0.972656 -6.585938 0.984375 -6.890625 C 0.992188 -7.203125 1 -7.492188 1 -7.765625 C 1 -8.210938 0.953125 -8.671875 0.859375 -9.140625 C 0.773438 -9.609375 0.734375 -10.078125 0.734375 -10.546875 C 0.734375 -11.015625 0.742188 -11.484375 0.765625 -11.953125 C 0.796875 -12.421875 0.863281 -12.882812 0.96875 -13.34375 L 0.921875 -13.171875 L 1 -13.171875 L 1.109375 -13.71875 L 1 -13.71875 L 1 -17.34375 C 1 -17.863281 1.007812 -18.375 1.03125 -18.875 C 1.0625 -19.382812 1.078125 -19.898438 1.078125 -20.421875 C 1.078125 -21.472656 1.035156 -22.523438 0.953125 -23.578125 C 0.878906 -24.628906 0.84375 -25.679688 0.84375 -26.734375 C 0.84375 -26.929688 0.882812 -27.191406 0.96875 -27.515625 C 1.0625 -27.835938 1.242188 -28 1.515625 -28 C 1.660156 -28 1.800781 -27.96875 1.9375 -27.90625 C 2.070312 -27.84375 2.210938 -27.8125 2.359375 -27.8125 C 2.679688 -27.8125 2.976562 -27.894531 3.25 -28.0625 C 3.519531 -28.238281 3.804688 -28.328125 4.109375 -28.328125 C 4.546875 -27.890625 4.78125 -27.367188 4.8125 -26.765625 C 4.851562 -26.160156 4.875 -25.570312 4.875 -25 C 4.925781 -24.90625 4.957031 -24.757812 4.96875 -24.5625 C 4.988281 -24.363281 5 -24.203125 5 -24.078125 C 5 -23.785156 4.972656 -23.488281 4.921875 -23.1875 C 4.867188 -22.894531 4.84375 -22.613281 4.84375 -22.34375 C 4.84375 -21.84375 4.878906 -21.375 4.953125 -20.9375 L 4.921875 -20.9375 L 4.875 -7.921875 L 4.703125 -7.921875 L 4.875 -7.796875 L 4.875 -7.4375 C 4.851562 -7.488281 4.835938 -7.484375 4.828125 -7.421875 C 4.816406 -7.359375 4.832031 -7.328125 4.875 -7.328125 C 4.90625 -6.859375 4.941406 -6.503906 4.984375 -6.265625 C 5.035156 -6.035156 5.117188 -5.820312 5.234375 -5.625 C 5.347656 -5.425781 5.503906 -5.128906 5.703125 -4.734375 C 5.847656 -4.460938 5.925781 -4.257812 5.9375 -4.125 C 5.945312 -3.988281 6.148438 -3.894531 6.546875 -3.84375 L 6.4375 -3.109375 L 6.328125 -3.109375 L 6.21875 -3.1875 L 5.984375 -3.109375 L 6.4375 -3 L 6.328125 -2.40625 L 6.546875 -2.359375 L 6.984375 -3.8125 L 7.546875 -3.953125 C 7.566406 -4.078125 7.613281 -4.191406 7.6875 -4.296875 C 7.757812 -4.410156 7.835938 -4.519531 7.921875 -4.625 L 7.875 -4.359375 L 7.953125 -4.328125 L 8.03125 -4.734375 L 7.984375 -4.734375 C 8.035156 -4.804688 8.140625 -4.957031 8.296875 -5.1875 C 8.460938 -5.425781 8.546875 -5.597656 8.546875 -5.703125 C 8.597656 -7.128906 8.609375 -8.613281 8.578125 -10.15625 C 8.554688 -11.695312 8.609375 -13.128906 8.734375 -14.453125 L 8.65625 -14.6875 L 8.46875 -14.5 L 8.46875 -15.09375 L 8.578125 -15.09375 L 8.65625 -15.015625 C 8.582031 -15.503906 8.550781 -16 8.5625 -16.5 C 8.570312 -17.007812 8.539062 -17.515625 8.46875 -18.015625 L 8.546875 -18.046875 C 8.617188 -18.347656 8.675781 -18.648438 8.71875 -18.953125 C 8.769531 -19.265625 8.796875 -19.566406 8.796875 -19.859375 C 8.796875 -20.203125 8.773438 -20.550781 8.734375 -20.90625 C 8.703125 -21.269531 8.6875 -21.632812 8.6875 -22 C 8.6875 -22.425781 8.71875 -22.859375 8.78125 -23.296875 C 8.84375 -23.742188 8.875 -24.1875 8.875 -24.625 C 8.875 -25.019531 8.816406 -25.394531 8.703125 -25.75 C 8.597656 -26.113281 8.546875 -26.492188 8.546875 -26.890625 C 8.546875 -27.234375 8.625 -27.535156 8.78125 -27.796875 C 8.945312 -28.054688 9.222656 -28.1875 9.609375 -28.1875 C 10.035156 -28.1875 10.457031 -28.132812 10.875 -28.03125 C 11.289062 -27.9375 11.722656 -27.898438 12.171875 -27.921875 C 12.335938 -27.703125 12.484375 -27.460938 12.609375 -27.203125 C 12.734375 -26.941406 12.796875 -26.675781 12.796875 -26.40625 C 12.796875 -25.882812 12.757812 -25.363281 12.6875 -24.84375 C 12.613281 -24.332031 12.578125 -23.816406 12.578125 -23.296875 C 12.578125 -23.128906 12.578125 -22.957031 12.578125 -22.78125 C 12.578125 -22.613281 12.585938 -22.441406 12.609375 -22.265625 L 12.6875 -22.265625 C 12.6875 -22.140625 12.691406 -22.003906 12.703125 -21.859375 C 12.710938 -21.710938 12.71875 -21.578125 12.71875 -21.453125 C 12.644531 -21.472656 12.535156 -21.445312 12.390625 -21.375 C 12.242188 -21.300781 12.171875 -21.226562 12.171875 -21.15625 L 12.171875 -21 C 12.265625 -21 12.3125 -21.078125 12.3125 -21.234375 L 12.71875 -21.234375 L 12.71875 -20.9375 C 12.644531 -20.9375 12.570312 -20.753906 12.5 -20.390625 C 12.425781 -20.035156 12.367188 -19.675781 12.328125 -19.3125 C 12.296875 -18.957031 12.265625 -18.734375 12.234375 -18.640625 L 12.65625 -18.34375 C 12.601562 -17.65625 12.566406 -16.972656 12.546875 -16.296875 C 12.535156 -15.617188 12.53125 -14.929688 12.53125 -14.234375 C 12.53125 -13.253906 12.550781 -12.265625 12.59375 -11.265625 C 12.632812 -10.265625 12.65625 -9.257812 12.65625 -8.25 C 12.65625 -7.289062 12.59375 -6.34375 12.46875 -5.40625 C 12.34375 -4.46875 12.109375 -3.550781 11.765625 -2.65625 C 11.617188 -2.269531 11.359375 -2.019531 10.984375 -1.90625 C 10.609375 -1.789062 10.3125 -1.570312 10.09375 -1.25 C 9.800781 -0.863281 9.550781 -0.546875 9.34375 -0.296875 C 9.132812 -0.046875 8.890625 0.125 8.609375 0.21875 C 8.335938 0.320312 7.929688 0.375 7.390625 0.375 Z M 7.390625 0.375 "/></g></g></g><g fill="#ffffff" fill-opacity="1"><g transform="translate(28.37927, 40.182118)"><g><path d="M 9.84375 -3.546875 C 9.84375 -2.710938 9.863281 -1.875 9.90625 -1.03125 C 9.957031 -0.195312 10.117188 0.625 10.390625 1.4375 L 10.171875 1.4375 C 9.847656 1.613281 9.488281 1.703125 9.09375 1.703125 C 8.820312 1.703125 8.550781 1.679688 8.28125 1.640625 C 8.007812 1.609375 7.738281 1.59375 7.46875 1.59375 C 7.394531 1.59375 7.3125 1.59375 7.21875 1.59375 C 7.132812 1.59375 7.054688 1.601562 6.984375 1.625 C 6.816406 1.351562 6.664062 1.0625 6.53125 0.75 C 6.394531 0.445312 6.265625 0.132812 6.140625 -0.1875 C 6.140625 -0.53125 6.125 -0.878906 6.09375 -1.234375 C 6.070312 -1.597656 6.0625 -1.953125 6.0625 -2.296875 C 6.0625 -3.742188 6.097656 -5.195312 6.171875 -6.65625 C 6.242188 -8.113281 6.28125 -9.554688 6.28125 -10.984375 C 6.28125 -11.109375 6.273438 -11.234375 6.265625 -11.359375 C 6.253906 -11.484375 6.238281 -11.59375 6.21875 -11.6875 C 6.113281 -11.738281 5.898438 -11.8125 5.578125 -11.90625 C 5.265625 -12.007812 5.046875 -12.0625 4.921875 -12.0625 C 4.722656 -12.0625 4.507812 -12.046875 4.28125 -12.015625 C 4.0625 -11.992188 3.890625 -11.882812 3.765625 -11.6875 L 3.703125 -11.6875 L 3.65625 -11.359375 L 3.703125 -11.359375 L 3.703125 -11.171875 L 3.625 -11.171875 L 3.59375 -10.796875 L 3.703125 -10.796875 L 3.703125 -2.8125 C 3.597656 -2.59375 3.539062 -2.320312 3.53125 -2 C 3.519531 -1.675781 3.515625 -1.390625 3.515625 -1.140625 L 3.515625 -0.328125 L 3.59375 -0.515625 L 3.625 -0.515625 L 3.515625 0.484375 L 3.515625 0.4375 C 3.515625 0.738281 3.492188 0.96875 3.453125 1.125 C 3.421875 1.289062 3.34375 1.492188 3.21875 1.734375 C 2.945312 1.640625 2.539062 1.609375 2 1.640625 C 1.457031 1.679688 0.9375 1.695312 0.4375 1.6875 C -0.0507812 1.675781 -0.367188 1.53125 -0.515625 1.25 C -0.421875 1.132812 -0.359375 1 -0.328125 0.84375 C -0.304688 0.695312 -0.296875 0.550781 -0.296875 0.40625 C -0.296875 -2.351562 -0.273438 -5.109375 -0.234375 -7.859375 C -0.203125 -10.609375 -0.132812 -13.363281 -0.03125 -16.125 L 0 -16.09375 L 0.03125 -16.09375 C 0.03125 -16.164062 0.0195312 -16.222656 0 -16.265625 L -0.03125 -16.234375 C 0.0078125 -17.148438 0.046875 -18.066406 0.078125 -18.984375 C 0.117188 -19.910156 0.140625 -20.832031 0.140625 -21.75 L 0.140625 -26.296875 C 0.140625 -26.640625 0.113281 -27 0.0625 -27.375 C 0.0195312 -27.757812 0.132812 -28.078125 0.40625 -28.328125 L 2.59375 -28.359375 C 3.332031 -28.359375 4.128906 -28.359375 4.984375 -28.359375 C 5.847656 -28.359375 6.679688 -28.269531 7.484375 -28.09375 C 8.285156 -27.925781 8.9375 -27.597656 9.4375 -27.109375 C 9.945312 -26.617188 10.203125 -25.867188 10.203125 -24.859375 C 10.203125 -23.578125 10.175781 -22.300781 10.125 -21.03125 C 10.082031 -19.757812 10.0625 -18.484375 10.0625 -17.203125 C 10.0625 -17.171875 10.007812 -17.003906 9.90625 -16.703125 C 9.8125 -16.410156 9.710938 -16.125 9.609375 -15.84375 C 9.515625 -15.5625 9.457031 -15.410156 9.4375 -15.390625 C 9.1875 -15.140625 8.972656 -14.945312 8.796875 -14.8125 C 8.628906 -14.675781 8.546875 -14.398438 8.546875 -13.984375 C 9.140625 -13.609375 9.523438 -13.085938 9.703125 -12.421875 C 9.890625 -11.753906 9.984375 -11.101562 9.984375 -10.46875 L 9.984375 -6.984375 C 9.984375 -6.421875 9.957031 -5.847656 9.90625 -5.265625 C 9.863281 -4.691406 9.84375 -4.117188 9.84375 -3.546875 Z M 6.03125 -16.15625 C 6.269531 -16.351562 6.410156 -16.703125 6.453125 -17.203125 C 6.492188 -17.710938 6.515625 -18.09375 6.515625 -18.34375 C 6.515625 -19.101562 6.5 -19.859375 6.46875 -20.609375 C 6.445312 -21.367188 6.445312 -22.128906 6.46875 -22.890625 C 6.5 -23.304688 6.394531 -23.601562 6.15625 -23.78125 C 5.925781 -23.957031 5.644531 -24.0625 5.3125 -24.09375 C 4.976562 -24.132812 4.660156 -24.15625 4.359375 -24.15625 L 4.296875 -24.15625 C 4.023438 -23.851562 3.863281 -23.476562 3.8125 -23.03125 C 3.757812 -22.59375 3.742188 -22.148438 3.765625 -21.703125 C 3.796875 -21.265625 3.757812 -20.875 3.65625 -20.53125 L 3.515625 -20.34375 L 3.59375 -20.046875 L 3.46875 -19.15625 L 3.703125 -19.125 L 3.703125 -19.3125 C 3.703125 -18.789062 3.71875 -18.273438 3.75 -17.765625 C 3.789062 -17.265625 3.8125 -16.753906 3.8125 -16.234375 C 4.03125 -16.140625 4.3125 -16.082031 4.65625 -16.0625 C 5 -16.050781 5.296875 -16.046875 5.546875 -16.046875 C 5.617188 -16.097656 5.695312 -16.128906 5.78125 -16.140625 C 5.875 -16.148438 5.957031 -16.15625 6.03125 -16.15625 Z M 6.03125 -16.15625 "/></g></g></g><g fill="#ffffff" fill-opacity="1"><g transform="translate(39.250311, 40.182118)"><g><path d="M 1.703125 0.78125 C 0.910156 0.4375 0.566406 -0.472656 0.671875 -1.953125 C 0.742188 -3.515625 0.78125 -4.859375 0.78125 -5.984375 C 0.78125 -6.304688 0.785156 -6.863281 0.796875 -7.65625 C 0.804688 -8.445312 0.816406 -9.367188 0.828125 -10.421875 C 0.835938 -11.484375 0.84375 -12.597656 0.84375 -13.765625 C 0.84375 -14.941406 0.832031 -16.066406 0.8125 -17.140625 C 0.789062 -18.210938 0.753906 -19.15625 0.703125 -19.96875 C 0.679688 -20.144531 0.671875 -20.304688 0.671875 -20.453125 C 0.671875 -20.597656 0.671875 -20.734375 0.671875 -20.859375 C 0.671875 -21.421875 0.707031 -21.9375 0.78125 -22.40625 L 0.703125 -26.515625 C 0.753906 -26.617188 0.800781 -26.738281 0.84375 -26.875 C 0.894531 -27.007812 0.945312 -27.175781 1 -27.375 C 1.25 -27.445312 1.445312 -27.566406 1.59375 -27.734375 C 2.800781 -27.609375 3.710938 -27.535156 4.328125 -27.515625 C 4.648438 -27.492188 4.910156 -27.484375 5.109375 -27.484375 C 5.304688 -27.484375 5.425781 -27.484375 5.46875 -27.484375 C 5.8125 -27.578125 6.234375 -27.550781 6.734375 -27.40625 C 6.859375 -27.382812 7.019531 -27.34375 7.21875 -27.28125 C 7.414062 -27.21875 7.660156 -27.125 7.953125 -27 C 8.617188 -26.820312 9 -26.625 9.09375 -26.40625 C 9.738281 -25.789062 10.269531 -25.113281 10.6875 -24.375 C 11.101562 -23.632812 11.484375 -22.859375 11.828125 -22.046875 C 11.859375 -21.992188 11.882812 -21.835938 11.90625 -21.578125 C 11.9375 -21.316406 11.957031 -21.046875 11.96875 -20.765625 C 11.976562 -20.484375 11.972656 -20.269531 11.953125 -20.125 L 12.0625 -17.71875 C 11.863281 -17.175781 11.546875 -16.609375 11.109375 -16.015625 C 10.679688 -15.421875 10.125 -14.816406 9.4375 -14.203125 L 9.546875 -13.984375 C 9.671875 -13.753906 9.867188 -13.476562 10.140625 -13.15625 C 10.410156 -12.84375 10.753906 -12.476562 11.171875 -12.0625 C 11.859375 -11.394531 12.300781 -10.703125 12.5 -9.984375 L 12.390625 -6.953125 C 12.390625 -6.929688 12.394531 -6.890625 12.40625 -6.828125 C 12.414062 -6.765625 12.421875 -6.671875 12.421875 -6.546875 L 12.53125 -5.625 C 12.613281 -4.957031 12.566406 -4.4375 12.390625 -4.0625 C 12.285156 -3.96875 12.164062 -3.851562 12.03125 -3.71875 C 11.894531 -3.582031 11.742188 -3.414062 11.578125 -3.21875 C 11.554688 -3.09375 11.53125 -2.929688 11.5 -2.734375 C 11.476562 -2.535156 11.429688 -2.328125 11.359375 -2.109375 C 10.660156 -0.878906 9.632812 -0.0390625 8.28125 0.40625 C 7.957031 0.507812 7.632812 0.570312 7.3125 0.59375 C 7 0.613281 6.691406 0.585938 6.390625 0.515625 C 6.023438 0.460938 5.675781 0.414062 5.34375 0.375 C 5.007812 0.34375 4.671875 0.351562 4.328125 0.40625 C 4.128906 0.40625 3.894531 0.4375 3.625 0.5 C 3.351562 0.5625 3.117188 0.617188 2.921875 0.671875 C 2.253906 0.765625 1.847656 0.800781 1.703125 0.78125 Z M 5.65625 -16.203125 L 6.171875 -16.203125 L 6.84375 -16.3125 C 6.914062 -16.332031 6.988281 -16.347656 7.0625 -16.359375 C 7.132812 -16.378906 7.207031 -16.390625 7.28125 -16.390625 C 7.28125 -16.410156 7.285156 -16.429688 7.296875 -16.453125 C 7.316406 -16.484375 7.328125 -16.507812 7.328125 -16.53125 L 7.390625 -16.75 C 8.054688 -17.539062 8.390625 -18.378906 8.390625 -19.265625 C 8.390625 -19.410156 8.390625 -19.550781 8.390625 -19.6875 C 8.390625 -19.820312 8.367188 -19.941406 8.328125 -20.046875 L 7.921875 -21.859375 C 7.691406 -21.984375 7.4375 -22.15625 7.15625 -22.375 C 6.875 -22.59375 6.546875 -22.851562 6.171875 -23.15625 L 5.109375 -23.15625 C 5.054688 -23.050781 4.992188 -22.929688 4.921875 -22.796875 C 4.847656 -22.660156 4.757812 -22.492188 4.65625 -22.296875 C 4.5625 -21.929688 4.5625 -21.476562 4.65625 -20.9375 L 4.875 -19.78125 C 4.957031 -19.382812 4.945312 -18.96875 4.84375 -18.53125 C 4.769531 -18.28125 4.71875 -18.0625 4.6875 -17.875 C 4.664062 -17.695312 4.65625 -17.546875 4.65625 -17.421875 C 4.65625 -17.242188 4.671875 -17.117188 4.703125 -17.046875 L 4.625 -17.09375 L 4.625 -16.96875 L 4.703125 -16.96875 C 4.742188 -16.695312 4.847656 -16.5 5.015625 -16.375 C 5.191406 -16.257812 5.40625 -16.203125 5.65625 -16.203125 Z M 6.171875 -2.84375 C 6.640625 -3.039062 7.046875 -3.410156 7.390625 -3.953125 L 7.390625 -4.0625 C 7.390625 -4.0625 7.441406 -4.113281 7.546875 -4.21875 L 7.84375 -5.03125 C 7.894531 -5.175781 7.941406 -5.316406 7.984375 -5.453125 C 8.035156 -5.585938 8.070312 -5.71875 8.09375 -5.84375 C 8.25 -6.382812 8.300781 -6.988281 8.25 -7.65625 C 8.195312 -8.46875 8.097656 -9.125 7.953125 -9.625 C 7.804688 -10.132812 7.4375 -10.660156 6.84375 -11.203125 C 6.59375 -11.398438 6.382812 -11.570312 6.21875 -11.71875 C 6.0625 -11.875 5.960938 -11.972656 5.921875 -12.015625 L 5.25 -12.015625 C 4.8125 -11.523438 4.613281 -10.179688 4.65625 -7.984375 L 4.765625 -3.21875 C 5.160156 -2.96875 5.628906 -2.84375 6.171875 -2.84375 Z M 6.171875 -2.84375 "/></g></g></g><g fill="#ffffff" fill-opacity="1"><g transform="translate(52.524816, 40.182118)"><g><path d="M 13.828125 -0.734375 L 13.9375 -0.375 C 13.664062 -0.195312 13.140625 -0.109375 12.359375 -0.109375 C 12.085938 -0.234375 11.703125 -0.285156 11.203125 -0.265625 C 10.640625 -0.265625 10.242188 -0.300781 10.015625 -0.375 C 9.992188 -0.414062 9.941406 -0.632812 9.859375 -1.03125 C 9.773438 -1.425781 9.671875 -1.910156 9.546875 -2.484375 C 9.421875 -3.066406 9.289062 -3.640625 9.15625 -4.203125 C 9.019531 -4.773438 8.894531 -5.265625 8.78125 -5.671875 C 8.675781 -6.078125 8.570312 -6.296875 8.46875 -6.328125 C 8.21875 -6.492188 7.820312 -6.578125 7.28125 -6.578125 L 7.0625 -6.578125 C 6.9375 -6.578125 6.851562 -6.566406 6.8125 -6.546875 L 6.578125 -6.546875 C 5.640625 -6.398438 5.125 -6.203125 5.03125 -5.953125 C 4.957031 -5.859375 4.898438 -5.757812 4.859375 -5.65625 C 4.828125 -5.5625 4.785156 -5.453125 4.734375 -5.328125 L 4.625 0.03125 L 2.84375 0 C 2.84375 0.0195312 2.804688 0.0195312 2.734375 0 L 2.359375 0 C 2.316406 0 2.234375 0 2.109375 0 C 1.984375 0 1.820312 -0.0078125 1.625 -0.03125 C 1.457031 -0.03125 1.25 -0.0351562 1 -0.046875 C 0.75 -0.0664062 0.460938 -0.0859375 0.140625 -0.109375 C 0.046875 -0.210938 0 -0.335938 0 -0.484375 L 0 -0.703125 C 0 -0.972656 0.0351562 -1.234375 0.109375 -1.484375 L 0.96875 -5.8125 L 1.109375 -6.8125 L 1.25 -7.359375 L 1.328125 -7.4375 L 1.296875 -7.4375 L 1.625 -8.765625 C 1.65625 -9.035156 1.671875 -9.28125 1.671875 -9.5 C 1.671875 -9.726562 1.671875 -9.914062 1.671875 -10.0625 C 1.671875 -10.332031 1.675781 -10.570312 1.6875 -10.78125 C 1.695312 -10.988281 1.710938 -11.179688 1.734375 -11.359375 L 2.484375 -16.09375 C 2.503906 -16.207031 2.53125 -16.367188 2.5625 -16.578125 C 2.601562 -16.796875 2.632812 -17.050781 2.65625 -17.34375 C 2.851562 -17.988281 3.019531 -18.660156 3.15625 -19.359375 C 3.289062 -20.066406 3.410156 -20.800781 3.515625 -21.5625 L 3.8125 -23.484375 C 3.863281 -23.628906 3.910156 -23.828125 3.953125 -24.078125 C 4.003906 -24.328125 4.066406 -24.632812 4.140625 -25 L 4.8125 -29.140625 L 5.171875 -29.359375 C 7.273438 -29.359375 8.734375 -29.285156 9.546875 -29.140625 L 9.65625 -28.890625 C 9.625 -28.765625 9.609375 -28.640625 9.609375 -28.515625 C 9.609375 -28.390625 9.609375 -28.265625 9.609375 -28.140625 C 9.609375 -27.796875 9.832031 -26.75 10.28125 -25 L 10.3125 -24.328125 C 10.3125 -24.109375 10.316406 -23.835938 10.328125 -23.515625 C 10.347656 -23.203125 10.367188 -22.832031 10.390625 -22.40625 C 10.410156 -22.332031 10.421875 -22.160156 10.421875 -21.890625 L 10.5 -21.078125 C 10.550781 -20.859375 10.625 -20.613281 10.71875 -20.34375 C 10.769531 -20.195312 10.8125 -20.03125 10.84375 -19.84375 C 10.882812 -19.65625 10.941406 -19.460938 11.015625 -19.265625 C 10.992188 -18.898438 11.003906 -18.535156 11.046875 -18.171875 C 11.097656 -17.816406 11.175781 -17.429688 11.28125 -17.015625 C 11.332031 -16.816406 11.378906 -16.59375 11.421875 -16.34375 C 11.472656 -16.101562 11.535156 -15.820312 11.609375 -15.5 L 11.609375 -15.3125 L 11.546875 -15.421875 L 11.46875 -15.421875 L 11.46875 -15.3125 L 11.390625 -15.3125 L 11.421875 -15.09375 L 11.46875 -15.09375 C 11.46875 -15.238281 11.515625 -15.3125 11.609375 -15.3125 C 11.609375 -15.113281 11.613281 -14.875 11.625 -14.59375 C 11.644531 -14.3125 11.664062 -13.992188 11.6875 -13.640625 C 11.90625 -12.484375 12.078125 -11.578125 12.203125 -10.921875 C 12.328125 -10.273438 12.425781 -9.753906 12.5 -9.359375 C 12.570312 -8.960938 12.644531 -8.566406 12.71875 -8.171875 C 12.75 -7.898438 12.75 -7.640625 12.71875 -7.390625 L 12.71875 -7.21875 C 12.695312 -7.1875 12.6875 -7.15625 12.6875 -7.125 C 12.6875 -7.101562 12.6875 -7.09375 12.6875 -7.09375 C 12.6875 -6.976562 12.710938 -6.84375 12.765625 -6.6875 C 12.804688 -6.34375 12.914062 -5.890625 13.09375 -5.328125 C 13.21875 -5.023438 13.300781 -4.765625 13.34375 -4.546875 C 13.394531 -4.328125 13.4375 -4.144531 13.46875 -4 C 13.4375 -3.800781 13.414062 -3.550781 13.40625 -3.25 C 13.394531 -2.957031 13.398438 -2.625 13.421875 -2.25 L 13.6875 -1.328125 L 13.828125 -1.375 L 13.90625 -1.25 L 13.90625 -0.96875 C 13.90625 -0.863281 13.878906 -0.785156 13.828125 -0.734375 Z M 8.328125 -10.609375 C 8.367188 -10.679688 8.398438 -10.75 8.421875 -10.8125 C 8.453125 -10.875 8.46875 -10.921875 8.46875 -10.953125 L 8.390625 -11.390625 C 8.316406 -11.660156 8.238281 -12.039062 8.15625 -12.53125 C 8.070312 -13.03125 7.96875 -13.648438 7.84375 -14.390625 L 7.65625 -15.609375 C 7.632812 -15.859375 7.59375 -16.109375 7.53125 -16.359375 C 7.46875 -16.617188 7.410156 -16.898438 7.359375 -17.203125 L 6.875 -17.203125 L 6.625 -16.453125 C 6.570312 -16.304688 6.515625 -16.144531 6.453125 -15.96875 C 6.390625 -15.800781 6.320312 -15.617188 6.25 -15.421875 C 6.195312 -15.097656 6.125 -14.664062 6.03125 -14.125 L 6.03125 -12.609375 L 5.875 -12.0625 C 5.851562 -11.957031 5.828125 -11.863281 5.796875 -11.78125 C 5.773438 -11.695312 5.742188 -11.617188 5.703125 -11.546875 C 5.578125 -11.097656 5.515625 -10.703125 5.515625 -10.359375 C 5.785156 -10.179688 6.175781 -10.09375 6.6875 -10.09375 L 8.0625 -10.09375 C 8.207031 -10.289062 8.296875 -10.460938 8.328125 -10.609375 Z M 8.328125 -10.609375 "/></g></g></g><g fill="#ffffff" fill-opacity="1"><g transform="translate(67.167441, 40.182118)"><g><path d="M 14.015625 -28.109375 C 14.359375 -28.003906 14.53125 -27.625 14.53125 -26.96875 L 14.453125 -25.265625 C 14.453125 -24.992188 14.425781 -24.570312 14.375 -24 C 14.332031 -23.4375 14.265625 -22.710938 14.171875 -21.828125 C 14.117188 -21.378906 14.070312 -20.601562 14.03125 -19.5 C 14 -18.40625 13.957031 -16.984375 13.90625 -15.234375 L 13.875 -12.0625 L 13.875 -0.140625 C 13.476562 0.046875 13.117188 0.140625 12.796875 0.140625 C 12.703125 0.117188 12.554688 0.109375 12.359375 0.109375 C 12.160156 0.109375 11.898438 0.0976562 11.578125 0.078125 C 11.472656 0.078125 11.316406 0.09375 11.109375 0.125 C 10.898438 0.164062 10.75 0.1875 10.65625 0.1875 L 10.390625 0.1875 C 10.296875 0.113281 10.148438 -0.0351562 9.953125 -0.265625 C 9.898438 -0.359375 9.816406 -0.535156 9.703125 -0.796875 C 9.597656 -1.054688 9.445312 -1.394531 9.25 -1.8125 L 5.921875 -10.5 L 5.953125 -11.25 C 5.804688 -11.25 5.707031 -11.160156 5.65625 -10.984375 C 5.507812 -11.378906 5.3125 -11.757812 5.0625 -12.125 C 5.019531 -12.03125 4.984375 -11.8125 4.953125 -11.46875 C 4.929688 -11.125 4.910156 -10.726562 4.890625 -10.28125 C 4.878906 -9.832031 4.878906 -9.429688 4.890625 -9.078125 C 4.910156 -8.722656 4.921875 -8.492188 4.921875 -8.390625 L 4.953125 -7.65625 C 4.984375 -7.582031 5.003906 -7.5 5.015625 -7.40625 C 5.023438 -7.320312 5.019531 -7.21875 5 -7.09375 C 5 -7.019531 4.988281 -6.90625 4.96875 -6.75 C 4.957031 -6.59375 4.953125 -6.378906 4.953125 -6.109375 L 4.921875 -5.109375 L 5 -4.515625 C 5.039062 -4.242188 5.039062 -4.007812 5 -3.8125 C 5 -3.78125 4.988281 -3.726562 4.96875 -3.65625 C 4.957031 -3.582031 4.941406 -3.484375 4.921875 -3.359375 C 4.890625 -3.210938 4.890625 -3.039062 4.921875 -2.84375 C 4.972656 -2.675781 5.003906 -2.46875 5.015625 -2.21875 C 5.023438 -1.96875 5.019531 -1.6875 5 -1.375 C 5 -1.070312 4.988281 -0.8125 4.96875 -0.59375 C 4.957031 -0.375 4.941406 -0.175781 4.921875 0 C 4.578125 0.175781 4.253906 0.265625 3.953125 0.265625 C 3.878906 0.210938 3.460938 0.1875 2.703125 0.1875 L 2.734375 0.1875 L 2.734375 0.140625 L 2.21875 0.1875 C 2 0.207031 1.800781 0.222656 1.625 0.234375 C 1.457031 0.253906 1.3125 0.265625 1.1875 0.265625 C 1.132812 0.140625 1.007812 0.00390625 0.8125 -0.140625 C 0.8125 -2.410156 0.796875 -4.710938 0.765625 -7.046875 C 0.742188 -9.378906 0.710938 -11.738281 0.671875 -14.125 L 0.296875 -27.78125 C 0.421875 -27.851562 0.53125 -27.925781 0.625 -28 C 0.726562 -28.070312 0.816406 -28.144531 0.890625 -28.21875 L 2.65625 -28.21875 C 3.226562 -28.21875 3.785156 -28.179688 4.328125 -28.109375 C 4.453125 -28.035156 4.5625 -27.773438 4.65625 -27.328125 C 4.613281 -27.273438 4.664062 -26.921875 4.8125 -26.265625 L 5.140625 -25.109375 C 5.210938 -25.015625 5.25 -24.953125 5.25 -24.921875 C 5.226562 -24.953125 5.203125 -24.96875 5.171875 -24.96875 C 5.171875 -24.894531 5.1875 -24.820312 5.21875 -24.75 C 5.382812 -24.394531 5.578125 -23.945312 5.796875 -23.40625 C 6.023438 -22.863281 6.265625 -22.238281 6.515625 -21.53125 C 6.554688 -21.351562 6.609375 -21.148438 6.671875 -20.921875 C 6.734375 -20.703125 6.816406 -20.457031 6.921875 -20.1875 C 6.921875 -20.09375 6.941406 -19.957031 6.984375 -19.78125 C 7.035156 -19.613281 7.125 -19.429688 7.25 -19.234375 C 7.375 -19.035156 7.457031 -18.851562 7.5 -18.6875 C 7.550781 -18.53125 7.59375 -18.40625 7.625 -18.3125 L 7.953125 -17.375 L 7.953125 -17.203125 C 7.972656 -17.078125 8.117188 -16.691406 8.390625 -16.046875 C 8.441406 -15.535156 8.554688 -15.164062 8.734375 -14.9375 C 9.078125 -14.519531 9.3125 -14.347656 9.4375 -14.421875 C 9.476562 -15.066406 9.523438 -15.765625 9.578125 -16.515625 C 9.628906 -17.265625 9.703125 -18.070312 9.796875 -18.9375 C 9.867188 -19.601562 9.90625 -20.234375 9.90625 -20.828125 L 9.796875 -24.484375 C 9.773438 -24.847656 9.757812 -25.175781 9.75 -25.46875 C 9.738281 -25.769531 9.734375 -26.035156 9.734375 -26.265625 C 9.734375 -26.578125 9.742188 -26.875 9.765625 -27.15625 C 9.785156 -27.445312 9.820312 -27.710938 9.875 -27.953125 C 9.945312 -27.953125 10.035156 -27.976562 10.140625 -28.03125 C 10.253906 -28.15625 10.894531 -28.226562 12.0625 -28.25 C 13.21875 -28.300781 13.867188 -28.253906 14.015625 -28.109375 Z M 14.015625 -28.109375 "/></g></g></g><g fill="#ffffff" fill-opacity="1"><g transform="translate(82.44428, 40.182118)"><g/></g></g><g fill="#ffffff" fill-opacity="1"><g transform="translate(88.767234, 40.182118)"><g/></g></g><g fill="#ffffff" fill-opacity="1"><g transform="translate(95.090188, 40.182118)"><g/></g></g><g fill="#ffffff" fill-opacity="1"><g transform="translate(101.413142, 40.182118)"><g/></g></g><g fill="#ffffff" fill-opacity="1"><g transform="translate(107.736095, 40.182118)"><g/></g></g><g fill="#ffffff" fill-opacity="1"><g transform="translate(114.059049, 40.182118)"><g/></g></g><g fill="#ffffff" fill-opacity="1"><g transform="translate(120.382003, 40.182118)"><g/></g></g><g fill="#ffffff" fill-opacity="1"><g transform="translate(126.704956, 40.182118)"><g/></g></g><g fill="#ffffff" fill-opacity="1"><g transform="translate(133.02791, 40.182118)"><g/></g></g><g fill="#ffffff" fill-opacity="1"><g transform="translate(139.350864, 40.182118)"><g/></g></g><g fill="#ffffff" fill-opacity="1"><g transform="translate(145.673818, 40.182118)"><g/></g></g><g fill="#ffffff" fill-opacity="1"><g transform="translate(152.004812, 40.182118)"><g><path d="M 5.28125 1 C 5.164062 1 5.09375 0.988281 5.0625 0.96875 C 4.894531 0.9375 4.695312 0.8125 4.46875 0.59375 C 4.300781 0.394531 4.140625 0.269531 3.984375 0.21875 C 3.835938 0.164062 3.664062 0.101562 3.46875 0.03125 C 3.25 -0.0390625 2.941406 -0.15625 2.546875 -0.3125 C 2.148438 -0.476562 1.816406 -0.742188 1.546875 -1.109375 C 1.453125 -1.398438 1.378906 -1.660156 1.328125 -1.890625 C 1.109375 -2.085938 0.835938 -2.40625 0.515625 -2.84375 C 0.421875 -3.113281 0.363281 -3.488281 0.34375 -3.96875 C 0.332031 -4.457031 0.34375 -4.941406 0.375 -5.421875 C 0.414062 -5.898438 0.460938 -6.265625 0.515625 -6.515625 C 0.546875 -6.535156 0.5625 -6.59375 0.5625 -6.6875 C 0.457031 -6.789062 0.394531 -6.84375 0.375 -6.84375 L 0.4375 -6.84375 L 0.5625 -6.8125 C 0.5625 -6.851562 0.550781 -6.90625 0.53125 -6.96875 C 0.519531 -7.03125 0.503906 -7.113281 0.484375 -7.21875 C 0.453125 -7.3125 0.429688 -7.394531 0.421875 -7.46875 C 0.410156 -7.539062 0.40625 -7.601562 0.40625 -7.65625 C 0.40625 -7.78125 0.441406 -7.878906 0.515625 -7.953125 C 0.546875 -8.078125 0.617188 -8.203125 0.734375 -8.328125 L 1 -8.359375 C 1.539062 -8.359375 2.34375 -8.25 3.40625 -8.03125 C 3.5 -7.90625 3.5625 -7.828125 3.59375 -7.796875 C 3.488281 -7.503906 3.4375 -6.988281 3.4375 -6.25 C 3.4375 -6.125 3.441406 -5.96875 3.453125 -5.78125 C 3.460938 -5.601562 3.46875 -5.378906 3.46875 -5.109375 C 3.550781 -3.796875 3.765625 -3.078125 4.109375 -2.953125 L 4.4375 -2.734375 L 4.328125 -2.734375 L 4.109375 -2.8125 C 4.429688 -2.613281 4.550781 -2.328125 4.46875 -1.953125 L 4.703125 -1.921875 L 4.734375 -2.40625 L 4.953125 -2.359375 L 4.765625 -2.734375 C 5.429688 -2.734375 5.765625 -3.09375 5.765625 -3.8125 C 5.765625 -3.863281 5.765625 -3.925781 5.765625 -4 C 5.765625 -4.070312 5.753906 -4.144531 5.734375 -4.21875 C 5.679688 -4.632812 5.765625 -5.003906 5.984375 -5.328125 C 6.285156 -5.765625 6.472656 -6.097656 6.546875 -6.328125 L 6.4375 -7.09375 C 6.4375 -7.289062 6.441406 -7.515625 6.453125 -7.765625 C 6.460938 -8.015625 6.484375 -8.285156 6.515625 -8.578125 C 6.535156 -8.703125 6.546875 -8.816406 6.546875 -8.921875 C 6.546875 -9.035156 6.546875 -9.144531 6.546875 -9.25 C 6.546875 -9.59375 6.507812 -9.910156 6.4375 -10.203125 L 6.546875 -10.171875 L 6.546875 -10.28125 L 6.4375 -10.28125 L 6.4375 -10.3125 C 6.40625 -10.414062 6.378906 -10.519531 6.359375 -10.625 C 6.335938 -10.738281 6.300781 -10.847656 6.25 -10.953125 L 6.03125 -11.765625 L 6.03125 -12.46875 L 6.0625 -12.875 L 5.84375 -12.90625 L 5.8125 -12.390625 C 5.8125 -12.410156 5.785156 -12.445312 5.734375 -12.5 C 5.609375 -12.570312 5.457031 -12.679688 5.28125 -12.828125 C 5.113281 -12.984375 4.921875 -13.15625 4.703125 -13.34375 C 3.878906 -14.238281 2.78125 -15.597656 1.40625 -17.421875 C 1.40625 -17.515625 1.390625 -17.632812 1.359375 -17.78125 C 1.335938 -17.9375 1.289062 -18.113281 1.21875 -18.3125 C 1.144531 -18.40625 1.054688 -18.53125 0.953125 -18.6875 C 0.859375 -18.851562 0.75 -19.046875 0.625 -19.265625 L 0.625 -21.265625 C 0.550781 -21.554688 0.515625 -21.863281 0.515625 -22.1875 C 0.515625 -22.851562 0.710938 -23.554688 1.109375 -24.296875 C 1.160156 -24.421875 1.21875 -24.546875 1.28125 -24.671875 C 1.34375 -24.796875 1.382812 -24.90625 1.40625 -25 C 1.457031 -25.195312 1.5 -25.390625 1.53125 -25.578125 C 1.570312 -25.765625 1.617188 -25.941406 1.671875 -26.109375 C 2.179688 -27.097656 3.140625 -27.863281 4.546875 -28.40625 C 4.597656 -28.40625 4.6875 -28.421875 4.8125 -28.453125 C 4.9375 -28.492188 5.070312 -28.523438 5.21875 -28.546875 C 6.644531 -28.546875 7.710938 -28.320312 8.421875 -27.875 C 9.140625 -27.4375 9.695312 -26.566406 10.09375 -25.265625 C 10.363281 -24.453125 10.5 -23.6875 10.5 -22.96875 C 10.5 -22.75 10.484375 -22.53125 10.453125 -22.3125 C 10.429688 -22.101562 10.398438 -21.890625 10.359375 -21.671875 C 9.765625 -21.273438 9.40625 -21.078125 9.28125 -21.078125 C 9.226562 -21.078125 9.128906 -21.113281 8.984375 -21.1875 C 8.816406 -21.257812 8.695312 -21.296875 8.625 -21.296875 C 8.59375 -21.296875 8.5625 -21.289062 8.53125 -21.28125 C 8.507812 -21.269531 8.476562 -21.265625 8.4375 -21.265625 C 8.382812 -21.171875 8.148438 -21.082031 7.734375 -21 C 7.535156 -21.351562 7.4375 -21.703125 7.4375 -22.046875 C 7.4375 -22.085938 7.441406 -22.132812 7.453125 -22.1875 C 7.460938 -22.238281 7.46875 -22.289062 7.46875 -22.34375 C 7.519531 -22.65625 7.53125 -22.910156 7.5 -23.109375 C 7.476562 -23.304688 7.375 -23.535156 7.1875 -23.796875 C 7.007812 -24.054688 6.695312 -24.394531 6.25 -24.8125 C 5.144531 -24.863281 4.550781 -24.566406 4.46875 -23.921875 L 4.359375 -23.265625 C 4.085938 -22.273438 4.066406 -21.421875 4.296875 -20.703125 C 4.535156 -19.992188 5.015625 -19.132812 5.734375 -18.125 C 5.953125 -17.820312 6.285156 -17.5 6.734375 -17.15625 C 7.222656 -16.757812 7.546875 -16.457031 7.703125 -16.25 C 7.867188 -16.039062 8.0625 -15.765625 8.28125 -15.421875 C 8.382812 -15.242188 8.492188 -15.0625 8.609375 -14.875 C 8.734375 -14.695312 8.875 -14.507812 9.03125 -14.3125 L 9.0625 -14.3125 L 9.0625 -14.28125 L 9.140625 -14.71875 L 9.25 -14.71875 L 9.25 -14.6875 L 9.171875 -14.125 C 9.585938 -13.707031 9.832031 -13.390625 9.90625 -13.171875 C 10.101562 -12.722656 10.179688 -12.140625 10.140625 -11.421875 C 10.140625 -11.109375 10.113281 -10.785156 10.0625 -10.453125 C 10.007812 -10.117188 9.957031 -9.816406 9.90625 -9.546875 C 9.863281 -9.273438 9.859375 -8.953125 9.890625 -8.578125 C 9.929688 -8.210938 9.960938 -7.953125 9.984375 -7.796875 C 10.109375 -7.253906 10.144531 -6.664062 10.09375 -6.03125 C 10.070312 -5.707031 10.046875 -5.425781 10.015625 -5.1875 C 9.992188 -4.957031 9.957031 -4.757812 9.90625 -4.59375 C 9.90625 -4.363281 9.898438 -4.175781 9.890625 -4.03125 C 9.878906 -3.882812 9.875 -3.75 9.875 -3.625 L 9.84375 -2.65625 C 9.738281 -2.582031 9.625 -2.484375 9.5 -2.359375 C 9.375 -2.242188 9.253906 -2.085938 9.140625 -1.890625 L 8.875 -1.109375 C 8.707031 -0.859375 8.492188 -0.644531 8.234375 -0.46875 C 7.972656 -0.300781 7.707031 -0.15625 7.4375 -0.03125 L 6.625 0.328125 C 6.007812 0.773438 5.5625 1 5.28125 1 Z M 5.28125 1 "/></g></g></g><g fill="#ffffff" fill-opacity="1"><g transform="translate(163.24562, 40.182118)"><g><path d="M 6.390625 -1.59375 L 6.03125 -1.671875 C 5.414062 -1.671875 4.992188 -1.707031 4.765625 -1.78125 C 4.691406 -1.851562 4.617188 -1.910156 4.546875 -1.953125 C 4.472656 -1.953125 4.398438 -1.96875 4.328125 -2 L 4.03125 -2.03125 C 3.78125 -2.15625 3.546875 -2.269531 3.328125 -2.375 C 3.109375 -2.488281 2.910156 -2.609375 2.734375 -2.734375 C 2.609375 -2.953125 2.335938 -3.273438 1.921875 -3.703125 C 1.671875 -3.847656 1.398438 -4.300781 1.109375 -5.0625 C 1.085938 -5.1875 1.066406 -5.289062 1.046875 -5.375 C 1.035156 -5.46875 1.03125 -5.585938 1.03125 -5.734375 C 1.0625 -5.785156 1.078125 -5.847656 1.078125 -5.921875 C 1.078125 -5.992188 1.078125 -6.054688 1.078125 -6.109375 L 1.078125 -6.984375 L 1.03125 -7.546875 C 1.0625 -7.640625 1.078125 -7.742188 1.078125 -7.859375 C 1.078125 -7.972656 1.078125 -8.078125 1.078125 -8.171875 C 1.078125 -8.296875 1.078125 -8.410156 1.078125 -8.515625 C 1.078125 -8.628906 1.0625 -8.738281 1.03125 -8.84375 L 1.03125 -9.90625 C 1.007812 -10.03125 0.992188 -10.164062 0.984375 -10.3125 C 0.972656 -10.46875 0.96875 -10.59375 0.96875 -10.6875 C 0.96875 -10.8125 0.972656 -10.941406 0.984375 -11.078125 C 0.992188 -11.210938 1.007812 -11.351562 1.03125 -11.5 C 1.082031 -11.570312 1.082031 -11.695312 1.03125 -11.875 L 1.109375 -11.875 L 1.109375 -12.015625 L 1.03125 -12.015625 L 0.921875 -12.53125 C 0.921875 -13.050781 0.921875 -13.484375 0.921875 -13.828125 C 0.921875 -14.171875 0.910156 -14.441406 0.890625 -14.640625 L 0.78125 -16.265625 L 0.78125 -17.09375 C 0.726562 -17.363281 0.6875 -17.820312 0.65625 -18.46875 C 0.632812 -19.125 0.613281 -19.984375 0.59375 -21.046875 L 0.59375 -23.265625 C 0.488281 -23.828125 0.492188 -24.320312 0.609375 -24.75 C 0.722656 -25.1875 0.914062 -25.613281 1.1875 -26.03125 L 1.296875 -26.375 C 1.367188 -26.46875 1.46875 -26.6875 1.59375 -27.03125 C 1.59375 -27.175781 1.800781 -27.398438 2.21875 -27.703125 C 2.269531 -27.753906 2.335938 -27.820312 2.421875 -27.90625 C 2.503906 -27.988281 2.609375 -28.082031 2.734375 -28.1875 C 2.859375 -28.1875 3.007812 -28.222656 3.1875 -28.296875 C 3.257812 -28.316406 3.347656 -28.335938 3.453125 -28.359375 C 3.566406 -28.390625 3.6875 -28.414062 3.8125 -28.4375 C 3.8125 -28.46875 3.847656 -28.492188 3.921875 -28.515625 C 3.941406 -28.515625 3.976562 -28.523438 4.03125 -28.546875 C 4.082031 -28.578125 4.128906 -28.601562 4.171875 -28.625 C 4.328125 -28.675781 4.453125 -28.703125 4.546875 -28.703125 L 4.84375 -28.78125 C 4.894531 -28.75 5.039062 -28.757812 5.28125 -28.8125 C 6.445312 -28.8125 7.285156 -28.710938 7.796875 -28.515625 C 7.921875 -28.410156 8.085938 -28.289062 8.296875 -28.15625 C 8.515625 -28.019531 8.78125 -27.894531 9.09375 -27.78125 C 9.394531 -27.78125 9.617188 -27.566406 9.765625 -27.140625 C 9.765625 -27.066406 9.765625 -26.988281 9.765625 -26.90625 C 9.765625 -26.820312 9.773438 -26.726562 9.796875 -26.625 C 9.867188 -26.53125 9.945312 -26.390625 10.03125 -26.203125 C 10.125 -26.015625 10.21875 -25.785156 10.3125 -25.515625 C 10.363281 -25.441406 10.390625 -25.332031 10.390625 -25.1875 C 10.390625 -25.039062 10.390625 -24.867188 10.390625 -24.671875 L 10.390625 -23.21875 C 10.410156 -23.125 10.421875 -23.03125 10.421875 -22.9375 C 10.421875 -22.851562 10.421875 -22.765625 10.421875 -22.671875 C 10.421875 -22.578125 10.414062 -22.472656 10.40625 -22.359375 C 10.394531 -22.242188 10.378906 -22.125 10.359375 -22 L 10.390625 -20.34375 C 10.410156 -20.019531 10.285156 -19.804688 10.015625 -19.703125 C 9.742188 -19.609375 9.398438 -19.578125 8.984375 -19.609375 C 8.929688 -19.628906 8.8125 -19.640625 8.625 -19.640625 L 8.140625 -19.640625 C 8.109375 -19.640625 8.0625 -19.640625 8 -19.640625 C 7.945312 -19.640625 7.878906 -19.628906 7.796875 -19.609375 C 7.753906 -19.609375 7.707031 -19.597656 7.65625 -19.578125 C 7.601562 -19.566406 7.554688 -19.5625 7.515625 -19.5625 C 7.460938 -19.5625 7.382812 -19.585938 7.28125 -19.640625 C 7.007812 -19.660156 6.851562 -19.785156 6.8125 -20.015625 C 6.757812 -20.054688 6.734375 -20.128906 6.734375 -20.234375 C 6.734375 -20.328125 6.78125 -20.460938 6.875 -20.640625 C 7.019531 -20.910156 7.09375 -21.09375 7.09375 -21.1875 C 7.09375 -21.3125 7.070312 -21.457031 7.03125 -21.625 C 7 -21.800781 6.960938 -22.015625 6.921875 -22.265625 C 6.921875 -22.316406 6.929688 -22.410156 6.953125 -22.546875 C 6.972656 -22.679688 7.007812 -22.847656 7.0625 -23.046875 C 7.113281 -23.242188 7.082031 -23.519531 6.96875 -23.875 C 6.863281 -24.226562 6.722656 -24.46875 6.546875 -24.59375 C 6.273438 -24.789062 6.101562 -24.890625 6.03125 -24.890625 C 5.707031 -25.015625 5.335938 -24.921875 4.921875 -24.609375 C 4.503906 -24.304688 4.296875 -23.984375 4.296875 -23.640625 C 4.316406 -23.609375 4.332031 -23.5625 4.34375 -23.5 C 4.351562 -23.4375 4.375 -23.382812 4.40625 -23.34375 L 4.546875 -22.8125 C 4.453125 -22.59375 4.40625 -22.265625 4.40625 -21.828125 C 4.550781 -21.179688 4.597656 -20.734375 4.546875 -20.484375 C 4.523438 -20.359375 4.515625 -20.25 4.515625 -20.15625 C 4.515625 -20.0625 4.515625 -19.953125 4.515625 -19.828125 C 4.535156 -19.753906 4.546875 -19.640625 4.546875 -19.484375 L 4.546875 -18.671875 C 4.546875 -18.578125 4.546875 -18.492188 4.546875 -18.421875 C 4.546875 -18.347656 4.535156 -18.257812 4.515625 -18.15625 C 4.585938 -17.832031 4.625 -17.300781 4.625 -16.5625 C 4.625 -16.46875 4.625 -16.367188 4.625 -16.265625 C 4.625 -16.171875 4.632812 -16.085938 4.65625 -16.015625 L 4.65625 -14.28125 C 4.65625 -13.78125 4.671875 -13.328125 4.703125 -12.921875 C 4.742188 -12.515625 4.789062 -12.175781 4.84375 -11.90625 C 4.914062 -11.757812 4.925781 -11.515625 4.875 -11.171875 C 4.851562 -11.140625 4.84375 -11.085938 4.84375 -11.015625 L 4.84375 -10.84375 L 4.875 -10.46875 L 4.875 -7.546875 C 4.851562 -6.703125 4.929688 -6.125 5.109375 -5.8125 L 5.25 -5.703125 C 5.269531 -5.671875 5.304688 -5.632812 5.359375 -5.59375 C 5.410156 -5.5625 5.445312 -5.519531 5.46875 -5.46875 C 5.519531 -5.445312 5.597656 -5.4375 5.703125 -5.4375 L 5.875 -5.4375 C 6.71875 -5.4375 7.140625 -5.832031 7.140625 -6.625 C 7.160156 -7.09375 7.164062 -7.675781 7.15625 -8.375 C 7.144531 -9.082031 7.125 -9.890625 7.09375 -10.796875 C 7.070312 -10.898438 7.066406 -10.988281 7.078125 -11.0625 C 7.085938 -11.132812 7.09375 -11.207031 7.09375 -11.28125 C 7.175781 -11.75 7.128906 -12.226562 6.953125 -12.71875 C 6.953125 -12.789062 6.945312 -12.851562 6.9375 -12.90625 C 6.925781 -12.957031 6.921875 -12.992188 6.921875 -13.015625 C 6.921875 -13.390625 7.175781 -13.550781 7.6875 -13.5 C 7.71875 -13.519531 7.804688 -13.53125 7.953125 -13.53125 C 8.023438 -13.507812 8.09375 -13.5 8.15625 -13.5 C 8.21875 -13.5 8.257812 -13.5 8.28125 -13.5 C 9.019531 -13.644531 9.597656 -13.71875 10.015625 -13.71875 C 10.097656 -13.625 10.164062 -13.550781 10.21875 -13.5 C 10.28125 -13.445312 10.328125 -13.394531 10.359375 -13.34375 L 10.46875 -13.203125 C 10.488281 -13.128906 10.5 -13.03125 10.5 -12.90625 C 10.5 -12.851562 10.5 -12.789062 10.5 -12.71875 C 10.5 -12.644531 10.472656 -12.546875 10.421875 -12.421875 C 10.378906 -12.273438 10.378906 -12.101562 10.421875 -11.90625 C 10.453125 -11.832031 10.46875 -11.6875 10.46875 -11.46875 C 10.4375 -11.238281 10.4375 -11.078125 10.46875 -10.984375 C 10.519531 -10.609375 10.519531 -10.226562 10.46875 -9.84375 C 10.4375 -9.613281 10.414062 -9.40625 10.40625 -9.21875 C 10.394531 -9.039062 10.390625 -8.863281 10.390625 -8.6875 C 10.390625 -8.175781 10.425781 -7.742188 10.5 -7.390625 C 10.550781 -7.191406 10.515625 -6.957031 10.390625 -6.6875 L 10.390625 -4.65625 C 10.390625 -4.289062 10.335938 -3.988281 10.234375 -3.75 C 10.140625 -3.519531 9.910156 -3.28125 9.546875 -3.03125 C 9.492188 -2.9375 9.28125 -2.765625 8.90625 -2.515625 C 8.863281 -2.515625 8.78125 -2.460938 8.65625 -2.359375 C 8.53125 -2.285156 8.320312 -2.148438 8.03125 -1.953125 L 7.546875 -1.84375 L 7.171875 -1.703125 C 7.078125 -1.679688 6.960938 -1.648438 6.828125 -1.609375 C 6.691406 -1.566406 6.546875 -1.5625 6.390625 -1.59375 Z M 6.390625 -1.59375 "/></g></g></g><g fill="#ffffff" fill-opacity="1"><g transform="translate(174.486428, 40.182118)"><g><path d="M 12.421875 -9.609375 C 12.546875 -8.628906 12.523438 -7.734375 12.359375 -6.921875 C 12.359375 -6.742188 12.347656 -6.582031 12.328125 -6.4375 C 12.316406 -6.289062 12.3125 -6.140625 12.3125 -5.984375 C 12.363281 -5.910156 12.363281 -5.773438 12.3125 -5.578125 L 12.09375 -5.21875 L 11.6875 -4.59375 C 11.613281 -4.238281 11.425781 -3.707031 11.125 -3 C 11.050781 -2.894531 10.960938 -2.8125 10.859375 -2.75 C 10.765625 -2.6875 10.632812 -2.65625 10.46875 -2.65625 C 10.050781 -2.613281 9.765625 -2.578125 9.609375 -2.546875 L 8.5 -1.78125 C 8.40625 -1.707031 7.960938 -1.59375 7.171875 -1.4375 C 7.003906 -1.414062 6.84375 -1.414062 6.6875 -1.4375 C 6.59375 -1.4375 6.519531 -1.453125 6.46875 -1.484375 L 6.21875 -1.515625 L 5 -1.734375 C 4.914062 -1.785156 4.832031 -1.832031 4.75 -1.875 C 4.664062 -1.925781 4.5625 -1.992188 4.4375 -2.078125 L 3.625 -2.484375 C 3.550781 -2.503906 3.414062 -2.515625 3.21875 -2.515625 L 2.921875 -2.515625 C 2.648438 -2.492188 2.457031 -2.539062 2.34375 -2.65625 C 2.238281 -2.78125 2.160156 -2.96875 2.109375 -3.21875 C 2.085938 -3.414062 2.054688 -3.554688 2.015625 -3.640625 C 1.972656 -3.722656 1.953125 -3.78125 1.953125 -3.8125 C 1.929688 -3.832031 1.898438 -3.859375 1.859375 -3.890625 C 1.828125 -3.929688 1.785156 -3.96875 1.734375 -4 C 1.660156 -4.09375 1.554688 -4.210938 1.421875 -4.359375 C 1.285156 -4.515625 1.179688 -4.75 1.109375 -5.0625 L 1.109375 -5.4375 C 1.015625 -5.65625 0.945312 -5.835938 0.90625 -5.984375 C 0.863281 -6.140625 0.832031 -6.265625 0.8125 -6.359375 C 0.863281 -6.265625 0.890625 -6.425781 0.890625 -6.84375 L 0.890625 -7.765625 C 0.910156 -7.867188 0.925781 -7.976562 0.9375 -8.09375 C 0.957031 -8.21875 0.96875 -8.351562 0.96875 -8.5 L 0.96875 -9.875 C 0.863281 -10.09375 0.8125 -10.425781 0.8125 -10.875 L 0.8125 -12.90625 C 0.8125 -13.125 0.8125 -13.347656 0.8125 -13.578125 C 0.8125 -13.816406 0.800781 -14.050781 0.78125 -14.28125 C 0.75 -14.394531 0.726562 -14.523438 0.71875 -14.671875 C 0.707031 -14.828125 0.703125 -14.988281 0.703125 -15.15625 C 0.722656 -15.207031 0.734375 -15.320312 0.734375 -15.5 L 0.734375 -16.09375 C 0.734375 -16.1875 0.726562 -16.3125 0.71875 -16.46875 C 0.707031 -16.632812 0.691406 -16.816406 0.671875 -17.015625 C 0.671875 -17.234375 0.660156 -17.421875 0.640625 -17.578125 C 0.628906 -17.742188 0.625 -17.875 0.625 -17.96875 C 0.625 -18.320312 0.660156 -18.644531 0.734375 -18.9375 C 0.734375 -19.257812 0.738281 -19.535156 0.75 -19.765625 C 0.769531 -20.003906 0.78125 -20.195312 0.78125 -20.34375 C 0.925781 -20.707031 1.035156 -21.015625 1.109375 -21.265625 C 1.179688 -21.515625 1.15625 -21.847656 1.03125 -22.265625 L 1.078125 -22.53125 L 1 -22.53125 L 1 -22.78125 L 0.96875 -22.78125 L 0.96875 -22.9375 C 0.96875 -23.101562 0.941406 -23.285156 0.890625 -23.484375 C 0.890625 -23.628906 0.972656 -23.960938 1.140625 -24.484375 C 1.191406 -24.828125 1.34375 -25.257812 1.59375 -25.78125 C 1.613281 -25.90625 1.734375 -26.085938 1.953125 -26.328125 C 1.953125 -26.328125 1.960938 -26.332031 1.984375 -26.34375 C 2.015625 -26.363281 2.046875 -26.375 2.078125 -26.375 C 2.078125 -26.414062 2.09375 -26.472656 2.125 -26.546875 C 2.164062 -26.628906 2.195312 -26.71875 2.21875 -26.8125 C 2.238281 -26.914062 2.445312 -27.140625 2.84375 -27.484375 L 2.921875 -27.375 L 2.890625 -27 L 3 -26.96875 L 3.109375 -26.96875 L 3.21875 -27 L 3.21875 -27.546875 L 3.328125 -27.546875 L 3.59375 -27.4375 C 3.5625 -27.488281 3.523438 -27.519531 3.484375 -27.53125 C 3.453125 -27.539062 3.425781 -27.5625 3.40625 -27.59375 L 3.296875 -27.703125 L 3.328125 -27.703125 C 3.578125 -27.796875 3.835938 -27.90625 4.109375 -28.03125 C 4.378906 -28.15625 4.660156 -28.289062 4.953125 -28.4375 C 5.023438 -28.46875 5.125 -28.492188 5.25 -28.515625 C 5.375 -28.535156 5.507812 -28.582031 5.65625 -28.65625 L 8.203125 -28.65625 L 9.609375 -28.109375 C 9.691406 -28.085938 9.769531 -28.066406 9.84375 -28.046875 C 9.914062 -28.035156 10 -28.003906 10.09375 -27.953125 C 10.144531 -27.953125 10.179688 -27.914062 10.203125 -27.84375 C 10.234375 -27.820312 10.257812 -27.796875 10.28125 -27.765625 C 10.300781 -27.742188 10.328125 -27.722656 10.359375 -27.703125 L 10.875 -27.296875 C 10.945312 -27.222656 11.003906 -27.164062 11.046875 -27.125 C 11.097656 -27.09375 11.140625 -27.050781 11.171875 -27 C 11.222656 -26.945312 11.25 -26.882812 11.25 -26.8125 C 11.289062 -26.71875 11.335938 -26.617188 11.390625 -26.515625 C 11.441406 -26.421875 11.503906 -26.335938 11.578125 -26.265625 L 11.90625 -25.328125 L 11.90625 -25.109375 L 12.015625 -24.78125 L 12.203125 -24.265625 C 12.203125 -24.191406 12.207031 -24.113281 12.21875 -24.03125 C 12.226562 -23.957031 12.234375 -23.898438 12.234375 -23.859375 C 12.234375 -23.679688 12.195312 -23.457031 12.125 -23.1875 C 12.101562 -23.09375 12.085938 -22.984375 12.078125 -22.859375 C 12.066406 -22.734375 12.0625 -22.632812 12.0625 -22.5625 C 12.0625 -22.4375 12.070312 -22.335938 12.09375 -22.265625 L 12.234375 -21.78125 L 12.234375 -20.015625 C 12.265625 -19.910156 12.28125 -19.773438 12.28125 -19.609375 L 12.28125 -19.265625 C 12.25 -19.097656 12.25 -18.863281 12.28125 -18.5625 C 12.300781 -18.394531 12.316406 -18.253906 12.328125 -18.140625 C 12.347656 -18.023438 12.359375 -17.945312 12.359375 -17.90625 L 12.359375 -15.09375 L 12.390625 -10.953125 L 12.234375 -10.953125 L 12.234375 -10.84375 L 12.390625 -10.84375 C 12.390625 -10.519531 12.394531 -10.265625 12.40625 -10.078125 C 12.414062 -9.890625 12.421875 -9.734375 12.421875 -9.609375 Z M 8.796875 -21.296875 L 8.90625 -21.296875 L 8.796875 -21.484375 L 8.65625 -21.53125 L 8.65625 -21.453125 L 8.46875 -21.484375 L 8.46875 -23 C 8.175781 -24.0625 7.625 -24.644531 6.8125 -24.75 L 6.875 -24.96875 L 6.875 -25.078125 L 6.8125 -25.109375 L 6.578125 -24.78125 L 6.21875 -24.78125 L 6.21875 -24.703125 C 5.789062 -24.535156 5.492188 -24.265625 5.328125 -23.890625 C 5.222656 -23.742188 5.171875 -23.546875 5.171875 -23.296875 L 5.171875 -22.53125 C 5.171875 -22.425781 5.171875 -22.320312 5.171875 -22.21875 C 5.171875 -22.125 5.160156 -22.03125 5.140625 -21.9375 L 5.140625 -21.265625 C 5.140625 -21.085938 5.148438 -20.953125 5.171875 -20.859375 L 5.171875 -20.5625 C 5.171875 -20.144531 5.171875 -19.617188 5.171875 -18.984375 C 5.171875 -18.359375 5.1875 -17.628906 5.21875 -16.796875 C 5.238281 -15.953125 5.253906 -15.210938 5.265625 -14.578125 C 5.273438 -13.953125 5.28125 -13.429688 5.28125 -13.015625 C 5.28125 -12.617188 5.289062 -12.253906 5.3125 -11.921875 C 5.34375 -11.585938 5.382812 -11.300781 5.4375 -11.0625 C 5.507812 -10.914062 5.519531 -10.71875 5.46875 -10.46875 C 5.394531 -10.269531 5.382812 -9.984375 5.4375 -9.609375 L 5.578125 -8.171875 C 5.554688 -8.023438 5.550781 -7.898438 5.5625 -7.796875 C 5.570312 -7.703125 5.59375 -7.609375 5.625 -7.515625 C 5.644531 -6.992188 5.816406 -6.535156 6.140625 -6.140625 C 6.265625 -5.960938 6.492188 -5.910156 6.828125 -5.984375 C 7.160156 -6.066406 7.398438 -6.144531 7.546875 -6.21875 L 7.796875 -6.625 L 8.140625 -7.0625 L 8.28125 -7.6875 C 8.3125 -7.8125 8.34375 -7.945312 8.375 -8.09375 C 8.414062 -8.25 8.445312 -8.410156 8.46875 -8.578125 L 8.46875 -10.171875 C 8.488281 -10.316406 8.503906 -10.484375 8.515625 -10.671875 C 8.535156 -10.859375 8.53125 -11.070312 8.5 -11.3125 C 8.5 -11.507812 8.492188 -11.707031 8.484375 -11.90625 C 8.472656 -12.101562 8.46875 -12.289062 8.46875 -12.46875 L 8.5 -12.46875 L 8.5 -12.875 L 8.625 -12.875 L 8.65625 -13.09375 C 8.65625 -13.164062 8.617188 -13.289062 8.546875 -13.46875 L 8.546875 -13.71875 L 8.625 -13.71875 L 8.546875 -13.796875 L 8.625 -14.234375 L 8.546875 -14.6875 L 8.578125 -15.421875 L 8.625 -15.578125 L 8.625 -15.9375 C 8.625 -16.039062 8.609375 -16.101562 8.578125 -16.125 L 8.625 -16.90625 C 8.625 -16.757812 8.582031 -16.644531 8.5 -16.5625 L 8.5 -16.96875 C 8.5 -17.144531 8.5 -17.332031 8.5 -17.53125 C 8.5 -17.726562 8.515625 -17.925781 8.546875 -18.125 C 8.515625 -18.320312 8.492188 -18.5625 8.484375 -18.84375 C 8.472656 -19.125 8.46875 -19.453125 8.46875 -19.828125 L 8.46875 -21.1875 L 8.5 -21.15625 C 8.5 -21.28125 8.550781 -21.34375 8.65625 -21.34375 L 8.65625 -21.265625 L 8.734375 -21.375 Z M 8.5 -15.15625 L 8.5 -16.34375 C 8.550781 -16.25 8.578125 -16.175781 8.578125 -16.125 L 8.578125 -15.421875 Z M 8.46875 -14.3125 L 8.5 -15.09375 L 8.546875 -14.6875 L 8.546875 -13.609375 L 8.5 -13.609375 L 8.5 -13.796875 L 8.46875 -13.796875 Z M 8.46875 -12.875 L 8.46875 -13.578125 L 8.546875 -13.46875 L 8.5 -12.875 Z M 8.46875 -12.875 "/></g></g></g><g fill="#ffffff" fill-opacity="1"><g transform="translate(187.613028, 40.182118)"><g><path d="M 3.4375 0 L 2.109375 -0.1875 C 1.890625 -0.28125 1.65625 -0.476562 1.40625 -0.78125 C 1.332031 -0.925781 1.296875 -1.082031 1.296875 -1.25 C 1.296875 -1.332031 1.300781 -1.425781 1.3125 -1.53125 C 1.320312 -1.644531 1.34375 -1.785156 1.375 -1.953125 C 1.394531 -2.109375 1.410156 -2.242188 1.421875 -2.359375 C 1.429688 -2.484375 1.425781 -2.597656 1.40625 -2.703125 C 1.382812 -3.171875 1.410156 -3.523438 1.484375 -3.765625 C 1.609375 -4.140625 1.628906 -4.425781 1.546875 -4.625 C 1.253906 -5.4375 1.144531 -6.039062 1.21875 -6.4375 C 1.269531 -6.5625 1.304688 -6.695312 1.328125 -6.84375 C 1.359375 -6.988281 1.382812 -7.148438 1.40625 -7.328125 C 1.476562 -7.691406 1.476562 -8.035156 1.40625 -8.359375 C 1.332031 -8.722656 1.296875 -9.226562 1.296875 -9.875 C 1.265625 -10.21875 1.269531 -10.519531 1.3125 -10.78125 C 1.351562 -11.039062 1.382812 -11.28125 1.40625 -11.5 C 1.457031 -11.601562 1.484375 -11.703125 1.484375 -11.796875 L 1.59375 -12.359375 C 1.644531 -12.722656 1.628906 -13.03125 1.546875 -13.28125 C 1.453125 -13.695312 1.382812 -14.191406 1.34375 -14.765625 C 1.3125 -15.347656 1.304688 -16 1.328125 -16.71875 C 1.359375 -18.46875 1.359375 -19.640625 1.328125 -20.234375 C 1.179688 -21.859375 1.109375 -23.300781 1.109375 -24.5625 L 1.4375 -24.5625 L 1.4375 -24.75 L 1.296875 -24.75 L 1.109375 -24.59375 C 1.109375 -26.25 1.179688 -27.664062 1.328125 -28.84375 C 1.742188 -28.96875 2.039062 -29.082031 2.21875 -29.1875 C 3.445312 -29.132812 4.375 -29.054688 5 -28.953125 L 4.921875 -28.890625 L 4.921875 -28.8125 L 5.03125 -28.703125 L 5.21875 -28.890625 L 5.21875 -28.953125 L 5.65625 -28.84375 L 7.515625 -28.84375 C 7.785156 -28.800781 8.140625 -28.703125 8.578125 -28.546875 C 9.023438 -28.398438 9.457031 -28.195312 9.875 -27.9375 C 10.289062 -27.675781 10.585938 -27.351562 10.765625 -26.96875 C 10.960938 -26.519531 11.097656 -25.960938 11.171875 -25.296875 C 11.242188 -24.628906 11.28125 -23.863281 11.28125 -23 C 11.257812 -22.132812 11.25 -21.335938 11.25 -20.609375 C 11.25 -19.890625 11.25 -19.207031 11.25 -18.5625 L 11.25 -15.234375 C 11.25 -14.472656 11.21875 -13.863281 11.15625 -13.40625 C 11.09375 -12.945312 10.953125 -12.554688 10.734375 -12.234375 C 10.523438 -11.921875 10.191406 -11.566406 9.734375 -11.171875 C 9.160156 -10.753906 8.625 -10.476562 8.125 -10.34375 C 7.632812 -10.207031 7.082031 -10.210938 6.46875 -10.359375 C 6.375 -10.378906 6.289062 -10.390625 6.21875 -10.390625 C 6.144531 -10.390625 6.082031 -10.390625 6.03125 -10.390625 C 5.78125 -10.390625 5.554688 -10.304688 5.359375 -10.140625 C 5.160156 -9.984375 5.0625 -9.769531 5.0625 -9.5 C 5.0625 -9.425781 5.085938 -9.316406 5.140625 -9.171875 C 5.160156 -9.023438 5.160156 -8.863281 5.140625 -8.6875 C 5.046875 -8.34375 4.984375 -7.929688 4.953125 -7.453125 C 4.929688 -6.972656 4.929688 -6.4375 4.953125 -5.84375 L 5.140625 -1.375 C 5.160156 -0.3125 4.59375 0.144531 3.4375 0 Z M 6.4375 -13.53125 C 6.507812 -13.53125 6.597656 -13.539062 6.703125 -13.5625 C 6.816406 -13.59375 6.9375 -13.617188 7.0625 -13.640625 C 7.1875 -13.867188 7.335938 -14.140625 7.515625 -14.453125 C 7.703125 -14.773438 7.894531 -15.171875 8.09375 -15.640625 C 8.21875 -16.015625 8.285156 -16.523438 8.296875 -17.171875 C 8.316406 -17.828125 8.304688 -18.492188 8.265625 -19.171875 C 8.222656 -19.847656 8.191406 -20.363281 8.171875 -20.71875 C 8.148438 -20.988281 8.125 -21.226562 8.09375 -21.4375 C 8.070312 -21.644531 8.050781 -21.832031 8.03125 -22 C 8 -22.070312 7.976562 -22.164062 7.96875 -22.28125 C 7.957031 -22.394531 7.953125 -22.523438 7.953125 -22.671875 L 7.796875 -23.75 C 7.703125 -24.0625 7.394531 -24.488281 6.875 -25.03125 L 5.578125 -25.21875 C 5.429688 -25.175781 5.347656 -25.078125 5.328125 -24.921875 C 5.078125 -24.679688 4.953125 -24.191406 4.953125 -23.453125 C 5.003906 -22.535156 5.003906 -21.976562 4.953125 -21.78125 C 4.898438 -21.507812 4.914062 -21.128906 5 -20.640625 C 5.039062 -20.367188 5.066406 -20.132812 5.078125 -19.9375 C 5.097656 -19.738281 5.09375 -19.578125 5.0625 -19.453125 C 4.988281 -19.003906 4.953125 -18.410156 4.953125 -17.671875 C 4.953125 -16.929688 4.988281 -16.203125 5.0625 -15.484375 C 5.132812 -14.773438 5.222656 -14.222656 5.328125 -13.828125 C 5.398438 -13.753906 5.507812 -13.691406 5.65625 -13.640625 C 5.78125 -13.546875 5.90625 -13.5 6.03125 -13.5 C 6.15625 -13.5 6.289062 -13.507812 6.4375 -13.53125 Z M 6.4375 -13.53125 "/></g></g></g><g fill="#ffffff" fill-opacity="1"><g transform="translate(199.482433, 40.182118)"><g><path d="M 9.46875 -2.140625 C 9.46875 -1.972656 9.472656 -1.804688 9.484375 -1.640625 C 9.492188 -1.484375 9.5 -1.316406 9.5 -1.140625 C 9.5 -0.671875 9.398438 -0.363281 9.203125 -0.21875 C 9.003906 -0.0703125 8.6875 0 8.25 0 C 8.070312 -0.09375 7.863281 -0.140625 7.625 -0.140625 C 7.050781 -0.140625 6.472656 -0.117188 5.890625 -0.078125 C 5.316406 -0.046875 4.742188 -0.03125 4.171875 -0.03125 C 3.828125 -0.03125 3.476562 -0.03125 3.125 -0.03125 C 2.769531 -0.03125 2.421875 -0.046875 2.078125 -0.078125 C 1.953125 -0.296875 1.867188 -0.546875 1.828125 -0.828125 C 1.796875 -1.109375 1.78125 -1.375 1.78125 -1.625 L 1.78125 -1.953125 C 1.894531 -2.222656 1.929688 -2.523438 1.890625 -2.859375 C 1.859375 -3.191406 1.84375 -3.492188 1.84375 -3.765625 L 1.84375 -9.4375 L 1.953125 -9.4375 L 1.84375 -9.546875 C 1.84375 -12.273438 1.84375 -15.007812 1.84375 -17.75 C 1.84375 -20.488281 1.867188 -23.226562 1.921875 -25.96875 C 1.921875 -26.164062 1.890625 -26.367188 1.828125 -26.578125 C 1.765625 -26.785156 1.734375 -27 1.734375 -27.21875 C 1.734375 -27.46875 1.765625 -27.632812 1.828125 -27.71875 C 1.890625 -27.800781 2.007812 -27.929688 2.1875 -28.109375 L 6.03125 -28.109375 C 6.269531 -28.109375 6.519531 -28.082031 6.78125 -28.03125 C 7.039062 -27.976562 7.296875 -27.953125 7.546875 -27.953125 C 7.765625 -27.953125 7.988281 -27.976562 8.21875 -28.03125 C 8.457031 -28.082031 8.6875 -28.109375 8.90625 -28.109375 C 9.101562 -27.910156 9.234375 -27.675781 9.296875 -27.40625 C 9.359375 -27.132812 9.378906 -26.863281 9.359375 -26.59375 C 9.410156 -26.488281 9.441406 -26.378906 9.453125 -26.265625 C 9.460938 -26.160156 9.46875 -26.046875 9.46875 -25.921875 C 9.46875 -25.597656 9.394531 -25.304688 9.25 -25.046875 C 9.101562 -24.796875 8.84375 -24.644531 8.46875 -24.59375 C 8.414062 -24.644531 8.351562 -24.6875 8.28125 -24.71875 C 8.207031 -24.757812 8.132812 -24.789062 8.0625 -24.8125 L 7.734375 -24.671875 L 7.84375 -24.859375 L 7.4375 -24.859375 C 7.164062 -24.859375 6.875 -24.835938 6.5625 -24.796875 C 6.257812 -24.765625 5.972656 -24.734375 5.703125 -24.703125 C 5.578125 -24.578125 5.460938 -24.425781 5.359375 -24.25 C 5.265625 -24.082031 5.164062 -23.914062 5.0625 -23.75 C 5.0625 -23.125 5.054688 -22.363281 5.046875 -21.46875 C 5.035156 -20.570312 5.046875 -19.695312 5.078125 -18.84375 C 5.117188 -17.988281 5.203125 -17.289062 5.328125 -16.75 C 5.671875 -16.40625 6.101562 -16.195312 6.625 -16.125 L 6.65625 -16.3125 L 6.875 -16.265625 L 6.875 -16.125 C 7.21875 -16.125 7.554688 -16.140625 7.890625 -16.171875 C 8.222656 -16.210938 8.5625 -16.234375 8.90625 -16.234375 C 8.988281 -15.984375 9.050781 -15.722656 9.09375 -15.453125 C 9.144531 -15.179688 9.171875 -14.910156 9.171875 -14.640625 C 9.171875 -14.421875 9.148438 -14.207031 9.109375 -14 C 9.078125 -13.789062 9.035156 -13.570312 8.984375 -13.34375 C 8.585938 -13.125 8.164062 -13.007812 7.71875 -13 C 7.28125 -12.988281 6.851562 -12.992188 6.4375 -13.015625 L 6.390625 -12.71875 L 6.140625 -12.765625 L 6.21875 -13.0625 C 6.113281 -13.0625 6.007812 -13.066406 5.90625 -13.078125 C 5.8125 -13.085938 5.71875 -13.09375 5.625 -13.09375 C 5.15625 -12.625 4.941406 -12.195312 4.984375 -11.8125 C 5.035156 -11.4375 5.0625 -10.9375 5.0625 -10.3125 L 5.03125 -10.3125 L 5.03125 -10.25 L 5.0625 -10.203125 L 5.0625 -9.0625 L 4.953125 -9.03125 L 5.03125 -8.90625 L 5.0625 -8.90625 L 5.0625 -7.328125 L 5.03125 -7.328125 L 5 -7.0625 L 5.0625 -7.0625 L 5.0625 -6.84375 L 5 -6.84375 L 5 -6.46875 L 5.03125 -6.46875 L 5.0625 -6.6875 C 5.09375 -6.070312 5.128906 -5.460938 5.171875 -4.859375 C 5.222656 -4.253906 5.300781 -3.65625 5.40625 -3.0625 C 5.820312 -2.75 6.328125 -2.59375 6.921875 -2.59375 C 7.265625 -2.59375 7.613281 -2.609375 7.96875 -2.640625 C 8.320312 -2.679688 8.660156 -2.710938 8.984375 -2.734375 Z M 5.8125 -24.484375 L 5.734375 -24.484375 L 5.734375 -24.671875 L 5.8125 -24.515625 Z M 5.8125 -24.484375 "/></g></g></g></svg>